{
.appVersion = "1342";
DisplayStrings = (
"/dieresisgrave/dieresiscomb_gravecomb/dieresiscomb_acutecomb/dieresiscomb_caroncomb/dieresiscomb_macroncomb/dotaccentcomb_macroncomb/ringcomb_acutecomb/tildecomb_macroncomb/brevecomb_acutecomb/brevecomb_gravecomb/brevecomb_hookabovecomb/brevecomb_tildecomb/circumflexcomb_acutecomb/circumflexcomb_gravecomb/circumflexcomb_hookabovecomb/circumflexcomb_tildecomb/dieresiscomb_gravecomb.case/dieresiscomb_acutecomb.case/dieresiscomb_caroncomb.case/dieresiscomb_macroncomb.case/dotaccentcomb_macroncomb.case/circumflexcomb_hookcomb.case/brevecomb_hookcomb.case/ringcomb_acutecomb.case/tildecomb_macroncomb.case/brevecomb_acutecomb.case/brevecomb_gravecomb.case/brevecomb_tildecomb.case/circumflexcomb_acutecomb.case/circumflexcomb_gravecomb.case/circumflexcomb_tildecomb.case"
);
classes = (
{
automatic = 1;

glyphs = (
{
glyphname = A;
layers = (
{
anchors = (
{
name = bottom;
position = "{310, 0}";
},
{
name = ogonek;
position = "{541, 0}";
},
{
name = top;
position = "{316, 728}";
}
);
layerId = "42DF98DF-AAA4-4B66-9FB7-E08D57D544AF";
paths = (
{
closed = 1;
nodes = (
"271 728 LINE",
"18 0 LINE",
"102 0 LINE",
"187 250 LINE",
"427 250 LINE",
"511 0 LINE",
"614 0 LINE",
"362 728 LINE"
);
},
{
closed = 1;
nodes = (
"404 318 LINE",
"210 318 LINE",
"308 606 LINE"
);
}
);
width = 631;
},
{
anchors = (
{
name = bottom;
position = "{311, 0}";
},
{
name = ogonek;
position = "{524, 0}";
},
{
name = top;
position = "{311, 732}";
}
);
layerId = "0AB1FC3A-51B3-4F8E-BD9F-BEF828131012";
paths = (
{
closed = 1;
nodes = (
"261 732 LINE",
"2 0 LINE",
"118 0 LINE",
"191 210 LINE",
"409 210 LINE",
"481 0 LINE",
"629 0 LINE",
"370 732 LINE"
);
},
{
closed = 1;
nodes = (
"376 308 LINE",
"225 308 LINE",
"300 558 LINE"
);
}
);
width = 631;
},
{
anchors = (
{
name = bottom;
position = "{309, 0}";
},
{
name = ogonek;
position = "{550, 0}";
},
{
name = top;
position = "{319, 726}";
}
);
layerId = "49F6B500-2EFC-498D-B6E3-671BF3F335B4";
paths = (
{
closed = 1;
nodes = (
"276 726 LINE",
"26 0 LINE",
"94 0 LINE",
"185 271 LINE",
"436 271 LINE",
"527 0 LINE",
"606 0 LINE",
"358 726 LINE"
);
},
{
closed = 1;
nodes = (
"419 323 LINE",
"202 323 LINE",
"312 631 LINE"
);
}
);
width = 631;
}
);
leftKerningGroup = A;
note = A;
rightKerningGroup = A;
unicode = 0041;
},
{
glyphname = AE;
layers = (
{
anchors = (
{
name = top;
position = "{437, 728}";
}
);
layerId = "42DF98DF-AAA4-4B66-9FB7-E08D57D544AF";
paths = (
{
closed = 1;
nodes = (
"390 0 LINE",
"747 0 LINE",
"747 71 LINE",
"482 71 LINE",
"482 338 LINE",
"716 338 LINE",
"716 410 LINE",
"482 410 LINE",
"482 660 LINE",
"747 660 LINE",
"747 728 LINE",
"299 728 LINE",
"313 663 LINE",
"12 0 LINE",
"97 0 LINE",
"211 248 LINE",
"390 248 LINE"
);
},
{
closed = 1;
nodes = (
"390 641 LINE",
"390 320 LINE",
"243 320 LINE"
);
}
);
width = 794;
},
{
anchors = (
{
name = top;
position = "{510, 732}";
}
);
layerId = "0AB1FC3A-51B3-4F8E-BD9F-BEF828131012";
paths = (
{
closed = 1;
nodes = (
"442 0 LINE",
"887 0 LINE",
"887 99 LINE",
"580 99 LINE",
"580 327 LINE",
"815 327 LINE",
"815 426 LINE",
"580 426 LINE",
"580 633 LINE",
"887 633 LINE",
"887 732 LINE",
"323 732 LINE",
"337 670 LINE",
"-2 0 LINE",
"120 0 LINE",
"227 210 LINE",
"442 210 LINE"
);
},
{
closed = 1;
nodes = (
"442 633 LINE",
"442 308 LINE",
"278 308 LINE"
);
}
);
width = 924;
},
{
anchors = (
{
name = top;
position = "{399, 726}";
}
);
layerId = "49F6B500-2EFC-498D-B6E3-671BF3F335B4";
paths = (
{
closed = 1;
nodes = (
"363 0 LINE",
"673 0 LINE",
"673 56 LINE",
"430 56 LINE",
"430 344 LINE",
"664 344 LINE",
"664 402 LINE",
"430 402 LINE",
"430 674 LINE",
"673 674 LINE",
"673 726 LINE",
"286 726 LINE",
"300 659 LINE",
"19 0 LINE",
"85 0 LINE",
"203 268 LINE",
"363 268 LINE"
);
},
{
closed = 1;
nodes = (
"363 645 LINE",
"363 326 LINE",
"225 326 LINE"
);
}
);
width = 726;
}
);
leftKerningGroup = A;
note = AE;
rightKerningGroup = AE;
unicode = 00C6;
},
{
glyphname = B;
layers = (
{
layerId = "42DF98DF-AAA4-4B66-9FB7-E08D57D544AF";
paths = (
{
closed = 1;
nodes = (
"535 694 OFFCURVE",
"428 728 OFFCURVE",
"314 728 CURVE SMOOTH",
"71 728 LINE",
"72 722 OFFCURVE",
"85 664 OFFCURVE",
"85 662 CURVE SMOOTH",
"85 0 LINE",
"283 0 LINE SMOOTH",
"425 0 OFFCURVE",
"568 30 OFFCURVE",
"568 204 CURVE SMOOTH",
"568 301 OFFCURVE",
"511 382 OFFCURVE",
"412 397 CURVE",
"490 411 OFFCURVE",
"535 484 OFFCURVE",
"535 559 CURVE SMOOTH"
);
},
{
closed = 1;
nodes = (
"438 459 OFFCURVE",
"378 427 OFFCURVE",
"285 427 CURVE SMOOTH",
"178 427 LINE",
"178 659 LINE",
"311 659 LINE SMOOTH",
"379 659 OFFCURVE",
"438 636 OFFCURVE",
"438 557 CURVE SMOOTH"
);
},
{
closed = 1;
nodes = (
"469 100 OFFCURVE",
"394 69 OFFCURVE",
"289 69 CURVE SMOOTH",
"178 69 LINE",
"178 358 LINE",
"289 358 LINE SMOOTH",
"377 358 OFFCURVE",
"469 321 OFFCURVE",
"469 219 CURVE SMOOTH"
);
}
);
width = 614;
},
{
layerId = "0AB1FC3A-51B3-4F8E-BD9F-BEF828131012";
paths = (
{
closed = 1;
nodes = (
"552 699 OFFCURVE",
"428 732 OFFCURVE",
"313 732 CURVE SMOOTH",
"53 732 LINE",
"54 727 OFFCURVE",
"67 673 OFFCURVE",
"67 671 CURVE SMOOTH",
"67 0 LINE",
"323 0 LINE SMOOTH",
"452 0 OFFCURVE",
"586 53 OFFCURVE",
"586 203 CURVE SMOOTH",
"586 308 OFFCURVE",
"501 383 OFFCURVE",
"403 399 CURVE",
"485 411 OFFCURVE",
"552 475 OFFCURVE",
"552 561 CURVE SMOOTH"
);
},
{
closed = 1;
nodes = (
"407 484 OFFCURVE",
"364 446 OFFCURVE",
"308 446 CURVE SMOOTH",
"205 446 LINE",
"205 633 LINE",
"305 633 LINE SMOOTH",
"364 633 OFFCURVE",
"407 606 OFFCURVE",
"407 542 CURVE SMOOTH"
);
},
{
closed = 1;
nodes = (
"441 143 OFFCURVE",
"388 99 OFFCURVE",
"314 99 CURVE SMOOTH",
"205 99 LINE",
"205 347 LINE",
"283 347 LINE SMOOTH",
"363 347 OFFCURVE",
"441 309 OFFCURVE",
"441 219 CURVE SMOOTH"
);
}
);
width = 614;
},
{
layerId = "49F6B500-2EFC-498D-B6E3-671BF3F335B4";
paths = (
{
closed = 1;
nodes = (
"526 691 OFFCURVE",
"428 726 OFFCURVE",
"315 726 CURVE SMOOTH",
"80 726 LINE",
"81 719 OFFCURVE",
"94 659 OFFCURVE",
"94 657 CURVE SMOOTH",
"94 0 LINE",
"262 0 LINE SMOOTH",
"411 0 OFFCURVE",
"559 18 OFFCURVE",
"559 205 CURVE SMOOTH",
"559 297 OFFCURVE",
"516 381 OFFCURVE",
"417 396 CURVE",
"493 411 OFFCURVE",
"526 489 OFFCURVE",
"526 558 CURVE SMOOTH"
);
},
{
closed = 1;
nodes = (
"454 446 OFFCURVE",
"385 417 OFFCURVE",
"273 417 CURVE SMOOTH",
"164 417 LINE",
"164 673 LINE",
"314 673 LINE SMOOTH",
"387 673 OFFCURVE",
"454 652 OFFCURVE",
"454 565 CURVE SMOOTH"
);
},
{
closed = 1;
nodes = (
"484 77 OFFCURVE",
"397 53 OFFCURVE",
"276 53 CURVE SMOOTH",
"164 53 LINE",
"164 364 LINE",
"292 364 LINE SMOOTH",
"384 364 OFFCURVE",
"484 327 OFFCURVE",
"484 219 CURVE SMOOTH"
);
}
);
width = 614;
}
);
note = B;
rightKerningGroup = B;
unicode = 0042;
},
{
glyphname = C;
layers = (
{
anchors = (
{
name = bottom;
position = "{360, 0}";
},
{
name = top;
position = "{357, 728}";
}
);
background = {
paths = (
{
closed = 1;
nodes = (
"455 -12 OFFCURVE",
"551 11 OFFCURVE",
"607 58 CURVE",
"564 125 LINE",
"519 86 OFFCURVE",
"445 63 OFFCURVE",
"387 63 CURVE SMOOTH",
"215 63 OFFCURVE",
"148 206 OFFCURVE",
"148 360 CURVE SMOOTH",
"148 509 OFFCURVE",
"213 668 OFFCURVE",
"385 668 CURVE SMOOTH",
"441 668 OFFCURVE",
"514 644 OFFCURVE",
"553 601 CURVE",
"605 659 LINE",
"556 714 OFFCURVE",
"457 738 OFFCURVE",
"387 738 CURVE SMOOTH",
"169 738 OFFCURVE",
"46 575 OFFCURVE",
"46 366 CURVE SMOOTH",
"46 162 OFFCURVE",
"166 -12 OFFCURVE",
"385 -12 CURVE SMOOTH"
);
}
);
};
guideLines = (
{
position = "{654, 63}";
}
);
layerId = "42DF98DF-AAA4-4B66-9FB7-E08D57D544AF";
paths = (
{
closed = 1;
nodes = (
"448 -12 OFFCURVE",
"548 14 OFFCURVE",
"607 56 CURVE",
"576 113 LINE",
"506 78 OFFCURVE",
"440 63 OFFCURVE",
"384 63 CURVE SMOOTH",
"239 63 OFFCURVE",
"148 175 OFFCURVE",
"148 355 CURVE SMOOTH",
"148 510 OFFCURVE",
"231 668 OFFCURVE",
"385 668 CURVE SMOOTH",
"441 668 OFFCURVE",
"514 644 OFFCURVE",
"553 601 CURVE",
"605 659 LINE",
"556 714 OFFCURVE",
"457 738 OFFCURVE",
"387 738 CURVE SMOOTH",
"163 738 OFFCURVE",
"46 550 OFFCURVE",
"46 350 CURVE SMOOTH",
"46 165 OFFCURVE",
"149 -12 OFFCURVE",
"378 -12 CURVE SMOOTH"
);
}
);
width = 624;
},
{
anchors = (
{
name = bottom;
position = "{357, 0}";
},
{
name = top;
position = "{354, 732}";
}
);
guideLines = (
{
position = "{678, 82}";
}
);
layerId = "0AB1FC3A-51B3-4F8E-BD9F-BEF828131012";
paths = (
{
closed = 1;
nodes = (
"467 -12 OFFCURVE",
"534 12 OFFCURVE",
"612 62 CURVE",
"571 136 LINE",
"501 100 OFFCURVE",
"439 86 OFFCURVE",
"383 86 CURVE SMOOTH",
"248 86 OFFCURVE",
"169 193 OFFCURVE",
"169 374 CURVE SMOOTH",
"169 509 OFFCURVE",
"220 649 OFFCURVE",
"376 649 CURVE SMOOTH",
"431 649 OFFCURVE",
"499 625 OFFCURVE",
"536 583 CURVE",
"608 675 LINE",
"552 725 OFFCURVE",
"443 746 OFFCURVE",
"371 746 CURVE SMOOTH",
"152 746 OFFCURVE",
"20 583 OFFCURVE",
"20 371 CURVE SMOOTH",
"20 151 OFFCURVE",
"138 -12 OFFCURVE",
"370 -12 CURVE SMOOTH"
);
}
);
width = 624;
},
{
anchors = (
{
name = bottom;
position = "{362, 0}";
},
{
name = top;
position = "{359, 726}";
}
);
layerId = "49F6B500-2EFC-498D-B6E3-671BF3F335B4";
paths = (
{
closed = 1;
nodes = (
"438 -12 OFFCURVE",
"555 15 OFFCURVE",
"604 53 CURVE",
"579 101 LINE",
"509 66 OFFCURVE",
"441 51 OFFCURVE",
"385 51 CURVE SMOOTH",
"234 51 OFFCURVE",
"137 166 OFFCURVE",
"137 345 CURVE SMOOTH",
"137 511 OFFCURVE",
"237 678 OFFCURVE",
"390 678 CURVE SMOOTH",
"446 678 OFFCURVE",
"522 654 OFFCURVE",
"562 610 CURVE",
"603 651 LINE",
"558 708 OFFCURVE",
"464 734 OFFCURVE",
"395 734 CURVE SMOOTH",
"169 734 OFFCURVE",
"60 533 OFFCURVE",
"60 339 CURVE SMOOTH",
"60 172 OFFCURVE",
"155 -12 OFFCURVE",
"382 -12 CURVE SMOOTH"
);
}
);
width = 624;
}
);
leftKerningGroup = C;
note = C;
rightKerningGroup = C;
unicode = 0043;
},
{
glyphname = D;
layers = (
{
anchors = (
{
name = center;
position = "{195, 368}";
},
{
name = top;
position = "{340, 728}";
}
);
layerId = "42DF98DF-AAA4-4B66-9FB7-E08D57D544AF";
paths = (
{
closed = 1;
nodes = (
"653 625 OFFCURVE",
"502 728 OFFCURVE",
"259 728 CURVE SMOOTH",
"72 728 LINE",
"73 722 OFFCURVE",
"86 664 OFFCURVE",
"86 662 CURVE SMOOTH",
"86 0 LINE",
"323 0 LINE SMOOTH",
"548 0 OFFCURVE",
"653 152 OFFCURVE",
"653 362 CURVE SMOOTH"
);
},
{
closed = 1;
nodes = (
"556 202 OFFCURVE",
"493 69 OFFCURVE",
"311 69 CURVE SMOOTH",
"179 69 LINE",
"179 659 LINE",
"252 659 LINE SMOOTH",
"451 659 OFFCURVE",
"556 575 OFFCURVE",
"556 364 CURVE SMOOTH"
);
}
);
width = 699;
},
{
anchors = (
{
name = center;
position = "{168, 368}";
},
{
name = top;
position = "{344, 732}";
}
);
layerId = "0AB1FC3A-51B3-4F8E-BD9F-BEF828131012";
paths = (
{
closed = 1;
nodes = (
"680 583 OFFCURVE",
"551 732 OFFCURVE",
"328 732 CURVE SMOOTH",
"51 732 LINE",
"53 727 OFFCURVE",
"67 672 OFFCURVE",
"67 671 CURVE SMOOTH",
"67 0 LINE",
"327 0 LINE SMOOTH",
"543 0 OFFCURVE",
"680 152 OFFCURVE",
"680 365 CURVE SMOOTH"
);
},
{
closed = 1;
nodes = (
"532 226 OFFCURVE",
"473 99 OFFCURVE",
"321 99 CURVE SMOOTH",
"205 99 LINE",
"205 633 LINE",
"319 633 LINE SMOOTH",
"474 633 OFFCURVE",
"532 496 OFFCURVE",
"532 361 CURVE SMOOTH"
);
}
);
width = 699;
},
{
anchors = (
{
name = center;
position = "{209, 368}";
},
{
name = top;
position = "{338, 726}";
}
);
layerId = "49F6B500-2EFC-498D-B6E3-671BF3F335B4";
paths = (
{
closed = 1;
nodes = (
"639 647 OFFCURVE",
"476 726 OFFCURVE",
"223 726 CURVE SMOOTH",
"83 726 LINE",
"84 719 OFFCURVE",
"96 660 OFFCURVE",
"96 657 CURVE SMOOTH",
"96 0 LINE",
"321 0 LINE SMOOTH",
"551 0 OFFCURVE",
"639 152 OFFCURVE",
"639 360 CURVE SMOOTH"
);
},
{
closed = 1;
nodes = (
"569 189 OFFCURVE",
"504 53 OFFCURVE",
"306 53 CURVE SMOOTH",
"165 53 LINE",
"165 673 LINE",
"217 673 LINE SMOOTH",
"439 673 OFFCURVE",
"569 617 OFFCURVE",
"569 366 CURVE SMOOTH"
);
}
);
width = 699;
}
);
note = D;
rightKerningGroup = D;
unicode = 0044;
},
{
glyphname = E;
layers = (
{
anchors = (
{
name = bottom;
position = "{310, 0}";
},
{
name = ogonek;
position = "{441, 0}";
},
{
name = top;
position = "{301, 728}";
}
);
layerId = "42DF98DF-AAA4-4B66-9FB7-E08D57D544AF";
paths = (
{
closed = 1;
nodes = (
"86 662 LINE",
"86 0 LINE",
"509 0 LINE",
"509 69 LINE",
"179 69 LINE",
"179 340 LINE",
"435 340 LINE",
"435 408 LINE",
"179 408 LINE",
"179 659 LINE",
"509 659 LINE",
"509 728 LINE",
"72 728 LINE"
);
}
);
width = 549;
},
{
anchors = (
{
name = bottom;
position = "{311, 0}";
},
{
name = ogonek;
position = "{422, 0}";
},
{
name = top;
position = "{297, 732}";
}
);
layerId = "0AB1FC3A-51B3-4F8E-BD9F-BEF828131012";
paths = (
{
closed = 1;
nodes = (
"67 671 LINE",
"67 0 LINE",
"512 0 LINE",
"512 99 LINE",
"204 99 LINE",
"204 327 LINE",
"440 327 LINE",
"440 426 LINE",
"204 426 LINE",
"204 633 LINE",
"512 633 LINE",
"512 732 LINE",
"52 732 LINE"
);
}
);
width = 549;
},
{
anchors = (
{
name = bottom;
position = "{309, 0}";
},
{
name = ogonek;
position = "{451, 0}";
},
{
name = top;
position = "{303, 726}";
}
);
layerId = "49F6B500-2EFC-498D-B6E3-671BF3F335B4";
paths = (
{
closed = 1;
nodes = (
"96 657 LINE",
"96 0 LINE",
"507 0 LINE",
"507 53 LINE",
"166 53 LINE",
"166 347 LINE",
"432 347 LINE",
"432 399 LINE",
"166 399 LINE",
"166 673 LINE",
"507 673 LINE",
"507 726 LINE",
"83 726 LINE"
);
}
);
width = 549;
}
);
note = E;
rightKerningGroup = AE;
unicode = 0045;
},
{
glyphname = F;
layers = (
{
layerId = "42DF98DF-AAA4-4B66-9FB7-E08D57D544AF";
paths = (
{
closed = 1;
nodes = (
"86 662 LINE",
"86 0 LINE",
"179 0 LINE",
"179 340 LINE",
"414 340 LINE",
"414 408 LINE",
"179 408 LINE",
"179 659 LINE",
"475 659 LINE",
"475 728 LINE",
"72 728 LINE"
);
}
);
width = 510;
},
{
layerId = "0AB1FC3A-51B3-4F8E-BD9F-BEF828131012";
paths = (
{
closed = 1;
nodes = (
"67 671 LINE",
"67 0 LINE",
"206 0 LINE",
"206 327 LINE",
"419 327 LINE",
"419 426 LINE",
"206 426 LINE",
"206 633 LINE",
"482 633 LINE",
"482 732 LINE",
"53 732 LINE"
);
}
);
width = 510;
},
{
layerId = "49F6B500-2EFC-498D-B6E3-671BF3F335B4";
paths = (
{
closed = 1;
nodes = (
"96 657 LINE",
"96 0 LINE",
"165 0 LINE",
"165 347 LINE",
"411 347 LINE",
"411 399 LINE",
"165 399 LINE",
"165 673 LINE",
"471 673 LINE",
"471 726 LINE",
"82 726 LINE"
);
}
);
width = 510;
}
);
note = F;
rightKerningGroup = F;
unicode = 0046;
},
{
glyphname = Fhook;
layers = (
{
layerId = "42DF98DF-AAA4-4B66-9FB7-E08D57D544AF";
paths = (
{
closed = 1;
nodes = (
"-13 -211 LINE",
"149 -196 OFFCURVE",
"179 -78 OFFCURVE",
"179 61 CURVE SMOOTH",
"179 340 LINE",
"414 340 LINE",
"414 408 LINE",
"179 408 LINE",
"179 659 LINE",
"475 659 LINE",
"475 728 LINE",
"71 728 LINE",
"86 662 LINE",
"86 55 LINE SMOOTH",
"86 -29 OFFCURVE",
"80 -144 OFFCURVE",
"-25 -159 CURVE"
);
}
);
width = 510;
},
{
layerId = "0AB1FC3A-51B3-4F8E-BD9F-BEF828131012";
paths = (
{
closed = 1;
nodes = (
"-18 -209 LINE",
"179 -200 OFFCURVE",
"206 -70 OFFCURVE",
"206 98 CURVE SMOOTH",
"206 327 LINE",
"419 327 LINE",
"419 426 LINE",
"206 426 LINE",
"206 633 LINE",
"482 633 LINE",
"482 732 LINE",
"53 732 LINE",
"67 671 LINE",
"67 47 LINE SMOOTH",
"67 -34 OFFCURVE",
"59 -119 OFFCURVE",
"-38 -131 CURVE"
);
}
);
width = 510;
},
{
layerId = "49F6B500-2EFC-498D-B6E3-671BF3F335B4";
paths = (
{
closed = 1;
nodes = (
"-10 -212 LINE",
"133 -194 OFFCURVE",
"165 -82 OFFCURVE",
"165 42 CURVE SMOOTH",
"165 347 LINE",
"411 347 LINE",
"411 399 LINE",
"165 399 LINE",
"165 673 LINE",
"471 673 LINE",
"471 726 LINE",
"80 726 LINE",
"96 657 LINE",
"96 59 LINE SMOOTH",
"96 -26 OFFCURVE",
"91 -157 OFFCURVE",
"-18 -174 CURVE"
);
}
);
width = 510;
}
);
unicode = 0191;
},
{
glyphname = G;
layers = (
{
anchors = (
{
name = bottom;
position = "{361, 0}";
},
{
name = top;
position = "{363, 728}";
}
);
layerId = "42DF98DF-AAA4-4B66-9FB7-E08D57D544AF";
paths = (
{
closed = 1;
nodes = (
"159 738 OFFCURVE",
"47 568 OFFCURVE",
"47 355 CURVE SMOOTH",
"47 161 OFFCURVE",
"149 -12 OFFCURVE",
"359 -12 CURVE SMOOTH",
"445 -12 OFFCURVE",
"510 13 OFFCURVE",
"569 76 CURVE",
"601 0 LINE",
"651 0 LINE",
"648 55 OFFCURVE",
"642 111 OFFCURVE",
"642 166 CURVE SMOOTH",
"642 375 LINE",
"381 375 LINE",
"369 307 LINE",
"548 307 LINE",
"548 241 LINE SMOOTH",
"548 138 OFFCURVE",
"480 62 OFFCURVE",
"375 62 CURVE SMOOTH",
"205 62 OFFCURVE",
"145 218 OFFCURVE",
"145 364 CURVE SMOOTH",
"145 518 OFFCURVE",
"210 666 OFFCURVE",
"385 666 CURVE SMOOTH",
"468 666 OFFCURVE",
"508 643 OFFCURVE",
"571 593 CURVE",
"624 655 LINE",
"568 713 OFFCURVE",
"462 738 OFFCURVE",
"385 738 CURVE SMOOTH"
);
}
);
width = 707;
},
{
anchors = (
{
name = bottom;
position = "{359, 0}";
},
{
name = top;
position = "{361, 732}";
}
);
layerId = "0AB1FC3A-51B3-4F8E-BD9F-BEF828131012";
paths = (
{
closed = 1;
nodes = (
"154 744 OFFCURVE",
"21 588 OFFCURVE",
"21 359 CURVE SMOOTH",
"21 155 OFFCURVE",
"128 -11 OFFCURVE",
"345 -11 CURVE SMOOTH",
"437 -11 OFFCURVE",
"497 14 OFFCURVE",
"563 75 CURVE",
"597 -1 LINE",
"668 -1 LINE",
"664 68 OFFCURVE",
"662 137 OFFCURVE",
"663 206 CURVE SMOOTH",
"665 390 LINE",
"387 390 LINE",
"374 302 LINE",
"526 302 LINE",
"526 240 LINE SMOOTH",
"526 144 OFFCURVE",
"462 85 OFFCURVE",
"368 85 CURVE SMOOTH",
"221 85 OFFCURVE",
"166 245 OFFCURVE",
"166 368 CURVE SMOOTH",
"166 513 OFFCURVE",
"221 650 OFFCURVE",
"387 650 CURVE SMOOTH",
"472 650 OFFCURVE",
"507 630 OFFCURVE",
"571 583 CURVE",
"644 665 LINE",
"584 722 OFFCURVE",
"465 744 OFFCURVE",
"387 744 CURVE SMOOTH"
);
}
);
width = 707;
},
{
anchors = (
{
name = bottom;
position = "{362, 0}";
},
{
name = top;
position = "{364, 726}";
}
);
layerId = "49F6B500-2EFC-498D-B6E3-671BF3F335B4";
paths = (
{
closed = 1;
nodes = (
"162 735 OFFCURVE",
"61 557 OFFCURVE",
"61 353 CURVE SMOOTH",
"61 164 OFFCURVE",
"160 -13 OFFCURVE",
"366 -13 CURVE SMOOTH",
"449 -13 OFFCURVE",
"517 12 OFFCURVE",
"572 77 CURVE",
"603 1 LINE",
"642 1 LINE",
"640 48 OFFCURVE",
"631 97 OFFCURVE",
"631 145 CURVE SMOOTH",
"630 367 LINE",
"378 367 LINE",
"366 310 LINE",
"560 310 LINE",
"560 242 LINE SMOOTH",
"560 135 OFFCURVE",
"489 50 OFFCURVE",
"379 50 CURVE SMOOTH",
"197 50 OFFCURVE",
"134 204 OFFCURVE",
"134 362 CURVE SMOOTH",
"134 521 OFFCURVE",
"204 674 OFFCURVE",
"384 674 CURVE SMOOTH",
"466 674 OFFCURVE",
"509 650 OFFCURVE",
"571 598 CURVE",
"613 650 LINE",
"560 708 OFFCURVE",
"460 735 OFFCURVE",
"384 735 CURVE SMOOTH"
);
}
);
width = 707;
}
);
leftKerningGroup = C;
note = G;
rightKerningGroup = G;
unicode = 0047;
},
{
glyphname = H;
layers = (
{
anchors = (
{
name = bottom;
position = "{355, 0}";
},
{
name = center;
position = "{361, 558}";
},
{
name = top;
position = "{357, 728}";
}
);
layerId = "42DF98DF-AAA4-4B66-9FB7-E08D57D544AF";
paths = (
{
closed = 1;
nodes = (
"534 0 LINE",
"627 0 LINE",
"627 728 LINE",
"534 728 LINE",
"534 412 LINE",
"180 412 LINE",
"180 728 LINE",
"73 728 LINE",
"74 722 OFFCURVE",
"87 664 OFFCURVE",
"87 662 CURVE SMOOTH",
"87 0 LINE",
"180 0 LINE",
"180 344 LINE",
"534 344 LINE"
);
}
);
width = 714;
},
{
anchors = (
{
name = bottom;
position = "{354, 0}";
},
{
name = center;
position = "{360, 558}";
},
{
name = top;
position = "{356, 732}";
}
);
layerId = "0AB1FC3A-51B3-4F8E-BD9F-BEF828131012";
paths = (
{
closed = 1;
nodes = (
"512 0 LINE",
"650 0 LINE",
"650 732 LINE",
"512 732 LINE",
"512 426 LINE",
"205 426 LINE",
"205 732 LINE",
"53 732 LINE",
"54 727 OFFCURVE",
"67 673 OFFCURVE",
"67 671 CURVE SMOOTH",
"67 0 LINE",
"205 0 LINE",
"205 327 LINE",
"512 327 LINE"
);
}
);
width = 714;
},
{
anchors = (
{
name = bottom;
position = "{356, 0}";
},
{
name = center;
position = "{362, 558}";
},
{
name = top;
position = "{358, 726}";
}
);
layerId = "49F6B500-2EFC-498D-B6E3-671BF3F335B4";
paths = (
{
closed = 1;
nodes = (
"546 0 LINE",
"615 0 LINE",
"615 726 LINE",
"546 726 LINE",
"546 405 LINE",
"167 405 LINE",
"167 726 LINE",
"84 726 LINE",
"85 719 OFFCURVE",
"98 659 OFFCURVE",
"98 657 CURVE SMOOTH",
"98 0 LINE",
"167 0 LINE",
"167 353 LINE",
"546 353 LINE"
);
}
);
width = 714;
}
);
note = H;
unicode = 0048;
},
{
glyphname = I;
layers = (
{
anchors = (
{
name = bottom;
position = "{137, 0}";
},
{
name = ogonek;
position = "{120, 0}";
},
{
name = top;
position = "{133, 728}";
}
);
layerId = "42DF98DF-AAA4-4B66-9FB7-E08D57D544AF";
paths = (
{
closed = 1;
nodes = (
"74 722 OFFCURVE",
"87 664 OFFCURVE",
"87 662 CURVE SMOOTH",
"87 0 LINE",
"180 0 LINE",
"180 728 LINE",
"73 728 LINE"
);
}
);
width = 268;
},
{
anchors = (
{
name = bottom;
position = "{137, 0}";
},
{
name = ogonek;
position = "{113, 0}";
},
{
name = top;
position = "{135, 732}";
}
);
layerId = "0AB1FC3A-51B3-4F8E-BD9F-BEF828131012";
paths = (
{
closed = 1;
nodes = (
"53 727 OFFCURVE",
"66 673 OFFCURVE",
"66 671 CURVE SMOOTH",
"66 0 LINE",
"204 0 LINE",
"204 732 LINE",
"52 732 LINE"
);
}
);
width = 268;
},
{
anchors = (
{
name = bottom;
position = "{137, 0}";
},
{
name = ogonek;
position = "{124, 0}";
},
{
name = top;
position = "{132, 726}";
}
);
layerId = "49F6B500-2EFC-498D-B6E3-671BF3F335B4";
paths = (
{
closed = 1;
nodes = (
"85 719 OFFCURVE",
"98 659 OFFCURVE",
"98 657 CURVE SMOOTH",
"98 0 LINE",
"167 0 LINE",
"167 726 LINE",
"84 726 LINE"
);
}
);
width = 268;
}
);
note = I;
unicode = 0049;
},
{
glyphname = J;
layers = (
{
anchors = (
{
name = top;
position = "{131, 728}";
}
);
layerId = "42DF98DF-AAA4-4B66-9FB7-E08D57D544AF";
paths = (
{
closed = 1;
nodes = (
"88 662 LINE",
"88 55 LINE SMOOTH",
"88 -29 OFFCURVE",
"81 -135 OFFCURVE",
"-24 -152 CURVE",
"-11 -211 LINE",
"151 -196 OFFCURVE",
"181 -78 OFFCURVE",
"181 61 CURVE SMOOTH",
"181 728 LINE",
"73 728 LINE"
);
}
);
width = 268;
},
{
anchors = (
{
name = top;
position = "{132, 732}";
}
);
layerId = "0AB1FC3A-51B3-4F8E-BD9F-BEF828131012";
paths = (
{
closed = 1;
nodes = (
"67 671 LINE",
"67 47 LINE SMOOTH",
"67 -34 OFFCURVE",
"61 -120 OFFCURVE",
"-36 -134 CURVE",
"-18 -209 LINE",
"179 -200 OFFCURVE",
"205 -70 OFFCURVE",
"205 98 CURVE SMOOTH",
"205 732 LINE",
"53 732 LINE"
);
}
);
width = 268;
},
{
anchors = (
{
name = top;
position = "{130, 726}";
}
);
layerId = "49F6B500-2EFC-498D-B6E3-671BF3F335B4";
paths = (
{
closed = 1;
nodes = (
"99 657 LINE",
"99 59 LINE SMOOTH",
"99 -26 OFFCURVE",
"92 -143 OFFCURVE",
"-18 -161 CURVE",
"-7 -212 LINE",
"136 -194 OFFCURVE",
"168 -82 OFFCURVE",
"168 42 CURVE SMOOTH",
"168 726 LINE",
"84 726 LINE"
);
}
);
width = 268;
}
);
note = J;
unicode = 004A;
},
{
glyphname = K;
layers = (
{
anchors = (
{
name = bottom;
position = "{317, 0}";
}
);
layerId = "42DF98DF-AAA4-4B66-9FB7-E08D57D544AF";
paths = (
{
closed = 1;
nodes = (
"86 662 LINE",
"86 0 LINE",
"179 0 LINE",
"179 379 LINE",
"467 0 LINE",
"583 0 LINE",
"278 404 LINE",
"565 728 LINE",
"468 728 LINE",
"179 403 LINE",
"179 728 LINE",
"72 728 LINE"
);
}
);
width = 583;
},
{
anchors = (
{
name = bottom;
position = "{317, 0}";
}
);
layerId = "0AB1FC3A-51B3-4F8E-BD9F-BEF828131012";
paths = (
{
closed = 1;
nodes = (
"66 671 LINE",
"66 0 LINE",
"204 0 LINE",
"204 371 LINE",
"437 0 LINE",
"597 0 LINE",
"338 412 LINE",
"576 732 LINE",
"448 732 LINE",
"204 405 LINE",
"204 732 LINE",
"52 732 LINE"
);
}
);
width = 583;
},
{
anchors = (
{
name = bottom;
position = "{317, 0}";
}
);
layerId = "49F6B500-2EFC-498D-B6E3-671BF3F335B4";
paths = (
{
closed = 1;
nodes = (
"97 657 LINE",
"97 0 LINE",
"166 0 LINE",
"166 383 LINE",
"483 0 LINE",
"576 0 LINE",
"246 400 LINE",
"559 726 LINE",
"479 726 LINE",
"166 402 LINE",
"166 726 LINE",
"83 726 LINE"
);
}
);
width = 583;
}
);
note = K;
rightKerningGroup = K;
unicode = 004B;
},
{
glyphname = L;
layers = (
{
anchors = (
{
name = bottom;
position = "{293, 0}";
},
{
name = center;
position = "{135, 365}";
},
{
name = top;
position = "{133, 728}";
},
{
name = topright;
position = "{170, 492}";
}
);
layerId = "42DF98DF-AAA4-4B66-9FB7-E08D57D544AF";
paths = (
{
closed = 1;
nodes = (
"86 662 LINE",
"86 0 LINE",
"485 0 LINE",
"485 69 LINE",
"179 69 LINE",
"179 728 LINE",
"72 728 LINE"
);
}
);
width = 514;
},
{
anchors = (
{
name = bottom;
position = "{294, 0}";
},
{
name = center;
position = "{136, 377}";
},
{
name = top;
position = "{137, 732}";
},
{
name = topright;
position = "{172, 494}";
}
);
layerId = "0AB1FC3A-51B3-4F8E-BD9F-BEF828131012";
paths = (
{
closed = 1;
nodes = (
"66 671 LINE",
"66 0 LINE",
"492 0 LINE",
"492 99 LINE",
"205 99 LINE",
"205 732 LINE",
"53 732 LINE"
);
}
);
width = 514;
},
{
anchors = (
{
name = bottom;
position = "{292, 0}";
},
{
name = center;
position = "{134, 359}";
},
{
name = top;
position = "{131, 726}";
},
{
name = topright;
position = "{169, 491}";
}
);
layerId = "49F6B500-2EFC-498D-B6E3-671BF3F335B4";
paths = (
{
closed = 1;
nodes = (
"97 657 LINE",
"97 0 LINE",
"481 0 LINE",
"481 53 LINE",
"165 53 LINE",
"165 726 LINE",
"82 726 LINE"
);
}
);
width = 514;
}
);
note = L;
rightKerningGroup = L;
unicode = 004C;
},
{
glyphname = M;
layers = (
{
layerId = "42DF98DF-AAA4-4B66-9FB7-E08D57D544AF";
paths = (
{
closed = 1;
nodes = (
"74 728 LINE",
"89 662 LINE",
"89 0 LINE",
"165 0 LINE",
"165 532 LINE SMOOTH",
"165 554 OFFCURVE",
"164 574 OFFCURVE",
"162 600 CURVE",
"169 581 OFFCURVE",
"179 558 OFFCURVE",
"186 538 CURVE SMOOTH",
"384 -1 LINE",
"440 -1 LINE",
"636 533 LINE SMOOTH",
"644 555 OFFCURVE",
"654 579 OFFCURVE",
"662 600 CURVE",
"660 572 OFFCURVE",
"659 551 OFFCURVE",
"659 527 CURVE SMOOTH",
"659 0 LINE",
"751 0 LINE",
"751 728 LINE",
"630 728 LINE",
"454 252 LINE SMOOTH",
"442 220 OFFCURVE",
"432 191 OFFCURVE",
"421 151 CURVE",
"409 192 OFFCURVE",
"398 222 OFFCURVE",
"386 255 CURVE SMOOTH",
"209 728 LINE"
);
}
);
width = 838;
},
{
layerId = "0AB1FC3A-51B3-4F8E-BD9F-BEF828131012";
paths = (
{
closed = 1;
nodes = (
"53 732 LINE",
"67 671 LINE",
"67 1 LINE",
"176 1 LINE",
"176 497 LINE SMOOTH",
"176 521 OFFCURVE",
"172 546 OFFCURVE",
"171 569 CURVE",
"179 545 OFFCURVE",
"186 521 OFFCURVE",
"195 497 CURVE SMOOTH",
"379 0 LINE",
"453 0 LINE",
"632 497 LINE SMOOTH",
"641 521 OFFCURVE",
"648 545 OFFCURVE",
"656 569 CURVE",
"654 546 OFFCURVE",
"651 521 OFFCURVE",
"651 497 CURVE SMOOTH",
"651 1 LINE",
"786 1 LINE",
"786 732 LINE",
"610 732 LINE",
"457 308 LINE SMOOTH",
"443 269 OFFCURVE",
"440 233 OFFCURVE",
"430 191 CURVE",
"422 232 OFFCURVE",
"416 272 OFFCURVE",
"401 312 CURVE SMOOTH",
"245 732 LINE"
);
}
);
width = 838;
},
{
layerId = "49F6B500-2EFC-498D-B6E3-671BF3F335B4";
paths = (
{
closed = 1;
nodes = (
"85 726 LINE",
"101 657 LINE",
"101 -1 LINE",
"159 -1 LINE",
"159 550 LINE SMOOTH",
"159 571 OFFCURVE",
"160 589 OFFCURVE",
"157 616 CURVE",
"164 600 OFFCURVE",
"175 577 OFFCURVE",
"181 560 CURVE SMOOTH",
"387 -2 LINE",
"433 -2 LINE",
"638 552 LINE SMOOTH",
"646 573 OFFCURVE",
"657 597 OFFCURVE",
"665 616 CURVE",
"663 586 OFFCURVE",
"663 567 OFFCURVE",
"663 543 CURVE SMOOTH",
"663 -1 LINE",
"733 -1 LINE",
"733 726 LINE",
"641 726 LINE",
"452 223 LINE SMOOTH",
"441 194 OFFCURVE",
"428 169 OFFCURVE",
"416 130 CURVE",
"402 171 OFFCURVE",
"389 196 OFFCURVE",
"378 225 CURVE SMOOTH",
"190 726 LINE"
);
}
);
width = 838;
}
);
note = M;
unicode = 004D;
},
{
glyphname = N;
layers = (
{
anchors = (
{
name = bottom;
position = "{362, 0}";
},
{
name = top;
position = "{355, 728}";
}
);
layerId = "42DF98DF-AAA4-4B66-9FB7-E08D57D544AF";
paths = (
{
closed = 1;
nodes = (
"73 728 LINE",
"87 662 LINE",
"87 0 LINE",
"163 0 LINE",
"163 553 LINE SMOOTH",
"163 574 OFFCURVE",
"162 597 OFFCURVE",
"160 618 CURVE",
"173 601 OFFCURVE",
"186 580 OFFCURVE",
"197 563 CURVE SMOOTH",
"568 -5 LINE",
"627 -5 LINE",
"627 728 LINE",
"551 728 LINE",
"551 248 LINE SMOOTH",
"551 226 OFFCURVE",
"553 202 OFFCURVE",
"554 180 CURVE",
"541 199 OFFCURVE",
"527 220 OFFCURVE",
"515 239 CURVE SMOOTH",
"197 728 LINE"
);
}
);
width = 714;
},
{
anchors = (
{
name = bottom;
position = "{364, 0}";
},
{
name = top;
position = "{360, 732}";
}
);
layerId = "0AB1FC3A-51B3-4F8E-BD9F-BEF828131012";
paths = (
{
closed = 1;
nodes = (
"52 731 LINE",
"66 670 LINE",
"66 0 LINE",
"177 0 LINE",
"177 497 LINE SMOOTH",
"177 519 OFFCURVE",
"173 542 OFFCURVE",
"171 564 CURVE",
"184 542 OFFCURVE",
"199 519 OFFCURVE",
"213 497 CURVE SMOOTH",
"542 -5 LINE",
"650 -5 LINE",
"650 731 LINE",
"539 731 LINE",
"539 304 LINE SMOOTH",
"539 279 OFFCURVE",
"543 252 OFFCURVE",
"545 227 CURVE",
"532 249 OFFCURVE",
"519 271 OFFCURVE",
"504 293 CURVE SMOOTH",
"216 731 LINE"
);
}
);
width = 714;
},
{
anchors = (
{
name = bottom;
position = "{361, 0}";
},
{
name = top;
position = "{352, 726}";
}
);
layerId = "49F6B500-2EFC-498D-B6E3-671BF3F335B4";
paths = (
{
closed = 1;
nodes = (
"84 726 LINE",
"98 658 LINE",
"98 0 LINE",
"156 0 LINE",
"156 582 LINE SMOOTH",
"156 603 OFFCURVE",
"156 626 OFFCURVE",
"154 646 CURVE",
"167 632 OFFCURVE",
"179 612 OFFCURVE",
"189 598 CURVE SMOOTH",
"582 -5 LINE",
"615 -5 LINE",
"615 726 LINE",
"557 726 LINE",
"557 219 LINE SMOOTH",
"557 198 OFFCURVE",
"558 176 OFFCURVE",
"559 155 CURVE",
"546 173 OFFCURVE",
"531 193 OFFCURVE",
"521 211 CURVE SMOOTH",
"187 726 LINE"
);
}
);
width = 714;
}
);
note = N;
unicode = 004E;
},
{
glyphname = Eng;
layers = (
{
layerId = "42DF98DF-AAA4-4B66-9FB7-E08D57D544AF";
paths = (
{
closed = 1;
nodes = (
"87 662 LINE",
"87 0 LINE",
"163 0 LINE",
"163 553 LINE SMOOTH",
"163 574 OFFCURVE",
"162 597 OFFCURVE",
"160 618 CURVE",
"173 601 OFFCURVE",
"186 580 OFFCURVE",
"197 563 CURVE SMOOTH",
"534 47 LINE",
"534 -36 OFFCURVE",
"525 -144 OFFCURVE",
"423 -159 CURVE",
"435 -211 LINE",
"597 -196 OFFCURVE",
"627 -78 OFFCURVE",
"627 61 CURVE SMOOTH",
"627 728 LINE",
"551 728 LINE",
"551 248 LINE SMOOTH",
"551 226 OFFCURVE",
"553 202 OFFCURVE",
"554 180 CURVE",
"541 199 OFFCURVE",
"527 220 OFFCURVE",
"515 239 CURVE SMOOTH",
"197 728 LINE",
"73 728 LINE"
);
}
);
width = 714;
},
{
layerId = "0AB1FC3A-51B3-4F8E-BD9F-BEF828131012";
paths = (
{
closed = 1;
nodes = (
"66 670 LINE",
"66 0 LINE",
"177 0 LINE",
"177 497 LINE SMOOTH",
"177 519 OFFCURVE",
"173 542 OFFCURVE",
"171 564 CURVE",
"184 542 OFFCURVE",
"199 519 OFFCURVE",
"213 497 CURVE SMOOTH",
"512 41 LINE",
"512 -38 OFFCURVE",
"502 -119 OFFCURVE",
"407 -131 CURVE",
"427 -209 LINE",
"624 -200 OFFCURVE",
"650 -70 OFFCURVE",
"650 98 CURVE SMOOTH",
"650 731 LINE",
"539 731 LINE",
"539 304 LINE SMOOTH",
"539 279 OFFCURVE",
"543 252 OFFCURVE",
"545 227 CURVE",
"532 249 OFFCURVE",
"519 271 OFFCURVE",
"504 293 CURVE SMOOTH",
"216 731 LINE",
"52 731 LINE"
);
}
);
width = 714;
},
{
layerId = "49F6B500-2EFC-498D-B6E3-671BF3F335B4";
paths = (
{
closed = 1;
nodes = (
"98 658 LINE",
"98 0 LINE",
"156 0 LINE",
"156 582 LINE SMOOTH",
"156 603 OFFCURVE",
"156 626 OFFCURVE",
"154 646 CURVE",
"167 632 OFFCURVE",
"179 612 OFFCURVE",
"189 598 CURVE SMOOTH",
"546 50 LINE",
"546 -35 OFFCURVE",
"537 -157 OFFCURVE",
"431 -174 CURVE",
"439 -212 LINE",
"583 -194 OFFCURVE",
"615 -82 OFFCURVE",
"615 42 CURVE SMOOTH",
"615 726 LINE",
"557 726 LINE",
"557 219 LINE SMOOTH",
"557 198 OFFCURVE",
"558 176 OFFCURVE",
"559 155 CURVE",
"546 173 OFFCURVE",
"531 193 OFFCURVE",
"521 211 CURVE SMOOTH",
"187 726 LINE",
"84 726 LINE"
);
}
);
width = 714;
}
);
unicode = 014A;
},
{
glyphname = Nhookleft;
layers = (
{
layerId = "42DF98DF-AAA4-4B66-9FB7-E08D57D544AF";
paths = (
{
closed = 1;
nodes = (
"-12 -211 LINE",
"155 -196 OFFCURVE",
"163 -78 OFFCURVE",
"163 61 CURVE SMOOTH",
"163 553 LINE SMOOTH",
"163 574 OFFCURVE",
"162 597 OFFCURVE",
"160 618 CURVE",
"173 601 OFFCURVE",
"186 580 OFFCURVE",
"197 563 CURVE SMOOTH",
"568 -5 LINE",
"627 -5 LINE",
"627 728 LINE",
"551 728 LINE",
"551 248 LINE SMOOTH",
"551 226 OFFCURVE",
"553 202 OFFCURVE",
"554 180 CURVE",
"541 199 OFFCURVE",
"527 220 OFFCURVE",
"515 239 CURVE SMOOTH",
"197 728 LINE",
"73 728 LINE",
"74 725 LINE",
"72 728 LINE",
"87 662 LINE",
"87 55 LINE SMOOTH",
"87 -31 OFFCURVE",
"91 -142 OFFCURVE",
"-23 -160 CURVE"
);
}
);
width = 714;
},
{
layerId = "0AB1FC3A-51B3-4F8E-BD9F-BEF828131012";
paths = (
{
closed = 1;
nodes = (
"-19 -209 LINE",
"178 -200 OFFCURVE",
"177 -70 OFFCURVE",
"177 98 CURVE SMOOTH",
"177 497 LINE SMOOTH",
"177 519 OFFCURVE",
"173 542 OFFCURVE",
"171 564 CURVE",
"184 542 OFFCURVE",
"199 519 OFFCURVE",
"213 497 CURVE SMOOTH",
"542 -5 LINE",
"650 -5 LINE",
"650 731 LINE",
"539 731 LINE",
"539 304 LINE SMOOTH",
"539 279 OFFCURVE",
"543 252 OFFCURVE",
"545 227 CURVE",
"532 249 OFFCURVE",
"519 271 OFFCURVE",
"504 293 CURVE SMOOTH",
"216 731 LINE",
"52 731 LINE",
"52 732 LINE",
"52 731 LINE",
"66 670 LINE",
"66 47 LINE SMOOTH",
"66 -34 OFFCURVE",
"58 -119 OFFCURVE",
"-39 -131 CURVE"
);
}
);
width = 714;
},
{
layerId = "49F6B500-2EFC-498D-B6E3-671BF3F335B4";
paths = (
{
closed = 1;
nodes = (
"-8 -212 LINE",
"143 -194 OFFCURVE",
"156 -82 OFFCURVE",
"156 42 CURVE SMOOTH",
"156 582 LINE SMOOTH",
"156 603 OFFCURVE",
"156 626 OFFCURVE",
"154 646 CURVE",
"167 632 OFFCURVE",
"179 612 OFFCURVE",
"189 598 CURVE SMOOTH",
"582 -5 LINE",
"615 -5 LINE",
"615 726 LINE",
"557 726 LINE",
"557 219 LINE SMOOTH",
"557 198 OFFCURVE",
"558 176 OFFCURVE",
"559 155 CURVE",
"546 173 OFFCURVE",
"531 193 OFFCURVE",
"521 211 CURVE SMOOTH",
"187 726 LINE",
"84 726 LINE",
"86 721 LINE",
"83 726 LINE",
"98 658 LINE",
"98 59 LINE SMOOTH",
"98 -29 OFFCURVE",
"108 -154 OFFCURVE",
"-15 -175 CURVE"
);
}
);
width = 714;
}
);
unicode = 019D;
},
{
glyphname = O;
layers = (
{
anchors = (
{
name = bottom;
position = "{383, 0}";
},
{
name = center;
position = "{369, 363}";
},
{
name = ogonek;
position = "{439, 0}";
},
{
name = top;
position = "{369, 728}";
},
{
name = topright;
position = "{401, 728}";
}
);
layerId = "42DF98DF-AAA4-4B66-9FB7-E08D57D544AF";
paths = (
{
closed = 1;
nodes = (
"586 -11 OFFCURVE",
"691 163 OFFCURVE",
"691 363 CURVE SMOOTH",
"691 562 OFFCURVE",
"587 738 OFFCURVE",
"369 738 CURVE SMOOTH",
"150 738 OFFCURVE",
"46 563 OFFCURVE",
"46 363 CURVE SMOOTH",
"46 164 OFFCURVE",
"151 -11 OFFCURVE",
"368 -11 CURVE SMOOTH"
);
},
{
closed = 1;
nodes = (
"200 57 OFFCURVE",
"145 219 OFFCURVE",
"145 362 CURVE SMOOTH",
"145 505 OFFCURVE",
"200 668 OFFCURVE",
"369 668 CURVE SMOOTH",
"538 668 OFFCURVE",
"594 507 OFFCURVE",
"594 363 CURVE SMOOTH",
"594 219 OFFCURVE",
"539 57 OFFCURVE",
"369 57 CURVE SMOOTH"
);
}
);
width = 737;
},
{
anchors = (
{
name = bottom;
position = "{383, 0}";
},
{
name = center;
position = "{369, 363}";
},
{
name = ogonek;
position = "{424, 0}";
},
{
name = top;
position = "{369, 732}";
},
{
name = topright;
position = "{401, 732}";
}
);
layerId = "0AB1FC3A-51B3-4F8E-BD9F-BEF828131012";
paths = (
{
closed = 1;
nodes = (
"587 -11 OFFCURVE",
"718 150 OFFCURVE",
"718 365 CURVE SMOOTH",
"718 584 OFFCURVE",
"594 743 OFFCURVE",
"366 743 CURVE SMOOTH",
"142 743 OFFCURVE",
"19 581 OFFCURVE",
"19 367 CURVE SMOOTH",
"19 155 OFFCURVE",
"141 -11 OFFCURVE",
"365 -11 CURVE SMOOTH"
);
},
{
closed = 1;
nodes = (
"212 84 OFFCURVE",
"166 240 OFFCURVE",
"166 371 CURVE SMOOTH",
"166 500 OFFCURVE",
"213 648 OFFCURVE",
"367 648 CURVE SMOOTH",
"525 648 OFFCURVE",
"570 491 OFFCURVE",
"570 361 CURVE SMOOTH",
"570 231 OFFCURVE",
"523 84 OFFCURVE",
"369 84 CURVE SMOOTH"
);
}
);
width = 737;
},
{
anchors = (
{
name = bottom;
position = "{383, 0}";
},
{
name = center;
position = "{369, 363}";
},
{
name = ogonek;
position = "{447, 0}";
},
{
name = top;
position = "{369, 726}";
},
{
name = topright;
position = "{401, 726}";
}
);
layerId = "49F6B500-2EFC-498D-B6E3-671BF3F335B4";
paths = (
{
closed = 1;
nodes = (
"585 -11 OFFCURVE",
"677 170 OFFCURVE",
"677 362 CURVE SMOOTH",
"677 550 OFFCURVE",
"583 735 OFFCURVE",
"371 735 CURVE SMOOTH",
"154 735 OFFCURVE",
"60 554 OFFCURVE",
"60 361 CURVE SMOOTH",
"60 169 OFFCURVE",
"156 -11 OFFCURVE",
"370 -11 CURVE SMOOTH"
);
},
{
closed = 1;
nodes = (
"194 43 OFFCURVE",
"134 208 OFFCURVE",
"134 357 CURVE SMOOTH",
"134 508 OFFCURVE",
"193 679 OFFCURVE",
"370 679 CURVE SMOOTH",
"545 679 OFFCURVE",
"607 515 OFFCURVE",
"607 364 CURVE SMOOTH",
"607 213 OFFCURVE",
"547 43 OFFCURVE",
"369 43 CURVE SMOOTH"
);
}
);
width = 737;
}
);
leftKerningGroup = C;
note = O;
rightKerningGroup = D;
unicode = 004F;
},
{
glyphname = OE;
layers = (
{
layerId = "42DF98DF-AAA4-4B66-9FB7-E08D57D544AF";
paths = (
{
closed = 1;
nodes = (
"598 0 LINE",
"1021 0 LINE",
"1021 71 LINE",
"692 71 LINE",
"692 338 LINE",
"947 338 LINE",
"947 410 LINE",
"692 410 LINE",
"692 658 LINE",
"1021 658 LINE",
"1021 728 LINE",
"599 728 LINE",
"599 633 LINE",
"541 708 OFFCURVE",
"462 737 OFFCURVE",
"376 737 CURVE SMOOTH",
"157 737 OFFCURVE",
"51 567 OFFCURVE",
"51 364 CURVE SMOOTH",
"51 166 OFFCURVE",
"152 -12 OFFCURVE",
"370 -12 CURVE SMOOTH",
"458 -12 OFFCURVE",
"537 20 OFFCURVE",
"598 94 CURVE"
);
},
{
closed = 1;
nodes = (
"204 58 OFFCURVE",
"149 220 OFFCURVE",
"149 363 CURVE SMOOTH",
"149 506 OFFCURVE",
"204 669 OFFCURVE",
"373 669 CURVE SMOOTH",
"542 669 OFFCURVE",
"598 508 OFFCURVE",
"598 364 CURVE SMOOTH",
"598 220 OFFCURVE",
"543 58 OFFCURVE",
"373 58 CURVE SMOOTH"
);
}
);
width = 1048;
},
{
layerId = "0AB1FC3A-51B3-4F8E-BD9F-BEF828131012";
paths = (
{
closed = 1;
nodes = (
"585 0 LINE",
"1030 0 LINE",
"1030 99 LINE",
"722 99 LINE",
"722 327 LINE",
"958 327 LINE",
"958 426 LINE",
"722 426 LINE",
"722 633 LINE",
"1030 633 LINE",
"1030 732 LINE",
"585 732 LINE",
"585 680 LINE",
"530 720 OFFCURVE",
"459 743 OFFCURVE",
"373 743 CURVE SMOOTH",
"149 743 OFFCURVE",
"24 580 OFFCURVE",
"24 366 CURVE SMOOTH",
"24 154 OFFCURVE",
"149 -11 OFFCURVE",
"373 -11 CURVE SMOOTH",
"458 -11 OFFCURVE",
"529 13 OFFCURVE",
"585 54 CURVE"
);
},
{
closed = 1;
nodes = (
"216 88 OFFCURVE",
"171 235 OFFCURVE",
"171 366 CURVE SMOOTH",
"171 495 OFFCURVE",
"219 644 OFFCURVE",
"373 644 CURVE SMOOTH",
"531 644 OFFCURVE",
"575 496 OFFCURVE",
"575 366 CURVE SMOOTH",
"575 236 OFFCURVE",
"527 88 OFFCURVE",
"373 88 CURVE SMOOTH"
);
}
);
width = 1055;
},
{
layerId = "49F6B500-2EFC-498D-B6E3-671BF3F335B4";
paths = (
{
closed = 1;
nodes = (
"605 0 LINE",
"1016 0 LINE",
"1016 56 LINE",
"676 56 LINE",
"676 344 LINE",
"941 344 LINE",
"941 402 LINE",
"676 402 LINE",
"676 671 LINE",
"1016 671 LINE",
"1016 726 LINE",
"606 726 LINE",
"606 608 LINE",
"547 702 OFFCURVE",
"464 734 OFFCURVE",
"378 734 CURVE SMOOTH",
"161 734 OFFCURVE",
"65 560 OFFCURVE",
"65 363 CURVE SMOOTH",
"65 172 OFFCURVE",
"154 -13 OFFCURVE",
"368 -13 CURVE SMOOTH",
"458 -13 OFFCURVE",
"541 24 OFFCURVE",
"605 115 CURVE"
);
},
{
closed = 1;
nodes = (
"198 42 OFFCURVE",
"137 212 OFFCURVE",
"137 361 CURVE SMOOTH",
"137 512 OFFCURVE",
"196 682 OFFCURVE",
"373 682 CURVE SMOOTH",
"548 682 OFFCURVE",
"610 514 OFFCURVE",
"610 363 CURVE SMOOTH",
"610 212 OFFCURVE",
"551 42 OFFCURVE",
"373 42 CURVE SMOOTH"
);
}
);
width = 1044;
}
);
leftKerningGroup = C;
note = OE;
rightKerningGroup = AE;
unicode = 0152;
},
{
glyphname = P;
layers = (
{
layerId = "42DF98DF-AAA4-4B66-9FB7-E08D57D544AF";
paths = (
{
closed = 1;
nodes = (
"86 662 LINE",
"86 0 LINE",
"179 0 LINE",
"179 288 LINE",
"290 288 LINE SMOOTH",
"425 288 OFFCURVE",
"534 362 OFFCURVE",
"534 508 CURVE SMOOTH",
"534 665 OFFCURVE",
"433 728 OFFCURVE",
"289 728 CURVE SMOOTH",
"71 728 LINE"
);
},
{
closed = 1;
nodes = (
"289 659 LINE SMOOTH",
"385 659 OFFCURVE",
"437 602 OFFCURVE",
"437 508 CURVE SMOOTH",
"437 417 OFFCURVE",
"380 356 OFFCURVE",
"288 356 CURVE SMOOTH",
"179 356 LINE",
"179 659 LINE"
);
}
);
width = 575;
},
{
layerId = "0AB1FC3A-51B3-4F8E-BD9F-BEF828131012";
paths = (
{
closed = 1;
nodes = (
"66 671 LINE",
"66 0 LINE",
"203 0 LINE",
"203 294 LINE",
"285 294 LINE SMOOTH",
"421 294 OFFCURVE",
"549 360 OFFCURVE",
"549 513 CURVE SMOOTH",
"549 678 OFFCURVE",
"428 732 OFFCURVE",
"283 732 CURVE SMOOTH",
"51 732 LINE"
);
},
{
closed = 1;
nodes = (
"289 633 LINE SMOOTH",
"365 633 OFFCURVE",
"403 586 OFFCURVE",
"403 513 CURVE SMOOTH",
"403 442 OFFCURVE",
"362 391 OFFCURVE",
"288 391 CURVE SMOOTH",
"204 391 LINE",
"204 633 LINE"
);
}
);
width = 575;
},
{
layerId = "49F6B500-2EFC-498D-B6E3-671BF3F335B4";
paths = (
{
closed = 1;
nodes = (
"97 657 LINE",
"97 0 LINE",
"166 0 LINE",
"166 285 LINE",
"293 285 LINE SMOOTH",
"427 285 OFFCURVE",
"526 363 OFFCURVE",
"526 505 CURVE SMOOTH",
"526 658 OFFCURVE",
"436 726 OFFCURVE",
"292 726 CURVE SMOOTH",
"82 726 LINE"
);
},
{
closed = 1;
nodes = (
"289 673 LINE SMOOTH",
"396 673 OFFCURVE",
"455 610 OFFCURVE",
"455 505 CURVE SMOOTH",
"455 404 OFFCURVE",
"389 338 OFFCURVE",
"288 338 CURVE SMOOTH",
"166 338 LINE",
"166 673 LINE"
);
}
);
width = 575;
}
);
note = P;
rightKerningGroup = P;
unicode = 0050;
},
{
glyphname = Thorn;
layers = (
{
layerId = "42DF98DF-AAA4-4B66-9FB7-E08D57D544AF";
paths = (
{
closed = 1;
nodes = (
"74 728 LINE",
"89 662 LINE",
"89 1 LINE",
"182 1 LINE",
"182 183 LINE",
"283 183 LINE SMOOTH",
"417 183 OFFCURVE",
"533 250 OFFCURVE",
"533 400 CURVE SMOOTH",
"533 555 OFFCURVE",
"424 611 OFFCURVE",
"282 611 CURVE SMOOTH",
"183 611 LINE",
"183 728 LINE"
);
},
{
closed = 1;
nodes = (
"182 251 LINE",
"182 542 LINE",
"290 542 LINE SMOOTH",
"385 542 OFFCURVE",
"435 488 OFFCURVE",
"435 400 CURVE SMOOTH",
"435 312 OFFCURVE",
"379 251 OFFCURVE",
"289 251 CURVE SMOOTH"
);
}
);
width = 575;
},
{
layerId = "0AB1FC3A-51B3-4F8E-BD9F-BEF828131012";
paths = (
{
closed = 1;
nodes = (
"53 732 LINE",
"66 671 LINE",
"66 0 LINE",
"203 0 LINE",
"203 179 LINE",
"285 179 LINE SMOOTH",
"421 179 OFFCURVE",
"549 245 OFFCURVE",
"549 398 CURVE SMOOTH",
"549 563 OFFCURVE",
"428 617 OFFCURVE",
"283 617 CURVE SMOOTH",
"205 617 LINE",
"205 732 LINE"
);
},
{
closed = 1;
nodes = (
"204 276 LINE",
"204 518 LINE",
"289 518 LINE SMOOTH",
"365 518 OFFCURVE",
"403 471 OFFCURVE",
"403 398 CURVE SMOOTH",
"403 327 OFFCURVE",
"362 276 OFFCURVE",
"288 276 CURVE SMOOTH"
);
}
);
width = 575;
},
{
layerId = "49F6B500-2EFC-498D-B6E3-671BF3F335B4";
paths = (
{
closed = 1;
nodes = (
"85 726 LINE",
"101 657 LINE",
"101 2 LINE",
"171 2 LINE",
"171 185 LINE",
"282 185 LINE SMOOTH",
"415 185 OFFCURVE",
"525 253 OFFCURVE",
"525 401 CURVE SMOOTH",
"525 551 OFFCURVE",
"422 608 OFFCURVE",
"281 608 CURVE SMOOTH",
"171 608 LINE",
"171 726 LINE"
);
},
{
closed = 1;
nodes = (
"170 238 LINE",
"170 555 LINE",
"291 555 LINE SMOOTH",
"396 555 OFFCURVE",
"452 497 OFFCURVE",
"452 401 CURVE SMOOTH",
"452 304 OFFCURVE",
"388 238 OFFCURVE",
"290 238 CURVE SMOOTH"
);
}
);
width = 575;
}
);
note = Thorn;
unicode = 00DE;
},
{
glyphname = Q;
layers = (
{
layerId = "42DF98DF-AAA4-4B66-9FB7-E08D57D544AF";
paths = (
{
closed = 1;
nodes = (
"1139 -127 LINE",
"1093 -141 OFFCURVE",
"1011 -158 OFFCURVE",
"969 -158 CURVE SMOOTH",
"827 -158 OFFCURVE",
"580 -30 OFFCURVE",
"508 7 CURVE SMOOTH",
"502 10 OFFCURVE",
"497 12 OFFCURVE",
"493 14 CURVE",
"634 74 OFFCURVE",
"691 219 OFFCURVE",
"691 363 CURVE SMOOTH",
"691 561 OFFCURVE",
"588 738 OFFCURVE",
"369 738 CURVE SMOOTH",
"149 738 OFFCURVE",
"46 562 OFFCURVE",
"46 363 CURVE SMOOTH",
"46 186 OFFCURVE",
"121 37 OFFCURVE",
"307 -5 CURVE SMOOTH",
"351 -15 OFFCURVE",
"398 -24 OFFCURVE",
"438 -42 CURVE SMOOTH",
"546 -90 OFFCURVE",
"784 -222 OFFCURVE",
"935 -222 CURVE SMOOTH",
"1029 -222 OFFCURVE",
"1085 -201 OFFCURVE",
"1155 -175 CURVE"
);
},
{
closed = 1;
nodes = (
"202 57 OFFCURVE",
"145 217 OFFCURVE",
"145 362 CURVE SMOOTH",
"145 508 OFFCURVE",
"201 668 OFFCURVE",
"369 668 CURVE SMOOTH",
"537 668 OFFCURVE",
"594 509 OFFCURVE",
"594 363 CURVE SMOOTH",
"594 216 OFFCURVE",
"537 57 OFFCURVE",
"369 57 CURVE SMOOTH"
);
}
);
width = 737;
},
{
layerId = "0AB1FC3A-51B3-4F8E-BD9F-BEF828131012";
paths = (
{
closed = 1;
nodes = (
"1161 -87 LINE",
"1094 -107 OFFCURVE",
"1015 -122 OFFCURVE",
"976 -122 CURVE SMOOTH",
"842 -122 OFFCURVE",
"657 -32 OFFCURVE",
"548 21 CURVE SMOOTH",
"544 23 OFFCURVE",
"538 25 OFFCURVE",
"533 26 CURVE",
"666 98 OFFCURVE",
"718 236 OFFCURVE",
"718 364 CURVE SMOOTH",
"718 560 OFFCURVE",
"606 744 OFFCURVE",
"369 744 CURVE SMOOTH",
"132 744 OFFCURVE",
"19 561 OFFCURVE",
"19 364 CURVE SMOOTH",
"19 189 OFFCURVE",
"97 35 OFFCURVE",
"301 -8 CURVE SMOOTH",
"344 -17 OFFCURVE",
"389 -24 OFFCURVE",
"429 -42 CURVE SMOOTH",
"567 -103 OFFCURVE",
"785 -216 OFFCURVE",
"935 -216 CURVE SMOOTH",
"1032 -216 OFFCURVE",
"1065 -204 OFFCURVE",
"1184 -163 CURVE"
);
},
{
closed = 1;
nodes = (
"223 85 OFFCURVE",
"167 226 OFFCURVE",
"167 363 CURVE SMOOTH",
"167 501 OFFCURVE",
"223 648 OFFCURVE",
"369 648 CURVE SMOOTH",
"516 648 OFFCURVE",
"571 502 OFFCURVE",
"571 364 CURVE SMOOTH",
"571 226 OFFCURVE",
"516 85 OFFCURVE",
"369 85 CURVE SMOOTH"
);
}
);
width = 737;
},
{
layerId = "49F6B500-2EFC-498D-B6E3-671BF3F335B4";
paths = (
{
closed = 1;
nodes = (
"1127 -148 LINE",
"1092 -159 OFFCURVE",
"1009 -177 OFFCURVE",
"965 -177 CURVE SMOOTH",
"819 -177 OFFCURVE",
"539 -29 OFFCURVE",
"487 0 CURVE SMOOTH",
"480 3 OFFCURVE",
"475 5 OFFCURVE",
"472 8 CURVE",
"617 61 OFFCURVE",
"677 210 OFFCURVE",
"677 362 CURVE SMOOTH",
"677 562 OFFCURVE",
"579 735 OFFCURVE",
"369 735 CURVE SMOOTH",
"158 735 OFFCURVE",
"60 563 OFFCURVE",
"60 362 CURVE SMOOTH",
"60 184 OFFCURVE",
"134 38 OFFCURVE",
"310 -3 CURVE SMOOTH",
"355 -14 OFFCURVE",
"403 -24 OFFCURVE",
"443 -42 CURVE SMOOTH",
"535 -83 OFFCURVE",
"783 -225 OFFCURVE",
"935 -225 CURVE SMOOTH",
"1027 -225 OFFCURVE",
"1096 -199 OFFCURVE",
"1140 -181 CURVE"
);
},
{
closed = 1;
nodes = (
"191 42 OFFCURVE",
"133 212 OFFCURVE",
"133 361 CURVE SMOOTH",
"133 512 OFFCURVE",
"189 679 OFFCURVE",
"369 679 CURVE SMOOTH",
"548 679 OFFCURVE",
"606 513 OFFCURVE",
"606 362 CURVE SMOOTH",
"606 211 OFFCURVE",
"548 42 OFFCURVE",
"369 42 CURVE SMOOTH"
);
}
);
width = 737;
}
);
leftKerningGroup = C;
note = Q;
rightKerningGroup = D;
unicode = 0051;
},
{
glyphname = R;
layers = (
{
anchors = (
{
name = bottom;
position = "{309, 0}";
},
{
name = top;
position = "{295, 728}";
}
);
layerId = "42DF98DF-AAA4-4B66-9FB7-E08D57D544AF";
paths = (
{
closed = 1;
nodes = (
"85 662 LINE",
"85 0 LINE",
"178 0 LINE",
"178 327 LINE",
"303 327 LINE",
"491 0 LINE",
"599 0 LINE",
"395 346 LINE",
"471 370 OFFCURVE",
"534 446 OFFCURVE",
"534 527 CURVE SMOOTH",
"534 683 OFFCURVE",
"426 728 OFFCURVE",
"288 728 CURVE SMOOTH",
"71 728 LINE"
);
},
{
closed = 1;
nodes = (
"288 659 LINE SMOOTH",
"366 659 OFFCURVE",
"437 618 OFFCURVE",
"437 533 CURVE SMOOTH",
"437 423 OFFCURVE",
"357 395 OFFCURVE",
"258 395 CURVE SMOOTH",
"178 395 LINE",
"178 659 LINE"
);
}
);
width = 591;
},
{
anchors = (
{
name = bottom;
position = "{311, 0}";
},
{
name = top;
position = "{283, 732}";
}
);
layerId = "0AB1FC3A-51B3-4F8E-BD9F-BEF828131012";
paths = (
{
closed = 1;
nodes = (
"66 671 LINE",
"66 0 LINE",
"203 0 LINE",
"203 326 LINE",
"258 326 LINE",
"461 0 LINE",
"617 0 LINE",
"393 347 LINE",
"474 367 OFFCURVE",
"549 447 OFFCURVE",
"549 532 CURVE SMOOTH",
"549 684 OFFCURVE",
"435 732 OFFCURVE",
"302 732 CURVE SMOOTH",
"51 732 LINE"
);
},
{
closed = 1;
nodes = (
"289 632 LINE SMOOTH",
"351 632 OFFCURVE",
"404 599 OFFCURVE",
"404 533 CURVE SMOOTH",
"404 448 OFFCURVE",
"345 424 OFFCURVE",
"267 424 CURVE SMOOTH",
"203 424 LINE",
"203 632 LINE"
);
}
);
width = 591;
},
{
anchors = (
{
name = bottom;
position = "{308, 0}";
},
{
name = top;
position = "{301, 726}";
}
);
layerId = "49F6B500-2EFC-498D-B6E3-671BF3F335B4";
paths = (
{
closed = 1;
nodes = (
"95 657 LINE",
"95 0 LINE",
"165 0 LINE",
"165 328 LINE",
"327 328 LINE",
"507 0 LINE",
"590 0 LINE",
"396 345 LINE",
"469 372 OFFCURVE",
"526 445 OFFCURVE",
"526 524 CURVE SMOOTH",
"526 682 OFFCURVE",
"421 726 OFFCURVE",
"281 726 CURVE SMOOTH",
"82 726 LINE"
);
},
{
closed = 1;
nodes = (
"287 673 LINE SMOOTH",
"374 673 OFFCURVE",
"454 628 OFFCURVE",
"454 533 CURVE SMOOTH",
"454 410 OFFCURVE",
"363 380 OFFCURVE",
"253 380 CURVE SMOOTH",
"165 380 LINE",
"165 673 LINE"
);
}
);
width = 591;
}
);
note = R;
rightKerningGroup = R;
unicode = 0052;
},
{
glyphname = S;
layers = (
{
anchors = (
{
name = bottom;
position = "{267, 0}";
},
{
name = top;
position = "{262, 728}";
}
);
background = {
paths = (
{
closed = 1;
nodes = (
"284 339 OFFCURVE",
"305 360 OFFCURVE",
"305 387 CURVE SMOOTH",
"305 413 OFFCURVE",
"284 434 OFFCURVE",
"258 434 CURVE SMOOTH",
"231 434 OFFCURVE",
"210 413 OFFCURVE",
"210 387 CURVE SMOOTH",
"210 360 OFFCURVE",
"231 339 OFFCURVE",
"258 339 CURVE SMOOTH"
);
}
);
};
layerId = "42DF98DF-AAA4-4B66-9FB7-E08D57D544AF";
paths = (
{
closed = 1;
nodes = (
"167 738 OFFCURVE",
"52 673 OFFCURVE",
"52 548 CURVE SMOOTH",
"52 428 OFFCURVE",
"148 385 OFFCURVE",
"237 343 CURVE SMOOTH",
"313 307 OFFCURVE",
"385 273 OFFCURVE",
"385 185 CURVE SMOOTH",
"385 96 OFFCURVE",
"304 60 OFFCURVE",
"238 60 CURVE SMOOTH",
"180 60 OFFCURVE",
"112 86 OFFCURVE",
"68 124 CURVE",
"32 42 LINE",
"96 9 OFFCURVE",
"163 -12 OFFCURVE",
"235 -12 CURVE SMOOTH",
"366 -12 OFFCURVE",
"485 54 OFFCURVE",
"485 198 CURVE SMOOTH",
"485 338 OFFCURVE",
"373 385 OFFCURVE",
"279 429 CURVE SMOOTH",
"211 461 OFFCURVE",
"152 492 OFFCURVE",
"152 556 CURVE SMOOTH",
"152 633 OFFCURVE",
"208 667 OFFCURVE",
"279 667 CURVE SMOOTH",
"331 667 OFFCURVE",
"380 647 OFFCURVE",
"422 617 CURVE",
"468 684 LINE",
"411 718 OFFCURVE",
"346 738 OFFCURVE",
"280 738 CURVE SMOOTH"
);
}
);
width = 516;
},
{
anchors = (
{
name = bottom;
position = "{267, 0}";
},
{
name = top;
position = "{262, 732}";
}
);
background = {
paths = (
{
closed = 1;
nodes = (
"137 744 OFFCURVE",
"28 677 OFFCURVE",
"28 535 CURVE SMOOTH",
"28 307 OFFCURVE",
"350 346 OFFCURVE",
"350 190 CURVE SMOOTH",
"350 120 OFFCURVE",
"289 84 OFFCURVE",
"226 84 CURVE SMOOTH",
"162 84 OFFCURVE",
"97 114 OFFCURVE",
"51 157 CURVE",
"4 46 LINE",
"75 4 OFFCURVE",
"157 -12 OFFCURVE",
"239 -12 CURVE SMOOTH",
"375 -12 OFFCURVE",
"496 68 OFFCURVE",
"496 215 CURVE SMOOTH",
"496 452 OFFCURVE",
"174 414 OFFCURVE",
"174 564 CURVE SMOOTH",
"174 621 OFFCURVE",
"225 648 OFFCURVE",
"277 648 CURVE SMOOTH",
"324 648 OFFCURVE",
"379 630 OFFCURVE",
"415 598 CURVE",
"484 684 LINE",
"442 716 OFFCURVE",
"349 744 OFFCURVE",
"290 744 CURVE SMOOTH"
);
}
);
};
layerId = "0AB1FC3A-51B3-4F8E-BD9F-BEF828131012";
paths = (
{
closed = 1;
nodes = (
"150 744 OFFCURVE",
"28 680 OFFCURVE",
"28 535 CURVE SMOOTH",
"28 411 OFFCURVE",
"122 366 OFFCURVE",
"209 326 CURVE SMOOTH",
"282 292 OFFCURVE",
"350 261 OFFCURVE",
"350 190 CURVE SMOOTH",
"350 120 OFFCURVE",
"289 84 OFFCURVE",
"226 84 CURVE SMOOTH",
"162 84 OFFCURVE",
"97 114 OFFCURVE",
"51 157 CURVE",
"4 46 LINE",
"75 4 OFFCURVE",
"157 -12 OFFCURVE",
"239 -12 CURVE SMOOTH",
"375 -12 OFFCURVE",
"496 68 OFFCURVE",
"496 215 CURVE SMOOTH",
"496 360 OFFCURVE",
"376 402 OFFCURVE",
"282 447 CURVE SMOOTH",
"223 476 OFFCURVE",
"174 506 OFFCURVE",
"174 564 CURVE SMOOTH",
"174 621 OFFCURVE",
"225 648 OFFCURVE",
"277 648 CURVE SMOOTH",
"324 648 OFFCURVE",
"379 630 OFFCURVE",
"415 598 CURVE",
"484 684 LINE",
"427 723 OFFCURVE",
"352 744 OFFCURVE",
"278 744 CURVE SMOOTH"
);
}
);
width = 516;
},
{
anchors = (
{
name = bottom;
position = "{267, 0}";
},
{
name = top;
position = "{262, 726}";
}
);
layerId = "49F6B500-2EFC-498D-B6E3-671BF3F335B4";
paths = (
{
closed = 1;
nodes = (
"176 735 OFFCURVE",
"65 669 OFFCURVE",
"65 555 CURVE SMOOTH",
"65 437 OFFCURVE",
"162 395 OFFCURVE",
"252 352 CURVE SMOOTH",
"329 315 OFFCURVE",
"403 279 OFFCURVE",
"403 182 CURVE SMOOTH",
"403 83 OFFCURVE",
"312 47 OFFCURVE",
"244 47 CURVE SMOOTH",
"189 47 OFFCURVE",
"120 71 OFFCURVE",
"77 107 CURVE",
"47 40 LINE",
"107 12 OFFCURVE",
"166 -12 OFFCURVE",
"233 -12 CURVE SMOOTH",
"361 -12 OFFCURVE",
"479 47 OFFCURVE",
"479 189 CURVE SMOOTH",
"479 326 OFFCURVE",
"371 376 OFFCURVE",
"277 420 CURVE SMOOTH",
"205 453 OFFCURVE",
"140 485 OFFCURVE",
"140 552 CURVE SMOOTH",
"140 639 OFFCURVE",
"199 677 OFFCURVE",
"280 677 CURVE SMOOTH",
"335 677 OFFCURVE",
"381 656 OFFCURVE",
"426 627 CURVE",
"460 684 LINE",
"403 715 OFFCURVE",
"343 735 OFFCURVE",
"281 735 CURVE SMOOTH"
);
}
);
width = 516;
}
);
leftKerningGroup = S;
note = S;
rightKerningGroup = S;
unicode = 0053;
},
{
glyphname = Germandbls;
layers = (
{
layerId = "42DF98DF-AAA4-4B66-9FB7-E08D57D544AF";
paths = (
{
closed = 1;
nodes = (
"86 662 LINE",
"86 0 LINE",
"179 0 LINE",
"179 659 LINE",
"541 659 LINE",
"541 728 LINE",
"72 728 LINE"
);
},
{
closed = 1;
nodes = (
"378 339 LINE",
"593 672 LINE",
"541 728 LINE",
"294 328 LINE"
);
},
{
closed = 1;
nodes = (
"294 328 LINE",
"315 329 OFFCURVE",
"334 330 OFFCURVE",
"352 330 CURVE SMOOTH",
"504 330 OFFCURVE",
"551 277 OFFCURVE",
"551 185 CURVE SMOOTH",
"551 103 OFFCURVE",
"480 60 OFFCURVE",
"403 60 CURVE SMOOTH",
"350 60 OFFCURVE",
"293 81 OFFCURVE",
"254 124 CURVE",
"218 42 LINE",
"278 5 OFFCURVE",
"345 -12 OFFCURVE",
"408 -12 CURVE SMOOTH",
"538 -12 OFFCURVE",
"651 63 OFFCURVE",
"651 198 CURVE SMOOTH",
"651 358 OFFCURVE",
"495 401 OFFCURVE",
"388 398 CURVE"
);
}
);
width = 646;
},
{
background = {
hints = (
{
horizontal = 1;
place = "{-12, 96}";
type = Stem;
},
{
horizontal = 1;
place = "{648, 96}";
type = Stem;
},
{
place = "{220, 146}";
type = Stem;
},
{
place = "{542, 146}";
type = Stem;
}
);
paths = (
{
closed = 1;
nodes = (
"408 -74 OFFCURVE"
);
}
);
};
layerId = "0AB1FC3A-51B3-4F8E-BD9F-BEF828131012";
paths = (
{
closed = 1;
nodes = (
"67 671 LINE",
"67 0 LINE",
"206 0 LINE",
"206 633 LINE",
"556 633 LINE",
"555 732 LINE",
"53 732 LINE"
);
},
{
closed = 1;
nodes = (
"433 339 LINE",
"631 652 LINE",
"555 732 LINE",
"309 328 LINE"
);
},
{
closed = 1;
nodes = (
"309 328 LINE",
"325 330 OFFCURVE",
"341 330 OFFCURVE",
"355 330 CURVE SMOOTH",
"503 330 OFFCURVE",
"542 255 OFFCURVE",
"542 190 CURVE SMOOTH",
"542 119 OFFCURVE",
"493 85 OFFCURVE",
"434 85 CURVE SMOOTH",
"383 85 OFFCURVE",
"325 110 OFFCURVE",
"283 157 CURVE",
"236 46 LINE",
"297 5 OFFCURVE",
"368 -14 OFFCURVE",
"435 -14 CURVE SMOOTH",
"569 -14 OFFCURVE",
"688 65 OFFCURVE",
"688 215 CURVE SMOOTH",
"688 360 OFFCURVE",
"541 424 OFFCURVE",
"424 426 CURVE"
);
}
);
width = 690;
},
{
layerId = "49F6B500-2EFC-498D-B6E3-671BF3F335B4";
paths = (
{
closed = 1;
nodes = (
"96 657 LINE",
"96 0 LINE",
"165 0 LINE",
"165 673 LINE",
"533 673 LINE",
"534 726 LINE",
"82 726 LINE"
);
},
{
closed = 1;
nodes = (
"349 339 LINE",
"573 683 LINE",
"534 726 LINE",
"286 328 LINE"
);
},
{
closed = 1;
nodes = (
"286 328 LINE",
"310 328 OFFCURVE",
"330 330 OFFCURVE",
"350 330 CURVE SMOOTH",
"505 330 OFFCURVE",
"556 289 OFFCURVE",
"556 182 CURVE SMOOTH",
"556 95 OFFCURVE",
"473 47 OFFCURVE",
"387 47 CURVE SMOOTH",
"333 47 OFFCURVE",
"276 66 OFFCURVE",
"239 107 CURVE",
"209 40 LINE",
"268 5 OFFCURVE",
"333 -11 OFFCURVE",
"394 -11 CURVE SMOOTH",
"522 -11 OFFCURVE",
"632 62 OFFCURVE",
"632 189 CURVE SMOOTH",
"632 357 OFFCURVE",
"471 389 OFFCURVE",
"369 383 CURVE"
);
}
);
width = 623;
}
);
unicode = 1E9E;
},
{
glyphname = Schwa;
layers = (
{
background = {
components = (
{
name = O;
transform = "{1, 0, 0, 1, -11, 0}";
}
);
};
layerId = "42DF98DF-AAA4-4B66-9FB7-E08D57D544AF";
paths = (
{
closed = 1;
nodes = (
"62 363 LINE",
"60 346 OFFCURVE",
"59 329 OFFCURVE",
"59 313 CURVE SMOOTH",
"59 136 OFFCURVE",
"158 -11 OFFCURVE",
"357 -11 CURVE SMOOTH",
"575 -11 OFFCURVE",
"680 163 OFFCURVE",
"680 363 CURVE SMOOTH",
"680 617 OFFCURVE",
"531 738 OFFCURVE",
"364 738 CURVE SMOOTH",
"272 738 OFFCURVE",
"175 701 OFFCURVE",
"95 628 CURVE",
"150 566 LINE",
"213 633 OFFCURVE",
"290 668 OFFCURVE",
"361 668 CURVE SMOOTH",
"480 668 OFFCURVE",
"583 572 OFFCURVE",
"583 363 CURVE SMOOTH",
"583 219 OFFCURVE",
"528 57 OFFCURVE",
"358 57 CURVE SMOOTH",
"215 57 OFFCURVE",
"155 173 OFFCURVE",
"155 295 CURVE SMOOTH",
"155 317 OFFCURVE",
"157 340 OFFCURVE",
"161 362 CURVE"
);
},
{
closed = 1;
nodes = (
"97 292 LINE",
"627 292 LINE",
"627 363 LINE",
"62 363 LINE"
);
}
);
width = 726;
},
{
background = {
paths = (
{
closed = 1;
nodes = (
"584 -11 OFFCURVE",
"715 150 OFFCURVE",
"715 365 CURVE SMOOTH",
"715 584 OFFCURVE",
"591 743 OFFCURVE",
"363 743 CURVE SMOOTH",
"139 743 OFFCURVE",
"16 581 OFFCURVE",
"16 367 CURVE SMOOTH",
"16 155 OFFCURVE",
"138 -11 OFFCURVE",
"362 -11 CURVE SMOOTH"
);
},
{
closed = 1;
nodes = (
"209 84 OFFCURVE",
"163 240 OFFCURVE",
"163 371 CURVE SMOOTH",
"163 500 OFFCURVE",
"210 648 OFFCURVE",
"364 648 CURVE SMOOTH",
"522 648 OFFCURVE",
"567 491 OFFCURVE",
"567 361 CURVE SMOOTH",
"567 231 OFFCURVE",
"520 84 OFFCURVE",
"366 84 CURVE SMOOTH"
);
}
);
};
layerId = "0AB1FC3A-51B3-4F8E-BD9F-BEF828131012";
paths = (
{
closed = 1;
nodes = (
"46 367 LINE",
"45 353 OFFCURVE",
"44 340 OFFCURVE",
"44 326 CURVE SMOOTH",
"44 134 OFFCURVE",
"152 -11 OFFCURVE",
"362 -11 CURVE SMOOTH",
"584 -11 OFFCURVE",
"715 150 OFFCURVE",
"715 365 CURVE SMOOTH",
"715 624 OFFCURVE",
"545 743 OFFCURVE",
"368 743 CURVE SMOOTH",
"265 743 OFFCURVE",
"159 702 OFFCURVE",
"83 625 CURVE",
"177 545 LINE",
"227 612 OFFCURVE",
"297 648 OFFCURVE",
"364 648 CURVE SMOOTH",
"469 648 OFFCURVE",
"567 559 OFFCURVE",
"567 361 CURVE SMOOTH",
"567 231 OFFCURVE",
"520 84 OFFCURVE",
"366 84 CURVE SMOOTH",
"232 84 OFFCURVE",
"189 194 OFFCURVE",
"189 308 CURVE SMOOTH",
"189 328 OFFCURVE",
"191 347 OFFCURVE",
"193 367 CURVE"
);
},
{
closed = 1;
nodes = (
"77 279 LINE",
"666 279 LINE",
"666 367 LINE",
"46 367 LINE"
);
}
);
width = 734;
},
{
layerId = "49F6B500-2EFC-498D-B6E3-671BF3F335B4";
paths = (
{
closed = 1;
nodes = (
"70 361 LINE",
"68 342 OFFCURVE",
"67 323 OFFCURVE",
"67 306 CURVE SMOOTH",
"67 137 OFFCURVE",
"161 -11 OFFCURVE",
"354 -11 CURVE SMOOTH",
"570 -11 OFFCURVE",
"662 170 OFFCURVE",
"662 362 CURVE SMOOTH",
"662 613 OFFCURVE",
"524 735 OFFCURVE",
"362 735 CURVE SMOOTH",
"276 735 OFFCURVE",
"183 700 OFFCURVE",
"101 630 CURVE",
"136 577 LINE",
"206 644 OFFCURVE",
"286 679 OFFCURVE",
"359 679 CURVE SMOOTH",
"486 679 OFFCURVE",
"591 579 OFFCURVE",
"591 364 CURVE SMOOTH",
"591 213 OFFCURVE",
"532 43 OFFCURVE",
"354 43 CURVE SMOOTH",
"206 43 OFFCURVE",
"137 162 OFFCURVE",
"137 288 CURVE SMOOTH",
"137 311 OFFCURVE",
"139 336 OFFCURVE",
"144 359 CURVE"
);
},
{
closed = 1;
nodes = (
"108 299 LINE",
"606 299 LINE",
"606 361 LINE",
"70 361 LINE"
);
}
);
width = 722;
}
);
unicode = 018F;
},
{
glyphname = T;
layers = (
{
anchors = (
{
name = bottom;
position = "{287, 0}";
},
{
name = center;
position = "{287, 366}";
},
{
name = top;
position = "{287, 728}";
}
);
layerId = "42DF98DF-AAA4-4B66-9FB7-E08D57D544AF";
paths = (
{
closed = 1;
nodes = (
"240 0 LINE",
"335 0 LINE",
"335 659 LINE",
"554 659 LINE",
"554 728 LINE",
"24 728 LINE",
"24 659 LINE",
"240 659 LINE"
);
}
);
width = 578;
},
{
anchors = (
{
name = bottom;
position = "{287, 0}";
},
{
name = center;
position = "{287, 366}";
},
{
name = top;
position = "{287, 732}";
}
);
layerId = "0AB1FC3A-51B3-4F8E-BD9F-BEF828131012";
paths = (
{
closed = 1;
nodes = (
"216 0 LINE",
"359 0 LINE",
"359 633 LINE",
"565 633 LINE",
"565 732 LINE",
"13 732 LINE",
"13 633 LINE",
"216 633 LINE"
);
}
);
width = 578;
},
{
anchors = (
{
name = bottom;
position = "{287, 0}";
},
{
name = center;
position = "{287, 366}";
},
{
name = top;
position = "{287, 726}";
}
);
layerId = "49F6B500-2EFC-498D-B6E3-671BF3F335B4";
paths = (
{
closed = 1;
nodes = (
"253 0 LINE",
"322 0 LINE",
"322 673 LINE",
"548 673 LINE",
"548 726 LINE",
"30 726 LINE",
"30 673 LINE",
"253 673 LINE"
);
}
);
width = 578;
}
);
leftKerningGroup = T;
note = T;
rightKerningGroup = T;
unicode = 0054;
},
{
glyphname = U;
layers = (
{
anchors = (
{
name = bottom;
position = "{352, 0}";
},
{
name = ogonek;
position = "{424, 0}";
},
{
name = top;
position = "{359, 728}";
},
{
name = topright;
position = "{466, 743}";
}
);
layerId = "42DF98DF-AAA4-4B66-9FB7-E08D57D544AF";
paths = (
{
closed = 1;
nodes = (
"71 728 LINE",
"86 662 LINE",
"86 244 LINE SMOOTH",
"86 76 OFFCURVE",
"184 -12 OFFCURVE",
"351 -12 CURVE SMOOTH",
"522 -12 OFFCURVE",
"620 89 OFFCURVE",
"620 258 CURVE SMOOTH",
"620 728 LINE",
"543 728 LINE",
"543 258 LINE SMOOTH",
"543 139 OFFCURVE",
"479 57 OFFCURVE",
"355 57 CURVE SMOOTH",
"235 57 OFFCURVE",
"181 130 OFFCURVE",
"181 244 CURVE SMOOTH",
"181 728 LINE"
);
}
);
width = 707;
},
{
anchors = (
{
name = bottom;
position = "{362, 0}";
},
{
name = ogonek;
position = "{415, 0}";
},
{
name = top;
position = "{366, 732}";
},
{
name = topright;
position = "{437, 748}";
}
);
layerId = "0AB1FC3A-51B3-4F8E-BD9F-BEF828131012";
paths = (
{
closed = 1;
nodes = (
"52 732 LINE",
"68 672 LINE",
"68 278 LINE SMOOTH",
"68 92 OFFCURVE",
"170 -11 OFFCURVE",
"356 -11 CURVE SMOOTH",
"519 -11 OFFCURVE",
"644 68 OFFCURVE",
"644 278 CURVE SMOOTH",
"644 732 LINE",
"531 732 LINE",
"531 245 LINE SMOOTH",
"531 145 OFFCURVE",
"469 84 OFFCURVE",
"370 84 CURVE SMOOTH",
"273 84 OFFCURVE",
"209 147 OFFCURVE",
"209 245 CURVE SMOOTH",
"209 732 LINE"
);
}
);
width = 707;
},
{
anchors = (
{
name = bottom;
position = "{347, 0}";
},
{
name = ogonek;
position = "{429, 0}";
},
{
name = top;
position = "{355, 726}";
},
{
name = topright;
position = "{481, 740}";
}
);
layerId = "49F6B500-2EFC-498D-B6E3-671BF3F335B4";
paths = (
{
closed = 1;
nodes = (
"81 726 LINE",
"95 657 LINE",
"95 226 LINE SMOOTH",
"95 68 OFFCURVE",
"191 -13 OFFCURVE",
"348 -13 CURVE SMOOTH",
"524 -13 OFFCURVE",
"607 100 OFFCURVE",
"607 247 CURVE SMOOTH",
"607 726 LINE",
"549 726 LINE",
"549 265 LINE SMOOTH",
"549 136 OFFCURVE",
"484 43 OFFCURVE",
"347 43 CURVE SMOOTH",
"215 43 OFFCURVE",
"166 121 OFFCURVE",
"166 243 CURVE SMOOTH",
"166 726 LINE"
);
}
);
width = 707;
}
);
leftKerningGroup = U;
note = U;
rightKerningGroup = U;
unicode = 0055;
},
{
glyphname = V;
layers = (
{
background = {
paths = (
{
closed = 1;
nodes = (
"21 728 LINE",
"272 -3 LINE",
"330 -3 LINE",
"582 729 LINE",
"502 729 LINE",
"336 245 LINE SMOOTH",
"325 214 OFFCURVE",
"318 188 OFFCURVE",
"308 153 CURVE",
"297 190 OFFCURVE",
"289 220 OFFCURVE",
"278 253 CURVE SMOOTH",
"120 728 LINE"
);
}
);
};
layerId = "42DF98DF-AAA4-4B66-9FB7-E08D57D544AF";
paths = (
{
closed = 1;
nodes = (
"21 728 LINE",
"272 -3 LINE",
"330 -3 LINE",
"582 729 LINE",
"502 729 LINE",
"336 245 LINE SMOOTH",
"325 214 OFFCURVE",
"318 188 OFFCURVE",
"308 153 CURVE",
"297 190 OFFCURVE",
"289 220 OFFCURVE",
"278 253 CURVE SMOOTH",
"120 728 LINE"
);
}
);
width = 603;
},
{
layerId = "0AB1FC3A-51B3-4F8E-BD9F-BEF828131012";
paths = (
{
closed = 1;
nodes = (
"0 731 LINE",
"252 -2 LINE",
"350 -2 LINE",
"603 731 LINE",
"492 731 LINE",
"357 336 LINE SMOOTH",
"341 291 OFFCURVE",
"328 246 OFFCURVE",
"318 199 CURVE",
"310 237 OFFCURVE",
"301 276 OFFCURVE",
"289 313 CURVE SMOOTH",
"146 731 LINE"
);
}
);
width = 603;
},
{
layerId = "49F6B500-2EFC-498D-B6E3-671BF3F335B4";
paths = (
{
closed = 1;
nodes = (
"32 726 LINE",
"283 -4 LINE",
"319 -4 LINE",
"571 728 LINE",
"507 728 LINE",
"325 197 LINE SMOOTH",
"317 173 OFFCURVE",
"313 157 OFFCURVE",
"303 129 CURVE",
"290 165 OFFCURVE",
"283 191 OFFCURVE",
"272 221 CURVE SMOOTH",
"106 726 LINE"
);
}
);
width = 603;
}
);
leftKerningGroup = V;
note = V;
rightKerningGroup = V;
unicode = 0056;
},
{
glyphname = W;
layers = (
{
anchors = (
{
name = top;
position = "{457, 728}";
}
);
layerId = "42DF98DF-AAA4-4B66-9FB7-E08D57D544AF";
paths = (
{
closed = 1;
nodes = (
"21 728 LINE",
"223 -5 LINE",
"300 -5 LINE",
"425 457 LINE SMOOTH",
"433 485 OFFCURVE",
"440 513 OFFCURVE",
"448 551 CURVE",
"455 514 OFFCURVE",
"463 487 OFFCURVE",
"470 460 CURVE SMOOTH",
"597 -5 LINE",
"674 -5 LINE",
"873 728 LINE",
"795 728 LINE",
"670 266 LINE SMOOTH",
"661 234 OFFCURVE",
"653 202 OFFCURVE",
"644 160 CURVE",
"635 204 OFFCURVE",
"625 239 OFFCURVE",
"616 273 CURVE SMOOTH",
"494 728 LINE",
"420 728 LINE",
"296 268 LINE SMOOTH",
"287 235 OFFCURVE",
"279 203 OFFCURVE",
"270 160 CURVE",
"260 206 OFFCURVE",
"251 241 OFFCURVE",
"241 277 CURVE SMOOTH",
"119 728 LINE"
);
}
);
width = 894;
},
{
anchors = (
{
name = top;
position = "{457, 732}";
}
);
layerId = "0AB1FC3A-51B3-4F8E-BD9F-BEF828131012";
paths = (
{
closed = 1;
nodes = (
"-14 732 LINE",
"187 -2 LINE",
"315 -2 LINE",
"414 361 LINE SMOOTH",
"429 415 OFFCURVE",
"440 470 OFFCURVE",
"448 526 CURVE",
"452 488 OFFCURVE",
"459 451 OFFCURVE",
"468 414 CURVE SMOOTH",
"581 -2 LINE",
"705 -2 LINE",
"908 732 LINE",
"797 732 LINE",
"691 346 LINE SMOOTH",
"676 292 OFFCURVE",
"665 238 OFFCURVE",
"657 182 CURVE",
"652 224 OFFCURVE",
"647 267 OFFCURVE",
"636 307 CURVE SMOOTH",
"519 732 LINE",
"403 732 LINE",
"298 346 LINE SMOOTH",
"284 292 OFFCURVE",
"271 238 OFFCURVE",
"263 182 CURVE",
"257 225 OFFCURVE",
"251 268 OFFCURVE",
"240 309 CURVE SMOOTH",
"124 732 LINE"
);
}
);
width = 894;
},
{
anchors = (
{
name = top;
position = "{457, 726}";
}
);
layerId = "49F6B500-2EFC-498D-B6E3-671BF3F335B4";
paths = (
{
closed = 1;
nodes = (
"39 726 LINE",
"242 -7 LINE",
"292 -7 LINE",
"431 508 LINE SMOOTH",
"435 522 OFFCURVE",
"440 536 OFFCURVE",
"448 564 CURVE",
"457 528 OFFCURVE",
"465 506 OFFCURVE",
"471 484 CURVE SMOOTH",
"605 -7 LINE",
"658 -7 LINE",
"855 726 LINE",
"794 726 LINE",
"659 224 LINE SMOOTH",
"653 203 OFFCURVE",
"647 183 OFFCURVE",
"637 148 CURVE",
"626 193 OFFCURVE",
"613 224 OFFCURVE",
"605 255 CURVE SMOOTH",
"481 726 LINE",
"429 726 LINE",
"295 227 LINE SMOOTH",
"289 205 OFFCURVE",
"283 185 OFFCURVE",
"274 148 CURVE",
"262 196 OFFCURVE",
"251 227 OFFCURVE",
"242 260 CURVE SMOOTH",
"116 726 LINE"
);
}
);
width = 894;
}
);
leftKerningGroup = V;
note = W;
rightKerningGroup = V;
unicode = 0057;
},
{
glyphname = X;
layers = (
{
background = {
paths = (
{
closed = 1;
nodes = (
"31 728 LINE",
"243 372 LINE",
"12 0 LINE",
"98 0 LINE",
"285 300 LINE",
"464 0 LINE",
"573 0 LINE",
"339 391 LINE",
"551 728 LINE",
"464 728 LINE",
"298 461 LINE",
"138 728 LINE"
);
}
);
};
layerId = "42DF98DF-AAA4-4B66-9FB7-E08D57D544AF";
paths = (
{
closed = 1;
nodes = (
"31 728 LINE",
"464 0 LINE",
"573 0 LINE",
"138 728 LINE"
);
},
{
closed = 1;
nodes = (
"12 0 LINE",
"111 0 LINE",
"556 728 LINE",
"456 728 LINE"
);
}
);
width = 585;
},
{
background = {
paths = (
{
closed = 1;
nodes = (
"2 732 LINE",
"217 371 LINE",
"-12 0 LINE",
"117 0 LINE",
"280 265 LINE",
"437 0 LINE",
"597 0 LINE",
"361 394 LINE",
"569 732 LINE",
"440 732 LINE",
"298 503 LINE",
"161 732 LINE"
);
}
);
};
layerId = "0AB1FC3A-51B3-4F8E-BD9F-BEF828131012";
paths = (
{
closed = 1;
nodes = (
"2 732 LINE",
"437 0 LINE",
"597 0 LINE",
"161 732 LINE"
);
},
{
closed = 1;
nodes = (
"-12 0 LINE",
"127 0 LINE",
"569 732 LINE",
"430 732 LINE"
);
}
);
width = 585;
},
{
layerId = "49F6B500-2EFC-498D-B6E3-671BF3F335B4";
paths = (
{
closed = 1;
nodes = (
"46 726 LINE",
"478 0 LINE",
"560 0 LINE",
"126 726 LINE"
);
},
{
closed = 1;
nodes = (
"25 0 LINE",
"103 0 LINE",
"549 726 LINE",
"470 726 LINE"
);
}
);
width = 585;
}
);
leftKerningGroup = X;
note = X;
rightKerningGroup = X;
unicode = 0058;
},
{
glyphname = Y;
layers = (
{
anchors = (
{
name = bottom;
position = "{297, 0}";
},
{
name = top;
position = "{299, 728}";
}
);
layerId = "42DF98DF-AAA4-4B66-9FB7-E08D57D544AF";
paths = (
{
closed = 1;
nodes = (
"32 728 LINE",
"249 360 LINE",
"249 0 LINE",
"344 0 LINE",
"344 360 LINE",
"553 728 LINE",
"466 728 LINE",
"309 445 LINE",
"140 728 LINE"
);
}
);
width = 584;
},
{
anchors = (
{
name = bottom;
position = "{298, 0}";
},
{
name = top;
position = "{300, 732}";
}
);
layerId = "0AB1FC3A-51B3-4F8E-BD9F-BEF828131012";
paths = (
{
closed = 1;
nodes = (
"10 732 LINE",
"224 333 LINE",
"224 0 LINE",
"357 0 LINE",
"357 333 LINE",
"574 732 LINE",
"454 732 LINE",
"304 460 LINE",
"158 732 LINE"
);
}
);
width = 584;
},
{
anchors = (
{
name = bottom;
position = "{296, 0}";
},
{
name = top;
position = "{298, 726}";
}
);
layerId = "49F6B500-2EFC-498D-B6E3-671BF3F335B4";
paths = (
{
closed = 1;
nodes = (
"44 726 LINE",
"262 374 LINE",
"262 0 LINE",
"337 0 LINE",
"337 374 LINE",
"542 726 LINE",
"472 726 LINE",
"312 437 LINE",
"131 726 LINE"
);
}
);
width = 584;
}
);
leftKerningGroup = Y;
note = Y;
rightKerningGroup = Y;
unicode = 0059;
},
{
glyphname = Z;
layers = (
{
anchors = (
{
name = top;
position = "{286, 728}";
}
);
layerId = "42DF98DF-AAA4-4B66-9FB7-E08D57D544AF";
paths = (
{
closed = 1;
nodes = (
"57 659 LINE",
"413 659 LINE",
"35 67 LINE",
"35 0 LINE",
"529 0 LINE",
"537 69 LINE",
"146 69 LINE",
"524 661 LINE",
"524 728 LINE",
"57 728 LINE"
);
}
);
width = 571;
},
{
anchors = (
{
name = top;
position = "{286, 732}";
}
);
layerId = "0AB1FC3A-51B3-4F8E-BD9F-BEF828131012";
paths = (
{
closed = 1;
nodes = (
"37 634 LINE",
"364 634 LINE",
"13 82 LINE",
"13 0 LINE",
"546 0 LINE",
"558 99 LINE",
"182 99 LINE",
"540 659 LINE",
"540 732 LINE",
"37 732 LINE"
);
}
);
width = 571;
},
{
anchors = (
{
name = top;
position = "{286, 726}";
}
);
layerId = "49F6B500-2EFC-498D-B6E3-671BF3F335B4";
paths = (
{
closed = 1;
nodes = (
"68 672 LINE",
"439 672 LINE",
"47 59 LINE",
"47 0 LINE",
"520 0 LINE",
"526 53 LINE",
"127 53 LINE",
"516 662 LINE",
"516 726 LINE",
"68 726 LINE"
);
}
);
width = 571;
}
);
note = Z;
rightKerningGroup = Z;
unicode = 005A;
},
{
glyphname = a;
layers = (
{
anchors = (
{
name = bottom;
position = "{232, 0}";
},
{
name = ogonek;
position = "{421, 0}";
},
{
name = top;
position = "{242, 497}";
}
);
background = {
paths = (
{
closed = 1;
nodes = (
"183 509 OFFCURVE",
"117 488 OFFCURVE",
"62 444 CURVE",
"103 385 LINE",
"136 423 OFFCURVE",
"197 444 OFFCURVE",
"246 444 CURVE SMOOTH",
"311 444 OFFCURVE",
"329 400 OFFCURVE",
"329 344 CURVE SMOOTH",
"329 291 LINE",
"213 290 OFFCURVE",
"44 271 OFFCURVE",
"44 120 CURVE SMOOTH",
"44 38 OFFCURVE",
"102 -11 OFFCURVE",
"181 -11 CURVE SMOOTH",
"238 -11 OFFCURVE",
"292 18 OFFCURVE",
"331 59 CURVE",
"337 21 OFFCURVE",
"361 -9 OFFCURVE",
"402 -9 CURVE SMOOTH",
"434 -9 OFFCURVE",
"469 10 OFFCURVE",
"498 21 CURVE",
"481 73 LINE",
"476 71 OFFCURVE",
"436 59 OFFCURVE",
"434 59 CURVE SMOOTH",
"415 59 OFFCURVE",
"412 73 OFFCURVE",
"412 97 CURVE SMOOTH",
"412 345 LINE SMOOTH",
"412 449 OFFCURVE",
"358 509 OFFCURVE",
"253 509 CURVE SMOOTH"
);
},
{
closed = 1;
nodes = (
"329 194 LINE SMOOTH",
"329 128 OFFCURVE",
"279 59 OFFCURVE",
"208 59 CURVE SMOOTH",
"162 59 OFFCURVE",
"129 79 OFFCURVE",
"129 123 CURVE SMOOTH",
"129 222 OFFCURVE",
"257 226 OFFCURVE",
"329 226 CURVE"
);
}
);
};
layerId = "42DF98DF-AAA4-4B66-9FB7-E08D57D544AF";
paths = (
{
closed = 1;
nodes = (
"183 509 OFFCURVE",
"117 488 OFFCURVE",
"62 444 CURVE",
"103 385 LINE",
"150 423 OFFCURVE",
"195 444 OFFCURVE",
"246 444 CURVE SMOOTH",
"311 444 OFFCURVE",
"329 400 OFFCURVE",
"329 344 CURVE SMOOTH",
"329 291 LINE",
"213 290 OFFCURVE",
"44 271 OFFCURVE",
"44 120 CURVE SMOOTH",
"44 38 OFFCURVE",
"102 -11 OFFCURVE",
"181 -11 CURVE SMOOTH",
"238 -11 OFFCURVE",
"292 18 OFFCURVE",
"331 59 CURVE",
"338 7 OFFCURVE",
"369 -9 OFFCURVE",
"404 -9 CURVE SMOOTH",
"439 -9 OFFCURVE",
"474 3 OFFCURVE",
"495 15 CURVE",
"477 69 LINE",
"465 64 OFFCURVE",
"451 60 OFFCURVE",
"439 60 CURVE SMOOTH",
"424 60 OFFCURVE",
"412 68 OFFCURVE",
"412 96 CURVE SMOOTH",
"412 345 LINE SMOOTH",
"412 449 OFFCURVE",
"358 509 OFFCURVE",
"253 509 CURVE SMOOTH"
);
},
{
closed = 1;
nodes = (
"329 194 LINE SMOOTH",
"329 128 OFFCURVE",
"279 59 OFFCURVE",
"208 59 CURVE SMOOTH",
"162 59 OFFCURVE",
"129 79 OFFCURVE",
"129 123 CURVE SMOOTH",
"129 222 OFFCURVE",
"257 226 OFFCURVE",
"329 226 CURVE"
);
}
);
width = 494;
},
{
anchors = (
{
name = bottom;
position = "{236, 0}";
},
{
name = ogonek;
position = "{418, 0}";
},
{
name = top;
position = "{248, 497}";
}
);
background = {
paths = (
{
closed = 1;
nodes = (
"182 509 OFFCURVE",
"112 488 OFFCURVE",
"52 447 CURVE",
"101 368 LINE",
"136 395 OFFCURVE",
"183 426 OFFCURVE",
"229 426 CURVE SMOOTH",
"279 426 OFFCURVE",
"301 409 OFFCURVE",
"301 356 CURVE SMOOTH",
"301 291 LINE",
"186 291 OFFCURVE",
"30 262 OFFCURVE",
"30 117 CURVE SMOOTH",
"30 35 OFFCURVE",
"93 -11 OFFCURVE",
"171 -11 CURVE SMOOTH",
"233 -11 OFFCURVE",
"284 7 OFFCURVE",
"321 59 CURVE",
"330 20 OFFCURVE",
"359 -8 OFFCURVE",
"400 -8 CURVE SMOOTH",
"438 -8 OFFCURVE",
"480 9 OFFCURVE",
"516 19 CURVE",
"495 92 LINE",
"481 88 OFFCURVE",
"460 80 OFFCURVE",
"445 80 CURVE SMOOTH",
"421 80 OFFCURVE",
"421 112 OFFCURVE",
"421 130 CURVE SMOOTH",
"421 347 LINE SMOOTH",
"421 455 OFFCURVE",
"360 509 OFFCURVE",
"254 509 CURVE SMOOTH"
);
},
{
closed = 1;
nodes = (
"301 186 LINE SMOOTH",
"301 137 OFFCURVE",
"268 81 OFFCURVE",
"213 81 CURVE SMOOTH",
"185 81 OFFCURVE",
"155 98 OFFCURVE",
"155 129 CURVE SMOOTH",
"155 204 OFFCURVE",
"245 209 OFFCURVE",
"301 209 CURVE"
);
}
);
};
layerId = "0AB1FC3A-51B3-4F8E-BD9F-BEF828131012";
paths = (
{
closed = 1;
nodes = (
"182 509 OFFCURVE",
"112 488 OFFCURVE",
"52 447 CURVE",
"101 368 LINE",
"136 395 OFFCURVE",
"183 426 OFFCURVE",
"229 426 CURVE SMOOTH",
"279 426 OFFCURVE",
"301 409 OFFCURVE",
"301 356 CURVE SMOOTH",
"301 291 LINE",
"186 291 OFFCURVE",
"30 262 OFFCURVE",
"30 117 CURVE SMOOTH",
"30 35 OFFCURVE",
"93 -11 OFFCURVE",
"171 -11 CURVE SMOOTH",
"233 -11 OFFCURVE",
"284 7 OFFCURVE",
"321 59 CURVE",
"333 10 OFFCURVE",
"362 -8 OFFCURVE",
"410 -8 CURVE SMOOTH",
"441 -8 OFFCURVE",
"481 3 OFFCURVE",
"511 19 CURVE",
"492 87 LINE",
"479 82 OFFCURVE",
"466 79 OFFCURVE",
"453 79 CURVE SMOOTH",
"434 79 OFFCURVE",
"421 89 OFFCURVE",
"421 128 CURVE SMOOTH",
"421 347 LINE SMOOTH",
"421 455 OFFCURVE",
"360 509 OFFCURVE",
"254 509 CURVE SMOOTH"
);
},
{
closed = 1;
nodes = (
"301 186 LINE SMOOTH",
"301 137 OFFCURVE",
"268 81 OFFCURVE",
"213 81 CURVE SMOOTH",
"185 81 OFFCURVE",
"155 98 OFFCURVE",
"155 129 CURVE SMOOTH",
"155 204 OFFCURVE",
"245 209 OFFCURVE",
"301 209 CURVE"
);
}
);
width = 494;
},
{
anchors = (
{
name = bottom;
position = "{230, 0}";
},
{
name = ogonek;
position = "{423, 0}";
},
{
name = top;
position = "{239, 497}";
}
);
layerId = "49F6B500-2EFC-498D-B6E3-671BF3F335B4";
paths = (
{
closed = 1;
nodes = (
"184 509 OFFCURVE",
"120 488 OFFCURVE",
"67 442 CURVE",
"104 394 LINE",
"157 438 OFFCURVE",
"201 453 OFFCURVE",
"255 453 CURVE SMOOTH",
"328 453 OFFCURVE",
"344 395 OFFCURVE",
"344 338 CURVE SMOOTH",
"344 291 LINE",
"227 289 OFFCURVE",
"51 276 OFFCURVE",
"51 122 CURVE SMOOTH",
"51 40 OFFCURVE",
"107 -11 OFFCURVE",
"186 -11 CURVE SMOOTH",
"241 -11 OFFCURVE",
"296 24 OFFCURVE",
"336 59 CURVE",
"341 5 OFFCURVE",
"373 -10 OFFCURVE",
"401 -10 CURVE SMOOTH",
"438 -10 OFFCURVE",
"470 3 OFFCURVE",
"487 13 CURVE",
"469 60 LINE",
"458 55 OFFCURVE",
"443 50 OFFCURVE",
"432 50 CURVE SMOOTH",
"419 50 OFFCURVE",
"407 57 OFFCURVE",
"407 79 CURVE SMOOTH",
"407 344 LINE SMOOTH",
"407 446 OFFCURVE",
"357 509 OFFCURVE",
"252 509 CURVE SMOOTH"
);
},
{
closed = 1;
nodes = (
"344 198 LINE SMOOTH",
"344 123 OFFCURVE",
"285 47 OFFCURVE",
"205 47 CURVE SMOOTH",
"150 47 OFFCURVE",
"115 69 OFFCURVE",
"115 120 CURVE SMOOTH",
"115 231 OFFCURVE",
"263 235 OFFCURVE",
"344 235 CURVE"
);
}
);
width = 494;
}
);
leftKerningGroup = a;
note = a;
rightKerningGroup = a;
unicode = 0061;
},
{
glyphname = aacute;
layers = (
{
background = {
paths = (
{
closed = 1;
nodes = (
"205 577 LINE",
"283 577 LINE",
"423 729 LINE",
"301 729 LINE"
);
},
{
closed = 1;
nodes = (
"481 73 LINE",
"476 71 OFFCURVE",
"436 59 OFFCURVE",
"434 59 CURVE SMOOTH",
"415 59 OFFCURVE",
"412 73 OFFCURVE",
"412 97 CURVE SMOOTH",
"412 345 LINE SMOOTH",
"412 449 OFFCURVE",
"358 509 OFFCURVE",
"253 509 CURVE SMOOTH",
"183 509 OFFCURVE",
"117 488 OFFCURVE",
"62 444 CURVE",
"103 385 LINE",
"136 423 OFFCURVE",
"197 444 OFFCURVE",
"246 444 CURVE SMOOTH",
"311 444 OFFCURVE",
"329 400 OFFCURVE",
"329 344 CURVE SMOOTH",
"329 291 LINE",
"213 290 OFFCURVE",
"44 271 OFFCURVE",
"44 120 CURVE SMOOTH",
"44 38 OFFCURVE",
"102 -11 OFFCURVE",
"181 -11 CURVE SMOOTH",
"238 -11 OFFCURVE",
"292 18 OFFCURVE",
"331 59 CURVE",
"337 21 OFFCURVE",
"361 -9 OFFCURVE",
"402 -9 CURVE SMOOTH",
"434 -9 OFFCURVE",
"469 10 OFFCURVE",
"498 21 CURVE"
);
},
{
closed = 1;
nodes = (
"329 194 LINE SMOOTH",
"329 128 OFFCURVE",
"279 59 OFFCURVE",
"208 59 CURVE SMOOTH",
"162 59 OFFCURVE",
"129 79 OFFCURVE",
"129 123 CURVE SMOOTH",
"129 222 OFFCURVE",
"257 226 OFFCURVE",
"329 226 CURVE"
);
}
);
};
components = (
{
name = a;
},
{
name = acutecomb;
transform = "{1, 0, 0, 1, 150, 0}";
}
);
layerId = "42DF98DF-AAA4-4B66-9FB7-E08D57D544AF";
width = 494;
},
{
components = (
{
name = a;
},
{
name = acutecomb;
transform = "{1, 0, 0, 1, 148, 0}";
}
);
layerId = "0AB1FC3A-51B3-4F8E-BD9F-BEF828131012";
width = 494;
},
{
components = (
{
name = a;
},
{
name = acutecomb;
transform = "{1, 0, 0, 1, 151, 0}";
}
);
layerId = "49F6B500-2EFC-498D-B6E3-671BF3F335B4";
width = 494;
}
);
leftKerningGroup = a;
note = aacute;
rightKerningGroup = a;
unicode = 00E1;
},
{
glyphname = ae;
layers = (
{
anchors = (
{
name = top;
position = "{398, 497}";
}
);
layerId = "42DF98DF-AAA4-4B66-9FB7-E08D57D544AF";
paths = (
{
closed = 1;
nodes = (
"44 38 OFFCURVE",
"102 -11 OFFCURVE",
"181 -11 CURVE SMOOTH",
"252 -11 OFFCURVE",
"318 18 OFFCURVE",
"365 97 CURVE",
"402 32 OFFCURVE",
"466 -13 OFFCURVE",
"560 -13 CURVE SMOOTH",
"620 -13 OFFCURVE",
"681 5 OFFCURVE",
"728 43 CURVE",
"691 103 LINE",
"658 75 OFFCURVE",
"605 57 OFFCURVE",
"562 57 CURVE SMOOTH",
"479 57 OFFCURVE",
"417 136 OFFCURVE",
"417 256 CURVE",
"733 256 LINE",
"736 277 OFFCURVE",
"738 296 OFFCURVE",
"738 315 CURVE SMOOTH",
"738 431 OFFCURVE",
"675 509 OFFCURVE",
"555 509 CURVE SMOOTH",
"487 509 OFFCURVE",
"435 482 OFFCURVE",
"398 441 CURVE",
"372 484 OFFCURVE",
"319 509 OFFCURVE",
"253 509 CURVE SMOOTH",
"183 509 OFFCURVE",
"117 488 OFFCURVE",
"62 444 CURVE",
"103 385 LINE",
"136 423 OFFCURVE",
"197 444 OFFCURVE",
"246 444 CURVE SMOOTH",
"311 444 OFFCURVE",
"329 400 OFFCURVE",
"329 344 CURVE SMOOTH",
"329 291 LINE",
"213 290 OFFCURVE",
"44 271 OFFCURVE",
"44 120 CURVE SMOOTH"
);
},
{
closed = 1;
nodes = (
"129 222 OFFCURVE",
"257 226 OFFCURVE",
"329 226 CURVE",
"329 194 LINE SMOOTH",
"329 128 OFFCURVE",
"279 59 OFFCURVE",
"208 59 CURVE SMOOTH",
"162 59 OFFCURVE",
"129 79 OFFCURVE",
"129 123 CURVE SMOOTH"
);
},
{
closed = 1;
nodes = (
"434 380 OFFCURVE",
"479 446 OFFCURVE",
"547 446 CURVE SMOOTH",
"613 446 OFFCURVE",
"653 401 OFFCURVE",
"651 318 CURVE",
"423 318 LINE"
);
}
);
width = 779;
},
{
anchors = (
{
name = top;
position = "{390, 497}";
}
);
layerId = "0AB1FC3A-51B3-4F8E-BD9F-BEF828131012";
paths = (
{
closed = 1;
nodes = (
"30 35 OFFCURVE",
"93 -11 OFFCURVE",
"171 -11 CURVE SMOOTH",
"237 -11 OFFCURVE",
"302 6 OFFCURVE",
"346 84 CURVE",
"388 24 OFFCURVE",
"458 -11 OFFCURVE",
"550 -11 CURVE SMOOTH",
"605 -11 OFFCURVE",
"683 5 OFFCURVE",
"728 42 CURVE",
"677 122 LINE",
"647 92 OFFCURVE",
"598 69 OFFCURVE",
"556 69 CURVE SMOOTH",
"468 69 OFFCURVE",
"427 158 OFFCURVE",
"427 234 CURVE",
"731 234 LINE",
"737 256 OFFCURVE",
"740 280 OFFCURVE",
"740 302 CURVE SMOOTH",
"740 409 OFFCURVE",
"677 511 OFFCURVE",
"539 511 CURVE SMOOTH",
"481 511 OFFCURVE",
"432 492 OFFCURVE",
"394 461 CURVE",
"362 492 OFFCURVE",
"310 509 OFFCURVE",
"254 509 CURVE SMOOTH",
"182 509 OFFCURVE",
"112 488 OFFCURVE",
"52 447 CURVE",
"101 368 LINE",
"136 395 OFFCURVE",
"183 426 OFFCURVE",
"229 426 CURVE SMOOTH",
"279 426 OFFCURVE",
"301 409 OFFCURVE",
"301 356 CURVE SMOOTH",
"301 291 LINE",
"186 291 OFFCURVE",
"30 262 OFFCURVE",
"30 117 CURVE SMOOTH"
);
},
{
closed = 1;
nodes = (
"155 204 OFFCURVE",
"245 209 OFFCURVE",
"301 209 CURVE",
"301 186 LINE SMOOTH",
"301 137 OFFCURVE",
"268 81 OFFCURVE",
"213 81 CURVE SMOOTH",
"185 81 OFFCURVE",
"155 98 OFFCURVE",
"155 129 CURVE SMOOTH"
);
},
{
closed = 1;
nodes = (
"433 365 OFFCURVE",
"468 429 OFFCURVE",
"534 429 CURVE SMOOTH",
"594 429 OFFCURVE",
"621 376 OFFCURVE",
"615 313 CURVE",
"430 313 LINE"
);
}
);
width = 768;
},
{
anchors = (
{
name = top;
position = "{402, 497}";
}
);
layerId = "49F6B500-2EFC-498D-B6E3-671BF3F335B4";
paths = (
{
closed = 1;
nodes = (
"51 40 OFFCURVE",
"107 -11 OFFCURVE",
"186 -11 CURVE SMOOTH",
"260 -11 OFFCURVE",
"326 24 OFFCURVE",
"375 104 CURVE",
"409 36 OFFCURVE",
"470 -14 OFFCURVE",
"565 -14 CURVE SMOOTH",
"628 -14 OFFCURVE",
"680 5 OFFCURVE",
"728 44 CURVE",
"698 93 LINE",
"664 66 OFFCURVE",
"609 51 OFFCURVE",
"565 51 CURVE SMOOTH",
"485 51 OFFCURVE",
"412 124 OFFCURVE",
"412 268 CURVE",
"734 268 LINE",
"735 288 OFFCURVE",
"737 304 OFFCURVE",
"737 322 CURVE SMOOTH",
"737 443 OFFCURVE",
"674 508 OFFCURVE",
"563 508 CURVE SMOOTH",
"490 508 OFFCURVE",
"437 477 OFFCURVE",
"400 430 CURVE",
"377 480 OFFCURVE",
"324 509 OFFCURVE",
"252 509 CURVE SMOOTH",
"184 509 OFFCURVE",
"120 488 OFFCURVE",
"67 442 CURVE",
"104 394 LINE",
"136 438 OFFCURVE",
"204 453 OFFCURVE",
"255 453 CURVE SMOOTH",
"328 453 OFFCURVE",
"344 395 OFFCURVE",
"344 338 CURVE SMOOTH",
"344 291 LINE",
"227 289 OFFCURVE",
"51 276 OFFCURVE",
"51 122 CURVE SMOOTH"
);
},
{
closed = 1;
nodes = (
"115 231 OFFCURVE",
"263 235 OFFCURVE",
"344 235 CURVE",
"344 198 LINE SMOOTH",
"344 123 OFFCURVE",
"285 47 OFFCURVE",
"205 47 CURVE SMOOTH",
"150 47 OFFCURVE",
"115 69 OFFCURVE",
"115 120 CURVE SMOOTH"
);
},
{
closed = 1;
nodes = (
"435 388 OFFCURVE",
"485 455 OFFCURVE",
"554 455 CURVE SMOOTH",
"623 455 OFFCURVE",
"670 414 OFFCURVE",
"670 321 CURVE",
"419 321 LINE"
);
}
);
width = 785;
}
);
leftKerningGroup = a;
leftMetricsKey = a;
note = ae;
rightMetricsKey = e;
unicode = 00E6;
},
{
glyphname = b;
layers = (
{
layerId = "42DF98DF-AAA4-4B66-9FB7-E08D57D544AF";
paths = (
{
closed = 1;
nodes = (
"248 507 OFFCURVE",
"205 489 OFFCURVE",
"163 451 CURVE",
"164 463 OFFCURVE",
"165 474 OFFCURVE",
"165 486 CURVE SMOOTH",
"165 762 LINE",
"68 762 LINE",
"82 704 LINE",
"82 68 LINE SMOOTH",
"82 45 OFFCURVE",
"80 22 OFFCURVE",
"79 -1 CURVE",
"129 -1 LINE",
"147 51 LINE",
"183 8 OFFCURVE",
"237 -13 OFFCURVE",
"293 -13 CURVE SMOOTH",
"442 -13 OFFCURVE",
"512 116 OFFCURVE",
"512 251 CURVE SMOOTH",
"512 375 OFFCURVE",
"444 507 OFFCURVE",
"305 507 CURVE SMOOTH"
);
},
{
closed = 1;
nodes = (
"386 436 OFFCURVE",
"423 335 OFFCURVE",
"423 248 CURVE SMOOTH",
"423 168 OFFCURVE",
"390 49 OFFCURVE",
"290 49 CURVE SMOOTH",
"198 49 OFFCURVE",
"165 115 OFFCURVE",
"165 199 CURVE SMOOTH",
"165 381 LINE",
"195 413 OFFCURVE",
"240 436 OFFCURVE",
"284 436 CURVE SMOOTH"
);
}
);
width = 558;
},
{
layerId = "0AB1FC3A-51B3-4F8E-BD9F-BEF828131012";
paths = (
{
closed = 1;
nodes = (
"272 508 OFFCURVE",
"228 493 OFFCURVE",
"186 457 CURVE",
"186 468 OFFCURVE",
"188 486 OFFCURVE",
"188 526 CURVE SMOOTH",
"188 768 LINE",
"54 768 LINE",
"68 713 LINE",
"68 65 LINE SMOOTH",
"68 43 OFFCURVE",
"66 21 OFFCURVE",
"64 -1 CURVE",
"126 -1 LINE",
"147 57 LINE",
"186 9 OFFCURVE",
"234 -12 OFFCURVE",
"295 -12 CURVE SMOOTH",
"445 -12 OFFCURVE",
"530 111 OFFCURVE",
"530 251 CURVE SMOOTH",
"530 370 OFFCURVE",
"462 508 OFFCURVE",
"327 508 CURVE SMOOTH"
);
},
{
closed = 1;
nodes = (
"370 416 OFFCURVE",
"399 312 OFFCURVE",
"399 245 CURVE SMOOTH",
"399 179 OFFCURVE",
"378 70 OFFCURVE",
"292 70 CURVE SMOOTH",
"214 70 OFFCURVE",
"188 138 OFFCURVE",
"188 205 CURVE SMOOTH",
"188 368 LINE",
"212 395 OFFCURVE",
"249 416 OFFCURVE",
"286 416 CURVE SMOOTH"
);
}
);
width = 558;
},
{
layerId = "49F6B500-2EFC-498D-B6E3-671BF3F335B4";
paths = (
{
closed = 1;
nodes = (
"235 506 OFFCURVE",
"193 487 OFFCURVE",
"151 448 CURVE",
"152 460 OFFCURVE",
"153 468 OFFCURVE",
"153 465 CURVE SMOOTH",
"153 759 LINE",
"75 759 LINE",
"89 699 LINE",
"89 70 LINE SMOOTH",
"89 46 OFFCURVE",
"87 23 OFFCURVE",
"87 -1 CURVE",
"131 -1 LINE",
"147 48 LINE",
"181 7 OFFCURVE",
"239 -14 OFFCURVE",
"292 -14 CURVE SMOOTH",
"440 -14 OFFCURVE",
"503 119 OFFCURVE",
"503 251 CURVE SMOOTH",
"503 378 OFFCURVE",
"435 506 OFFCURVE",
"293 506 CURVE SMOOTH"
);
},
{
closed = 1;
nodes = (
"394 447 OFFCURVE",
"436 347 OFFCURVE",
"436 250 CURVE SMOOTH",
"436 162 OFFCURVE",
"396 38 OFFCURVE",
"289 38 CURVE SMOOTH",
"190 38 OFFCURVE",
"153 103 OFFCURVE",
"153 196 CURVE SMOOTH",
"153 388 LINE",
"186 422 OFFCURVE",
"235 447 OFFCURVE",
"283 447 CURVE SMOOTH"
);
}
);
width = 558;
}
);
leftKerningGroup = b;
note = b;
rightKerningGroup = b;
unicode = 0062;
},
{
glyphname = c;
layers = (
{
anchors = (
{
name = bottom;
position = "{257, 0}";
},
{
name = top;
position = "{260, 497}";
}
);
background = {
paths = (
{
closed = 1;
nodes = (
"150 509 OFFCURVE",
"44 409 OFFCURVE",
"44 253 CURVE SMOOTH",
"44 90 OFFCURVE",
"136 -13 OFFCURVE",
"264 -13 CURVE SMOOTH",
"325 -13 OFFCURVE",
"377 3 OFFCURVE",
"433 37 CURVE",
"395 100 LINE",
"353 70 OFFCURVE",
"311 56 OFFCURVE",
"274 56 CURVE SMOOTH",
"193 56 OFFCURVE",
"133 126 OFFCURVE",
"133 249 CURVE SMOOTH",
"133 367 OFFCURVE",
"194 444 OFFCURVE",
"274 444 CURVE SMOOTH",
"307 444 OFFCURVE",
"344 430 OFFCURVE",
"381 400 CURVE",
"426 458 LINE",
"376 493 OFFCURVE",
"324 509 OFFCURVE",
"274 509 CURVE SMOOTH"
);
}
);
};
layerId = "42DF98DF-AAA4-4B66-9FB7-E08D57D544AF";
paths = (
{
closed = 1;
nodes = (
"150 509 OFFCURVE",
"44 409 OFFCURVE",
"44 253 CURVE SMOOTH",
"44 90 OFFCURVE",
"136 -13 OFFCURVE",
"264 -13 CURVE SMOOTH",
"325 -13 OFFCURVE",
"370 3 OFFCURVE",
"424 37 CURVE",
"397 90 LINE",
"357 67 OFFCURVE",
"321 55 OFFCURVE",
"283 55 CURVE SMOOTH",
"196 55 OFFCURVE",
"133 123 OFFCURVE",
"133 249 CURVE SMOOTH",
"133 367 OFFCURVE",
"194 444 OFFCURVE",
"274 444 CURVE SMOOTH",
"307 444 OFFCURVE",
"344 430 OFFCURVE",
"381 400 CURVE",
"426 458 LINE",
"376 493 OFFCURVE",
"324 509 OFFCURVE",
"274 509 CURVE SMOOTH"
);
}
);
width = 450;
},
{
anchors = (
{
name = bottom;
position = "{259, 0}";
},
{
name = top;
position = "{262, 497}";
}
);
background = {
paths = (
{
closed = 1;
nodes = (
"127 510 OFFCURVE",
"26 404 OFFCURVE",
"26 249 CURVE SMOOTH",
"26 96 OFFCURVE",
"111 -12 OFFCURVE",
"269 -12 CURVE SMOOTH",
"339 -12 OFFCURVE",
"381 4 OFFCURVE",
"442 35 CURVE",
"391 121 LINE",
"360 95 OFFCURVE",
"330 72 OFFCURVE",
"287 72 CURVE SMOOTH",
"190 72 OFFCURVE",
"158 169 OFFCURVE",
"158 251 CURVE SMOOTH",
"158 320 OFFCURVE",
"186 425 OFFCURVE",
"272 425 CURVE SMOOTH",
"314 425 OFFCURVE",
"342 410 OFFCURVE",
"374 386 CURVE",
"434 462 LINE",
"394 491 OFFCURVE",
"332 510 OFFCURVE",
"283 510 CURVE SMOOTH"
);
}
);
};
layerId = "0AB1FC3A-51B3-4F8E-BD9F-BEF828131012";
paths = (
{
closed = 1;
nodes = (
"127 510 OFFCURVE",
"26 404 OFFCURVE",
"26 249 CURVE SMOOTH",
"26 96 OFFCURVE",
"111 -12 OFFCURVE",
"269 -12 CURVE SMOOTH",
"334 -12 OFFCURVE",
"376 4 OFFCURVE",
"432 35 CURVE",
"401 107 LINE",
"360 83 OFFCURVE",
"325 72 OFFCURVE",
"290 72 CURVE SMOOTH",
"207 72 OFFCURVE",
"158 138 OFFCURVE",
"158 251 CURVE SMOOTH",
"158 320 OFFCURVE",
"186 425 OFFCURVE",
"272 425 CURVE SMOOTH",
"314 425 OFFCURVE",
"342 410 OFFCURVE",
"374 386 CURVE",
"434 462 LINE",
"394 491 OFFCURVE",
"332 510 OFFCURVE",
"283 510 CURVE SMOOTH"
);
}
);
width = 450;
},
{
anchors = (
{
name = bottom;
position = "{256, 0}";
},
{
name = top;
position = "{259, 497}";
}
);
layerId = "49F6B500-2EFC-498D-B6E3-671BF3F335B4";
paths = (
{
closed = 1;
nodes = (
"162 508 OFFCURVE",
"53 412 OFFCURVE",
"53 255 CURVE SMOOTH",
"53 87 OFFCURVE",
"149 -14 OFFCURVE",
"261 -14 CURVE SMOOTH",
"320 -14 OFFCURVE",
"367 2 OFFCURVE",
"420 38 CURVE",
"395 81 LINE",
"355 59 OFFCURVE",
"319 46 OFFCURVE",
"279 46 CURVE SMOOTH",
"190 46 OFFCURVE",
"120 115 OFFCURVE",
"120 248 CURVE SMOOTH",
"120 392 OFFCURVE",
"198 454 OFFCURVE",
"275 454 CURVE SMOOTH",
"303 454 OFFCURVE",
"345 441 OFFCURVE",
"385 407 CURVE",
"422 456 LINE",
"367 494 OFFCURVE",
"320 508 OFFCURVE",
"269 508 CURVE SMOOTH"
);
}
);
width = 450;
}
);
leftKerningGroup = c;
note = c;
rightKerningGroup = c;
unicode = 0063;
},
{
glyphname = d;
layers = (
{
anchors = (
{
name = center;
position = "{380, 627}";
},
{
name = topright;
position = "{346, 525}";
}
);
layerId = "42DF98DF-AAA4-4B66-9FB7-E08D57D544AF";
paths = (
{
closed = 1;
nodes = (
"117 508 OFFCURVE",
"45 380 OFFCURVE",
"45 244 CURVE SMOOTH",
"45 119 OFFCURVE",
"111 -13 OFFCURVE",
"251 -13 CURVE SMOOTH",
"308 -13 OFFCURVE",
"363 14 OFFCURVE",
"398 59 CURVE",
"401 36 OFFCURVE",
"407 13 OFFCURVE",
"417 -9 CURVE",
"505 2 LINE",
"483 39 OFFCURVE",
"474 101 OFFCURVE",
"474 143 CURVE SMOOTH",
"474 762 LINE",
"378 762 LINE",
"392 703 LINE",
"392 517 LINE SMOOTH",
"392 499 OFFCURVE",
"393 481 OFFCURVE",
"394 463 CURVE",
"360 494 OFFCURVE",
"312 508 OFFCURVE",
"267 508 CURVE SMOOTH"
);
},
{
closed = 1;
nodes = (
"356 440 OFFCURVE",
"392 373 OFFCURVE",
"392 294 CURVE SMOOTH",
"392 126 LINE",
"363 93 OFFCURVE",
"322 60 OFFCURVE",
"276 60 CURVE SMOOTH",
"170 60 OFFCURVE",
"133 159 OFFCURVE",
"133 250 CURVE SMOOTH",
"133 338 OFFCURVE",
"164 440 OFFCURVE",
"269 440 CURVE SMOOTH"
);
}
);
width = 558;
},
{
anchors = (
{
name = center;
position = "{392, 636}";
},
{
name = topright;
position = "{360, 530}";
}
);
layerId = "0AB1FC3A-51B3-4F8E-BD9F-BEF828131012";
paths = (
{
closed = 1;
nodes = (
"106 509 OFFCURVE",
"28 389 OFFCURVE",
"28 245 CURVE SMOOTH",
"28 117 OFFCURVE",
"99 -12 OFFCURVE",
"241 -12 CURVE SMOOTH",
"289 -12 OFFCURVE",
"351 10 OFFCURVE",
"379 51 CURVE",
"383 29 OFFCURVE",
"387 10 OFFCURVE",
"394 -9 CURVE",
"515 3 LINE",
"496 38 OFFCURVE",
"490 104 OFFCURVE",
"490 142 CURVE SMOOTH",
"490 768 LINE",
"355 768 LINE",
"370 714 LINE",
"370 538 LINE SMOOTH",
"370 515 OFFCURVE",
"370 504 OFFCURVE",
"371 477 CURVE",
"344 499 OFFCURVE",
"295 509 OFFCURVE",
"260 509 CURVE SMOOTH"
);
},
{
closed = 1;
nodes = (
"347 424 OFFCURVE",
"370 358 OFFCURVE",
"370 292 CURVE SMOOTH",
"370 129 LINE",
"350 99 OFFCURVE",
"311 77 OFFCURVE",
"275 77 CURVE SMOOTH",
"186 77 OFFCURVE",
"159 178 OFFCURVE",
"159 250 CURVE SMOOTH",
"159 319 OFFCURVE",
"183 424 OFFCURVE",
"271 424 CURVE SMOOTH"
);
}
);
width = 558;
},
{
anchors = (
{
name = center;
position = "{374, 622}";
},
{
name = topright;
position = "{339, 522}";
}
);
layerId = "49F6B500-2EFC-498D-B6E3-671BF3F335B4";
paths = (
{
closed = 1;
nodes = (
"123 507 OFFCURVE",
"54 375 OFFCURVE",
"54 243 CURVE SMOOTH",
"54 120 OFFCURVE",
"117 -14 OFFCURVE",
"256 -14 CURVE SMOOTH",
"318 -14 OFFCURVE",
"369 16 OFFCURVE",
"408 63 CURVE",
"410 40 OFFCURVE",
"418 15 OFFCURVE",
"429 -9 CURVE",
"500 1 LINE",
"476 40 OFFCURVE",
"466 99 OFFCURVE",
"466 144 CURVE SMOOTH",
"466 759 LINE",
"390 759 LINE",
"404 697 LINE",
"404 506 LINE SMOOTH",
"404 491 OFFCURVE",
"405 469 OFFCURVE",
"406 456 CURVE",
"368 491 OFFCURVE",
"321 507 OFFCURVE",
"271 507 CURVE SMOOTH"
);
},
{
closed = 1;
nodes = (
"361 448 OFFCURVE",
"404 381 OFFCURVE",
"404 295 CURVE SMOOTH",
"404 124 LINE",
"370 90 OFFCURVE",
"328 51 OFFCURVE",
"277 51 CURVE SMOOTH",
"162 51 OFFCURVE",
"119 149 OFFCURVE",
"119 250 CURVE SMOOTH",
"119 348 OFFCURVE",
"154 448 OFFCURVE",
"268 448 CURVE SMOOTH"
);
}
);
width = 558;
}
);
leftKerningGroup = c;
note = d;
unicode = 0064;
},
{
glyphname = eth;
layers = (
{
layerId = "42DF98DF-AAA4-4B66-9FB7-E08D57D544AF";
paths = (
{
closed = 1;
nodes = (
"126 505 OFFCURVE",
"45 384 OFFCURVE",
"45 247 CURVE SMOOTH",
"45 110 OFFCURVE",
"125 -10 OFFCURVE",
"268 -10 CURVE SMOOTH",
"411 -10 OFFCURVE",
"491 110 OFFCURVE",
"491 247 CURVE SMOOTH",
"491 406 OFFCURVE",
"390 564 OFFCURVE",
"299 673 CURVE",
"400 729 LINE",
"372 771 LINE",
"265 712 LINE",
"243 737 OFFCURVE",
"221 757 OFFCURVE",
"205 772 CURVE",
"150 739 LINE",
"167 723 OFFCURVE",
"187 703 OFFCURVE",
"207 680 CURVE",
"103 622 LINE",
"134 582 LINE",
"239 640 LINE",
"273 597 OFFCURVE",
"307 546 OFFCURVE",
"335 492 CURVE",
"315 500 OFFCURVE",
"293 505 OFFCURVE",
"268 505 CURVE SMOOTH"
);
},
{
closed = 1;
nodes = (
"373 445 OFFCURVE",
"403 328 OFFCURVE",
"403 247 CURVE SMOOTH",
"403 166 OFFCURVE",
"373 50 OFFCURVE",
"268 50 CURVE SMOOTH",
"164 50 OFFCURVE",
"133 167 OFFCURVE",
"133 247 CURVE SMOOTH",
"133 326 OFFCURVE",
"164 445 OFFCURVE",
"268 445 CURVE SMOOTH"
);
}
);
width = 536;
},
{
layerId = "0AB1FC3A-51B3-4F8E-BD9F-BEF828131012";
paths = (
{
closed = 1;
nodes = (
"119 510 OFFCURVE",
"26 392 OFFCURVE",
"26 249 CURVE SMOOTH",
"26 105 OFFCURVE",
"117 -11 OFFCURVE",
"268 -11 CURVE SMOOTH",
"419 -11 OFFCURVE",
"510 105 OFFCURVE",
"510 249 CURVE SMOOTH",
"510 406 OFFCURVE",
"416 560 OFFCURVE",
"323 672 CURVE",
"414 723 LINE",
"374 783 LINE",
"274 728 LINE",
"254 748 OFFCURVE",
"235 767 OFFCURVE",
"218 783 CURVE",
"130 731 LINE",
"146 715 OFFCURVE",
"164 697 OFFCURVE",
"182 677 CURVE",
"90 626 LINE",
"135 568 LINE",
"228 619 LINE",
"254 585 OFFCURVE",
"278 547 OFFCURVE",
"300 508 CURVE",
"290 509 OFFCURVE",
"279 510 OFFCURVE",
"268 510 CURVE SMOOTH"
);
},
{
closed = 1;
nodes = (
"362 428 OFFCURVE",
"378 321 OFFCURVE",
"378 248 CURVE SMOOTH",
"378 175 OFFCURVE",
"362 72 OFFCURVE",
"268 72 CURVE SMOOTH",
"177 72 OFFCURVE",
"158 178 OFFCURVE",
"158 248 CURVE SMOOTH",
"158 318 OFFCURVE",
"177 428 OFFCURVE",
"268 428 CURVE SMOOTH"
);
}
);
width = 536;
},
{
layerId = "49F6B500-2EFC-498D-B6E3-671BF3F335B4";
paths = (
{
closed = 1;
nodes = (
"130 502 OFFCURVE",
"55 380 OFFCURVE",
"55 246 CURVE SMOOTH",
"55 113 OFFCURVE",
"129 -9 OFFCURVE",
"268 -9 CURVE SMOOTH",
"407 -9 OFFCURVE",
"481 113 OFFCURVE",
"481 246 CURVE SMOOTH",
"481 406 OFFCURVE",
"376 566 OFFCURVE",
"286 674 CURVE",
"393 732 LINE",
"371 765 LINE",
"260 704 LINE",
"237 731 OFFCURVE",
"214 752 OFFCURVE",
"198 766 CURVE",
"161 743 LINE",
"178 727 OFFCURVE",
"199 706 OFFCURVE",
"220 682 CURVE",
"110 620 LINE",
"133 589 LINE",
"245 651 LINE",
"283 603 OFFCURVE",
"322 545 OFFCURVE",
"353 484 CURVE",
"328 495 OFFCURVE",
"300 502 OFFCURVE",
"268 502 CURVE SMOOTH"
);
},
{
closed = 1;
nodes = (
"379 454 OFFCURVE",
"416 332 OFFCURVE",
"416 246 CURVE SMOOTH",
"416 161 OFFCURVE",
"379 38 OFFCURVE",
"268 38 CURVE SMOOTH",
"157 38 OFFCURVE",
"120 161 OFFCURVE",
"120 246 CURVE SMOOTH",
"120 330 OFFCURVE",
"157 454 OFFCURVE",
"268 454 CURVE SMOOTH"
);
}
);
width = 536;
}
);
note = eth;
unicode = 00F0;
},
{
glyphname = dcaron;
layers = (
{
layerId = "42DF98DF-AAA4-4B66-9FB7-E08D57D544AF";
paths = (
{
closed = 1;
nodes = (
"117 508 OFFCURVE",
"45 380 OFFCURVE",
"45 244 CURVE SMOOTH",
"45 119 OFFCURVE",
"111 -13 OFFCURVE",
"251 -13 CURVE SMOOTH",
"308 -13 OFFCURVE",
"363 14 OFFCURVE",
"398 59 CURVE",
"401 36 OFFCURVE",
"407 13 OFFCURVE",
"417 -9 CURVE",
"505 2 LINE",
"483 39 OFFCURVE",
"474 101 OFFCURVE",
"474 143 CURVE SMOOTH",
"474 762 LINE",
"378 762 LINE",
"392 703 LINE",
"392 517 LINE SMOOTH",
"392 499 OFFCURVE",
"393 481 OFFCURVE",
"394 463 CURVE",
"360 494 OFFCURVE",
"312 508 OFFCURVE",
"267 508 CURVE SMOOTH"
);
},
{
closed = 1;
nodes = (
"356 440 OFFCURVE",
"392 373 OFFCURVE",
"392 294 CURVE SMOOTH",
"392 126 LINE",
"363 93 OFFCURVE",
"322 60 OFFCURVE",
"276 60 CURVE SMOOTH",
"170 60 OFFCURVE",
"133 159 OFFCURVE",
"133 250 CURVE SMOOTH",
"133 338 OFFCURVE",
"164 440 OFFCURVE",
"269 440 CURVE SMOOTH"
);
},
{
closed = 1;
nodes = (
"538 609 LINE",
"611 609 LINE",
"660 761 LINE",
"548 761 LINE"
);
}
);
width = 618;
},
{
layerId = "0AB1FC3A-51B3-4F8E-BD9F-BEF828131012";
paths = (
{
closed = 1;
nodes = (
"106 509 OFFCURVE",
"28 389 OFFCURVE",
"28 245 CURVE SMOOTH",
"28 117 OFFCURVE",
"99 -12 OFFCURVE",
"241 -12 CURVE SMOOTH",
"289 -12 OFFCURVE",
"351 10 OFFCURVE",
"379 51 CURVE",
"383 29 OFFCURVE",
"387 10 OFFCURVE",
"394 -9 CURVE",
"515 3 LINE",
"496 38 OFFCURVE",
"490 104 OFFCURVE",
"490 142 CURVE SMOOTH",
"490 768 LINE",
"355 768 LINE",
"370 714 LINE",
"370 538 LINE SMOOTH",
"370 515 OFFCURVE",
"370 504 OFFCURVE",
"371 477 CURVE",
"344 499 OFFCURVE",
"295 509 OFFCURVE",
"260 509 CURVE SMOOTH"
);
},
{
closed = 1;
nodes = (
"347 424 OFFCURVE",
"370 358 OFFCURVE",
"370 292 CURVE SMOOTH",
"370 129 LINE",
"350 99 OFFCURVE",
"311 77 OFFCURVE",
"275 77 CURVE SMOOTH",
"186 77 OFFCURVE",
"159 178 OFFCURVE",
"159 250 CURVE SMOOTH",
"159 319 OFFCURVE",
"183 424 OFFCURVE",
"271 424 CURVE SMOOTH"
);
},
{
closed = 1;
nodes = (
"535 603 LINE",
"633 603 LINE",
"680 768 LINE",
"545 768 LINE"
);
}
);
width = 638;
},
{
layerId = "49F6B500-2EFC-498D-B6E3-671BF3F335B4";
paths = (
{
closed = 1;
nodes = (
"123 507 OFFCURVE",
"54 375 OFFCURVE",
"54 243 CURVE SMOOTH",
"54 120 OFFCURVE",
"117 -14 OFFCURVE",
"256 -14 CURVE SMOOTH",
"318 -14 OFFCURVE",
"369 16 OFFCURVE",
"408 63 CURVE",
"410 40 OFFCURVE",
"418 15 OFFCURVE",
"429 -9 CURVE",
"500 1 LINE",
"476 40 OFFCURVE",
"466 99 OFFCURVE",
"466 144 CURVE SMOOTH",
"466 759 LINE",
"390 759 LINE",
"404 697 LINE",
"404 506 LINE SMOOTH",
"404 491 OFFCURVE",
"405 469 OFFCURVE",
"406 456 CURVE",
"368 491 OFFCURVE",
"321 507 OFFCURVE",
"271 507 CURVE SMOOTH"
);
},
{
closed = 1;
nodes = (
"361 448 OFFCURVE",
"404 381 OFFCURVE",
"404 295 CURVE SMOOTH",
"404 124 LINE",
"370 90 OFFCURVE",
"328 51 OFFCURVE",
"277 51 CURVE SMOOTH",
"162 51 OFFCURVE",
"119 149 OFFCURVE",
"119 250 CURVE SMOOTH",
"119 348 OFFCURVE",
"154 448 OFFCURVE",
"268 448 CURVE SMOOTH"
);
},
{
closed = 1;
nodes = (
"540 612 LINE",
"599 612 LINE",
"649 757 LINE",
"550 757 LINE"
);
}
);
width = 607;
}
);
unicode = 010F;
},
{
glyphname = e;
layers = (
{
anchors = (
{
name = bottom;
position = "{260, 0}";
},
{
name = ogonek;
position = "{338, 0}";
},
{
name = top;
position = "{266, 497}";
}
);
background = {
paths = (
{
closed = 1;
nodes = (
"119 509 OFFCURVE",
"44 375 OFFCURVE",
"44 243 CURVE SMOOTH",
"44 114 OFFCURVE",
"118 -13 OFFCURVE",
"275 -13 CURVE SMOOTH",
"335 -13 OFFCURVE",
"396 5 OFFCURVE",
"443 43 CURVE",
"406 103 LINE",
"373 75 OFFCURVE",
"320 57 OFFCURVE",
"277 57 CURVE SMOOTH",
"194 57 OFFCURVE",
"132 136 OFFCURVE",
"132 256 CURVE",
"448 256 LINE",
"451 277 OFFCURVE",
"453 296 OFFCURVE",
"453 315 CURVE SMOOTH",
"453 431 OFFCURVE",
"390 509 OFFCURVE",
"270 509 CURVE SMOOTH"
);
},
{
closed = 1;
nodes = (
"328 446 OFFCURVE",
"368 401 OFFCURVE",
"366 318 CURVE",
"138 318 LINE",
"149 380 OFFCURVE",
"194 446 OFFCURVE",
"262 446 CURVE SMOOTH"
);
}
);
};
layerId = "42DF98DF-AAA4-4B66-9FB7-E08D57D544AF";
paths = (
{
closed = 1;
nodes = (
"119 509 OFFCURVE",
"44 375 OFFCURVE",
"44 243 CURVE SMOOTH",
"44 114 OFFCURVE",
"118 -13 OFFCURVE",
"275 -13 CURVE SMOOTH",
"335 -13 OFFCURVE",
"396 5 OFFCURVE",
"443 43 CURVE",
"412 93 LINE",
"366 69 OFFCURVE",
"324 57 OFFCURVE",
"286 57 CURVE SMOOTH",
"193 57 OFFCURVE",
"132 129 OFFCURVE",
"132 256 CURVE",
"448 256 LINE",
"451 277 OFFCURVE",
"453 296 OFFCURVE",
"453 315 CURVE SMOOTH",
"453 431 OFFCURVE",
"390 509 OFFCURVE",
"270 509 CURVE SMOOTH"
);
},
{
closed = 1;
nodes = (
"328 446 OFFCURVE",
"368 401 OFFCURVE",
"366 318 CURVE",
"138 318 LINE",
"149 380 OFFCURVE",
"194 446 OFFCURVE",
"262 446 CURVE SMOOTH"
);
}
);
width = 494;
},
{
anchors = (
{
name = bottom;
position = "{259, 0}";
},
{
name = ogonek;
position = "{324, 0}";
},
{
name = top;
position = "{265, 497}";
}
);
background = {
paths = (
{
closed = 1;
nodes = (
"115 511 OFFCURVE",
"26 385 OFFCURVE",
"26 245 CURVE SMOOTH",
"26 91 OFFCURVE",
"120 -11 OFFCURVE",
"276 -11 CURVE SMOOTH",
"331 -11 OFFCURVE",
"409 5 OFFCURVE",
"454 42 CURVE",
"403 122 LINE",
"373 92 OFFCURVE",
"324 69 OFFCURVE",
"282 69 CURVE SMOOTH",
"194 69 OFFCURVE",
"153 158 OFFCURVE",
"153 234 CURVE",
"457 234 LINE",
"463 256 OFFCURVE",
"466 280 OFFCURVE",
"466 302 CURVE SMOOTH",
"466 409 OFFCURVE",
"403 511 OFFCURVE",
"265 511 CURVE SMOOTH"
);
},
{
closed = 1;
nodes = (
"320 429 OFFCURVE",
"347 376 OFFCURVE",
"341 313 CURVE",
"156 313 LINE",
"159 365 OFFCURVE",
"194 429 OFFCURVE",
"260 429 CURVE SMOOTH"
);
}
);
};
layerId = "0AB1FC3A-51B3-4F8E-BD9F-BEF828131012";
paths = (
{
closed = 1;
nodes = (
"115 511 OFFCURVE",
"26 385 OFFCURVE",
"26 245 CURVE SMOOTH",
"26 91 OFFCURVE",
"120 -11 OFFCURVE",
"276 -11 CURVE SMOOTH",
"331 -11 OFFCURVE",
"408 6 OFFCURVE",
"454 42 CURVE",
"422 110 LINE",
"374 82 OFFCURVE",
"329 69 OFFCURVE",
"290 69 CURVE SMOOTH",
"208 69 OFFCURVE",
"153 127 OFFCURVE",
"153 234 CURVE",
"457 234 LINE",
"463 256 OFFCURVE",
"466 280 OFFCURVE",
"466 302 CURVE SMOOTH",
"466 409 OFFCURVE",
"403 511 OFFCURVE",
"265 511 CURVE SMOOTH"
);
},
{
closed = 1;
nodes = (
"320 429 OFFCURVE",
"351 371 OFFCURVE",
"341 313 CURVE",
"156 313 LINE",
"159 365 OFFCURVE",
"194 429 OFFCURVE",
"260 429 CURVE SMOOTH"
);
}
);
width = 494;
},
{
anchors = (
{
name = bottom;
position = "{261, 0}";
},
{
name = ogonek;
position = "{345, 0}";
},
{
name = top;
position = "{267, 497}";
}
);
layerId = "49F6B500-2EFC-498D-B6E3-671BF3F335B4";
paths = (
{
closed = 1;
nodes = (
"121 508 OFFCURVE",
"53 370 OFFCURVE",
"53 242 CURVE SMOOTH",
"53 126 OFFCURVE",
"117 -14 OFFCURVE",
"274 -14 CURVE SMOOTH",
"337 -14 OFFCURVE",
"390 4 OFFCURVE",
"437 44 CURVE",
"407 84 LINE",
"362 62 OFFCURVE",
"321 51 OFFCURVE",
"284 51 CURVE SMOOTH",
"185 51 OFFCURVE",
"121 130 OFFCURVE",
"121 268 CURVE",
"443 268 LINE",
"445 288 OFFCURVE",
"446 304 OFFCURVE",
"446 322 CURVE SMOOTH",
"446 443 OFFCURVE",
"383 508 OFFCURVE",
"273 508 CURVE SMOOTH"
);
},
{
closed = 1;
nodes = (
"332 455 OFFCURVE",
"377 417 OFFCURVE",
"379 321 CURVE",
"129 321 LINE",
"144 388 OFFCURVE",
"194 455 OFFCURVE",
"263 455 CURVE SMOOTH"
);
}
);
width = 494;
}
);
leftKerningGroup = c;
note = e;
unicode = 0065;
},
{
glyphname = schwa;
layers = (
{
layerId = "42DF98DF-AAA4-4B66-9FB7-E08D57D544AF";
paths = (
{
closed = 1;
nodes = (
"375 -12 OFFCURVE",
"450 122 OFFCURVE",
"450 254 CURVE SMOOTH",
"450 383 OFFCURVE",
"376 510 OFFCURVE",
"219 510 CURVE SMOOTH",
"159 510 OFFCURVE",
"98 492 OFFCURVE",
"51 454 CURVE",
"88 394 LINE",
"121 422 OFFCURVE",
"174 440 OFFCURVE",
"217 440 CURVE SMOOTH",
"300 440 OFFCURVE",
"362 361 OFFCURVE",
"362 241 CURVE",
"46 241 LINE",
"43 220 OFFCURVE",
"41 201 OFFCURVE",
"41 182 CURVE SMOOTH",
"41 66 OFFCURVE",
"104 -12 OFFCURVE",
"224 -12 CURVE SMOOTH"
);
},
{
closed = 1;
nodes = (
"166 51 OFFCURVE",
"126 96 OFFCURVE",
"128 179 CURVE",
"356 179 LINE",
"345 117 OFFCURVE",
"300 51 OFFCURVE",
"232 51 CURVE SMOOTH"
);
}
);
width = 494;
},
{
layerId = "0AB1FC3A-51B3-4F8E-BD9F-BEF828131012";
paths = (
{
closed = 1;
nodes = (
"379 -14 OFFCURVE",
"468 112 OFFCURVE",
"468 252 CURVE SMOOTH",
"468 406 OFFCURVE",
"374 508 OFFCURVE",
"218 508 CURVE SMOOTH",
"163 508 OFFCURVE",
"85 492 OFFCURVE",
"40 455 CURVE",
"91 375 LINE",
"121 405 OFFCURVE",
"170 428 OFFCURVE",
"212 428 CURVE SMOOTH",
"300 428 OFFCURVE",
"341 339 OFFCURVE",
"341 263 CURVE",
"37 263 LINE",
"31 241 OFFCURVE",
"28 217 OFFCURVE",
"28 195 CURVE SMOOTH",
"28 88 OFFCURVE",
"91 -14 OFFCURVE",
"229 -14 CURVE SMOOTH"
);
},
{
closed = 1;
nodes = (
"174 68 OFFCURVE",
"147 121 OFFCURVE",
"153 184 CURVE",
"338 184 LINE",
"335 132 OFFCURVE",
"300 68 OFFCURVE",
"234 68 CURVE SMOOTH"
);
}
);
width = 494;
},
{
layerId = "49F6B500-2EFC-498D-B6E3-671BF3F335B4";
paths = (
{
closed = 1;
nodes = (
"373 -11 OFFCURVE",
"441 127 OFFCURVE",
"441 255 CURVE SMOOTH",
"441 371 OFFCURVE",
"377 511 OFFCURVE",
"220 511 CURVE SMOOTH",
"157 511 OFFCURVE",
"105 492 OFFCURVE",
"57 453 CURVE",
"86 404 LINE",
"121 431 OFFCURVE",
"176 446 OFFCURVE",
"220 446 CURVE SMOOTH",
"300 446 OFFCURVE",
"373 373 OFFCURVE",
"373 229 CURVE",
"51 229 LINE",
"49 209 OFFCURVE",
"48 193 OFFCURVE",
"48 175 CURVE SMOOTH",
"48 54 OFFCURVE",
"111 -11 OFFCURVE",
"221 -11 CURVE SMOOTH"
);
},
{
closed = 1;
nodes = (
"162 42 OFFCURVE",
"115 83 OFFCURVE",
"115 176 CURVE",
"365 176 LINE",
"350 109 OFFCURVE",
"300 42 OFFCURVE",
"231 42 CURVE SMOOTH"
);
}
);
width = 494;
}
);
unicode = 0259;
},
{
glyphname = f;
layers = (
{
layerId = "42DF98DF-AAA4-4B66-9FB7-E08D57D544AF";
paths = (
{
closed = 1;
nodes = (
"238 770 OFFCURVE",
"188 743 OFFCURVE",
"155 700 CURVE SMOOTH",
"114 648 OFFCURVE",
"116 619 OFFCURVE",
"97 527 CURVE SMOOTH",
"89 488 OFFCURVE",
"52 490 OFFCURVE",
"20 487 CURVE",
"20 435 LINE",
"95 435 LINE",
"95 0 LINE",
"177 0 LINE",
"177 435 LINE",
"302 435 LINE",
"320 497 LINE",
"177 497 LINE",
"177 585 OFFCURVE",
"188 708 OFFCURVE",
"305 708 CURVE SMOOTH",
"329 708 OFFCURVE",
"359 699 OFFCURVE",
"377 683 CURVE",
"400 745 LINE",
"368 763 OFFCURVE",
"340 770 OFFCURVE",
"303 770 CURVE SMOOTH"
);
}
);
width = 288;
},
{
layerId = "0AB1FC3A-51B3-4F8E-BD9F-BEF828131012";
paths = (
{
closed = 1;
nodes = (
"262 776 OFFCURVE",
"208 762 OFFCURVE",
"172 730 CURVE SMOOTH",
"103 666 OFFCURVE",
"105 616 OFFCURVE",
"87 532 CURVE SMOOTH",
"78 490 OFFCURVE",
"31 488 OFFCURVE",
"3 488 CURVE",
"3 417 LINE",
"85 417 LINE",
"85 -1 LINE",
"205 -1 LINE",
"205 417 LINE",
"304 417 LINE",
"327 497 LINE",
"205 497 LINE",
"205 633 OFFCURVE",
"232 694 OFFCURVE",
"314 694 CURVE SMOOTH",
"334 694 OFFCURVE",
"359 684 OFFCURVE",
"376 672 CURVE",
"408 753 LINE",
"382 769 OFFCURVE",
"339 776 OFFCURVE",
"309 776 CURVE SMOOTH"
);
}
);
width = 288;
},
{
layerId = "49F6B500-2EFC-498D-B6E3-671BF3F335B4";
paths = (
{
closed = 1;
nodes = (
"225 767 OFFCURVE",
"177 733 OFFCURVE",
"146 684 CURVE SMOOTH",
"120 639 OFFCURVE",
"122 621 OFFCURVE",
"102 524 CURVE SMOOTH",
"95 487 OFFCURVE",
"63 491 OFFCURVE",
"29 486 CURVE",
"29 444 LINE",
"100 444 LINE",
"100 1 LINE",
"162 1 LINE",
"162 444 LINE",
"301 444 LINE",
"316 497 LINE",
"162 497 LINE",
"162 560 OFFCURVE",
"165 715 OFFCURVE",
"300 715 CURVE SMOOTH",
"326 715 OFFCURVE",
"359 707 OFFCURVE",
"378 689 CURVE",
"396 741 LINE",
"361 760 OFFCURVE",
"341 767 OFFCURVE",
"300 767 CURVE SMOOTH"
);
}
);
width = 288;
}
);
leftKerningGroup = f;
note = f;
rightKerningGroup = f;
unicode = 0066;
},
{
glyphname = g;
layers = (
{
anchors = (
{
name = top;
position = "{233, 497}";
}
);
background = {
paths = (
{
closed = 1;
nodes = (
"125 509 OFFCURVE",
"44 433 OFFCURVE",
"44 336 CURVE SMOOTH",
"44 279 OFFCURVE",
"74 226 OFFCURVE",
"121 194 CURVE",
"105 164 OFFCURVE",
"86 138 OFFCURVE",
"64 108 CURVE",
"60 102 OFFCURVE",
"52 95 OFFCURVE",
"52 87 CURVE SMOOTH",
"52 56 OFFCURVE",
"70 28 OFFCURVE",
"98 14 CURVE",
"59 -13 OFFCURVE",
"21 -53 OFFCURVE",
"21 -104 CURVE SMOOTH",
"21 -199 OFFCURVE",
"126 -230 OFFCURVE",
"200 -230 CURVE SMOOTH",
"326 -230 OFFCURVE",
"457 -174 OFFCURVE",
"457 -26 CURVE SMOOTH",
"457 66 OFFCURVE",
"370 79 OFFCURVE",
"301 79 CURVE SMOOTH",
"270 79 OFFCURVE",
"236 76 OFFCURVE",
"204 76 CURVE SMOOTH",
"176 76 OFFCURVE",
"143 76 OFFCURVE",
"143 113 CURVE SMOOTH",
"143 133 OFFCURVE",
"163 168 OFFCURVE",
"183 168 CURVE SMOOTH",
"195 168 OFFCURVE",
"207 164 OFFCURVE",
"221 164 CURVE SMOOTH",
"316 164 OFFCURVE",
"397 240 OFFCURVE",
"397 337 CURVE SMOOTH",
"397 372 OFFCURVE",
"386 409 OFFCURVE",
"364 438 CURVE",
"471 438 LINE",
"489 510 LINE",
"431 502 OFFCURVE",
"381 495 OFFCURVE",
"330 495 CURVE SMOOTH",
"293 495 OFFCURVE",
"258 509 OFFCURVE",
"220 509 CURVE SMOOTH"
);
},
{
closed = 1;
nodes = (
"172 224 OFFCURVE",
"131 273 OFFCURVE",
"131 337 CURVE SMOOTH",
"131 400 OFFCURVE",
"172 449 OFFCURVE",
"221 449 CURVE SMOOTH",
"269 449 OFFCURVE",
"310 400 OFFCURVE",
"310 336 CURVE SMOOTH",
"310 273 OFFCURVE",
"269 224 OFFCURVE",
"220 224 CURVE SMOOTH"
);
},
{
closed = 1;
nodes = (
"198 -1 OFFCURVE",
"238 0 OFFCURVE",
"278 0 CURVE SMOOTH",
"323 0 OFFCURVE",
"380 -3 OFFCURVE",
"380 -55 CURVE SMOOTH",
"380 -136 OFFCURVE",
"285 -162 OFFCURVE",
"215 -162 CURVE SMOOTH",
"170 -162 OFFCURVE",
"107 -136 OFFCURVE",
"107 -87 CURVE SMOOTH",
"107 -56 OFFCURVE",
"132 -22 OFFCURVE",
"158 -3 CURVE"
);
}
);
};
layerId = "42DF98DF-AAA4-4B66-9FB7-E08D57D544AF";
paths = (
{
closed = 1;
nodes = (
"125 509 OFFCURVE",
"44 433 OFFCURVE",
"44 336 CURVE SMOOTH",
"44 279 OFFCURVE",
"74 226 OFFCURVE",
"121 194 CURVE",
"85 128 OFFCURVE",
"52 112 OFFCURVE",
"52 87 CURVE SMOOTH",
"52 57 OFFCURVE",
"69 30 OFFCURVE",
"99 15 CURVE",
"99 12 LINE",
"57 -15 OFFCURVE",
"21 -54 OFFCURVE",
"21 -104 CURVE SMOOTH",
"21 -199 OFFCURVE",
"126 -230 OFFCURVE",
"200 -230 CURVE SMOOTH",
"326 -230 OFFCURVE",
"457 -174 OFFCURVE",
"457 -26 CURVE SMOOTH",
"457 66 OFFCURVE",
"370 78 OFFCURVE",
"301 78 CURVE SMOOTH",
"204 78 LINE SMOOTH",
"176 78 OFFCURVE",
"143 76 OFFCURVE",
"143 113 CURVE SMOOTH",
"143 149 OFFCURVE",
"172 166 OFFCURVE",
"206 166 CURVE SMOOTH",
"328 166 OFFCURVE",
"396 240 OFFCURVE",
"396 341 CURVE SMOOTH",
"396 375 OFFCURVE",
"385 409 OFFCURVE",
"362 440 CURVE",
"371 439 OFFCURVE",
"382 438 OFFCURVE",
"391 438 CURVE SMOOTH",
"471 438 LINE",
"489 510 LINE",
"431 502 OFFCURVE",
"381 495 OFFCURVE",
"330 495 CURVE SMOOTH",
"293 495 OFFCURVE",
"258 509 OFFCURVE",
"220 509 CURVE SMOOTH"
);
},
{
closed = 1;
nodes = (
"269 449 OFFCURVE",
"310 400 OFFCURVE",
"310 336 CURVE SMOOTH",
"310 269 OFFCURVE",
"274 224 OFFCURVE",
"220 224 CURVE SMOOTH",
"172 224 OFFCURVE",
"131 273 OFFCURVE",
"131 337 CURVE SMOOTH",
"131 400 OFFCURVE",
"172 449 OFFCURVE",
"221 449 CURVE SMOOTH"
);
},
{
closed = 1;
nodes = (
"278 -1 LINE SMOOTH",
"323 -1 OFFCURVE",
"380 -3 OFFCURVE",
"380 -55 CURVE SMOOTH",
"380 -136 OFFCURVE",
"285 -162 OFFCURVE",
"215 -162 CURVE SMOOTH",
"170 -162 OFFCURVE",
"107 -136 OFFCURVE",
"107 -87 CURVE SMOOTH",
"107 -56 OFFCURVE",
"132 -20 OFFCURVE",
"158 -1 CURVE"
);
}
);
width = 477;
},
{
anchors = (
{
name = top;
position = "{234, 497}";
}
);
layerId = "0AB1FC3A-51B3-4F8E-BD9F-BEF828131012";
paths = (
{
closed = 1;
nodes = (
"117 512 OFFCURVE",
"29 444 OFFCURVE",
"29 340 CURVE SMOOTH",
"29 275 OFFCURVE",
"63 224 OFFCURVE",
"118 193 CURVE",
"80 129 OFFCURVE",
"42 114 OFFCURVE",
"42 95 CURVE SMOOTH",
"42 64 OFFCURVE",
"65 33 OFFCURVE",
"88 27 CURVE",
"88 23 LINE",
"41 2 OFFCURVE",
"0 -46 OFFCURVE",
"0 -105 CURVE SMOOTH",
"0 -208 OFFCURVE",
"120 -230 OFFCURVE",
"200 -230 CURVE SMOOTH",
"324 -230 OFFCURVE",
"473 -167 OFFCURVE",
"473 -23 CURVE SMOOTH",
"473 84 OFFCURVE",
"377 91 OFFCURVE",
"294 91 CURVE SMOOTH",
"248 91 LINE SMOOTH",
"210 91 OFFCURVE",
"166 94 OFFCURVE",
"166 123 CURVE SMOOTH",
"166 149 OFFCURVE",
"189 168 OFFCURVE",
"213 168 CURVE SMOOTH",
"315 168 OFFCURVE",
"405 236 OFFCURVE",
"405 341 CURVE SMOOTH",
"405 375 OFFCURVE",
"394 403 OFFCURVE",
"373 430 CURVE",
"380 428 OFFCURVE",
"389 425 OFFCURVE",
"396 425 CURVE SMOOTH",
"481 425 LINE",
"503 508 LINE",
"445 503 OFFCURVE",
"384 497 OFFCURVE",
"325 497 CURVE SMOOTH",
"289 497 OFFCURVE",
"260 512 OFFCURVE",
"218 512 CURVE SMOOTH"
);
},
{
closed = 1;
nodes = (
"257 437 OFFCURVE",
"281 392 OFFCURVE",
"281 337 CURVE SMOOTH",
"281 282 OFFCURVE",
"257 238 OFFCURVE",
"217 238 CURVE SMOOTH",
"177 238 OFFCURVE",
"154 282 OFFCURVE",
"154 337 CURVE SMOOTH",
"154 392 OFFCURVE",
"177 437 OFFCURVE",
"217 437 CURVE SMOOTH"
);
},
{
closed = 1;
nodes = (
"262 0 LINE SMOOTH",
"298 0 OFFCURVE",
"359 -2 OFFCURVE",
"359 -50 CURVE SMOOTH",
"359 -128 OFFCURVE",
"277 -144 OFFCURVE",
"215 -144 CURVE SMOOTH",
"177 -144 OFFCURVE",
"122 -129 OFFCURVE",
"122 -82 CURVE SMOOTH",
"122 -50 OFFCURVE",
"144 -15 OFFCURVE",
"171 0 CURVE"
);
}
);
width = 477;
},
{
anchors = (
{
name = top;
position = "{232, 497}";
}
);
layerId = "49F6B500-2EFC-498D-B6E3-671BF3F335B4";
paths = (
{
closed = 1;
nodes = (
"129 507 OFFCURVE",
"52 427 OFFCURVE",
"52 334 CURVE SMOOTH",
"52 281 OFFCURVE",
"80 227 OFFCURVE",
"123 195 CURVE",
"88 127 OFFCURVE",
"57 111 OFFCURVE",
"57 83 CURVE SMOOTH",
"57 53 OFFCURVE",
"71 28 OFFCURVE",
"105 9 CURVE",
"105 6 LINE",
"65 -24 OFFCURVE",
"32 -58 OFFCURVE",
"32 -103 CURVE SMOOTH",
"32 -194 OFFCURVE",
"129 -230 OFFCURVE",
"200 -230 CURVE SMOOTH",
"327 -230 OFFCURVE",
"449 -178 OFFCURVE",
"449 -28 CURVE SMOOTH",
"449 57 OFFCURVE",
"366 71 OFFCURVE",
"305 71 CURVE SMOOTH",
"181 71 LINE SMOOTH",
"158 71 OFFCURVE",
"131 67 OFFCURVE",
"131 108 CURVE SMOOTH",
"131 149 OFFCURVE",
"163 165 OFFCURVE",
"202 165 CURVE SMOOTH",
"335 165 OFFCURVE",
"391 242 OFFCURVE",
"391 341 CURVE SMOOTH",
"391 375 OFFCURVE",
"380 412 OFFCURVE",
"356 445 CURVE",
"366 445 OFFCURVE",
"378 445 OFFCURVE",
"388 445 CURVE SMOOTH",
"466 445 LINE",
"482 511 LINE",
"424 501 OFFCURVE",
"379 494 OFFCURVE",
"333 494 CURVE SMOOTH",
"295 494 OFFCURVE",
"257 507 OFFCURVE",
"221 507 CURVE SMOOTH"
);
},
{
closed = 1;
nodes = (
"275 455 OFFCURVE",
"325 404 OFFCURVE",
"325 335 CURVE SMOOTH",
"325 262 OFFCURVE",
"283 217 OFFCURVE",
"222 217 CURVE SMOOTH",
"169 217 OFFCURVE",
"119 268 OFFCURVE",
"119 337 CURVE SMOOTH",
"119 404 OFFCURVE",
"169 455 OFFCURVE",
"223 455 CURVE SMOOTH"
);
},
{
closed = 1;
nodes = (
"286 -2 LINE SMOOTH",
"336 -2 OFFCURVE",
"391 -4 OFFCURVE",
"391 -58 CURVE SMOOTH",
"391 -140 OFFCURVE",
"289 -171 OFFCURVE",
"215 -171 CURVE SMOOTH",
"166 -171 OFFCURVE",
"99 -140 OFFCURVE",
"99 -90 CURVE SMOOTH",
"99 -59 OFFCURVE",
"126 -23 OFFCURVE",
"151 -2 CURVE"
);
}
);
width = 477;
}
);
note = g;
rightKerningGroup = g;
unicode = 0067;
},
{
glyphname = h;
layers = (
{
anchors = (
{
name = bottom;
position = "{268, 0}";
},
{
name = center;
position = "{179, 607}";
},
{
name = top;
position = "{122, 728}";
}
);
layerId = "42DF98DF-AAA4-4B66-9FB7-E08D57D544AF";
paths = (
{
closed = 1;
nodes = (
"69 762 LINE",
"82 703 LINE",
"82 0 LINE",
"164 0 LINE",
"164 370 LINE",
"201 401 OFFCURVE",
"251 436 OFFCURVE",
"301 436 CURVE SMOOTH",
"380 436 OFFCURVE",
"384 367 OFFCURVE",
"384 306 CURVE SMOOTH",
"384 0 LINE",
"466 0 LINE",
"466 333 LINE SMOOTH",
"466 436 OFFCURVE",
"425 510 OFFCURVE",
"315 510 CURVE SMOOTH",
"255 510 OFFCURVE",
"206 478 OFFCURVE",
"164 438 CURVE",
"164 762 LINE"
);
}
);
width = 547;
},
{
anchors = (
{
name = bottom;
position = "{276, 0}";
},
{
name = center;
position = "{177, 607}";
},
{
name = top;
position = "{130, 732}";
}
);
layerId = "0AB1FC3A-51B3-4F8E-BD9F-BEF828131012";
paths = (
{
closed = 1;
nodes = (
"58 769 LINE",
"70 715 LINE",
"70 0 LINE",
"189 0 LINE",
"189 361 LINE",
"210 384 OFFCURVE",
"267 416 OFFCURVE",
"297 416 CURVE SMOOTH",
"355 416 OFFCURVE",
"360 370 OFFCURVE",
"360 324 CURVE SMOOTH",
"360 0 LINE",
"481 0 LINE",
"481 336 LINE SMOOTH",
"481 440 OFFCURVE",
"448 511 OFFCURVE",
"333 511 CURVE SMOOTH",
"281 511 OFFCURVE",
"228 482 OFFCURVE",
"189 450 CURVE",
"189 769 LINE"
);
}
);
width = 547;
},
{
anchors = (
{
name = bottom;
position = "{264, 0}";
},
{
name = center;
position = "{180, 607}";
},
{
name = top;
position = "{118, 726}";
}
);
layerId = "49F6B500-2EFC-498D-B6E3-671BF3F335B4";
paths = (
{
closed = 1;
nodes = (
"75 758 LINE",
"88 697 LINE",
"88 0 LINE",
"151 0 LINE",
"151 375 LINE",
"196 410 OFFCURVE",
"243 447 OFFCURVE",
"303 447 CURVE SMOOTH",
"393 447 OFFCURVE",
"397 365 OFFCURVE",
"397 297 CURVE SMOOTH",
"397 0 LINE",
"458 0 LINE",
"458 331 LINE SMOOTH",
"458 434 OFFCURVE",
"413 509 OFFCURVE",
"306 509 CURVE SMOOTH",
"241 509 OFFCURVE",
"194 476 OFFCURVE",
"151 432 CURVE",
"151 758 LINE"
);
}
);
width = 547;
}
);
leftKerningGroup = b;
note = h;
rightKerningGroup = h;
unicode = 0068;
},
{
glyphname = i;
layers = (
{
anchors = (
{
name = bottom;
position = "{126, 0}";
},
{
name = ogonek;
position = "{127, 0}";
}
);
layerId = "42DF98DF-AAA4-4B66-9FB7-E08D57D544AF";
paths = (
{
closed = 1;
nodes = (
"185 697 OFFCURVE",
"157 725 OFFCURVE",
"124 725 CURVE SMOOTH",
"91 725 OFFCURVE",
"64 697 OFFCURVE",
"64 664 CURVE SMOOTH",
"64 631 OFFCURVE",
"91 603 OFFCURVE",
"124 603 CURVE SMOOTH",
"158 603 OFFCURVE",
"185 630 OFFCURVE",
"185 664 CURVE SMOOTH"
);
},
{
closed = 1;
nodes = (
"72 497 LINE",
"84 438 LINE",
"84 0 LINE",
"167 0 LINE",
"167 497 LINE"
);
}
);
width = 251;
},
{
anchors = (
{
name = bottom;
position = "{126, 0}";
},
{
name = ogonek;
position = "{126, 0}";
}
);
layerId = "0AB1FC3A-51B3-4F8E-BD9F-BEF828131012";
paths = (
{
closed = 1;
nodes = (
"202 720 OFFCURVE",
"168 754 OFFCURVE",
"126 754 CURVE SMOOTH",
"84 754 OFFCURVE",
"49 720 OFFCURVE",
"49 678 CURVE SMOOTH",
"49 636 OFFCURVE",
"84 601 OFFCURVE",
"126 601 CURVE SMOOTH",
"168 601 OFFCURVE",
"202 636 OFFCURVE",
"202 678 CURVE SMOOTH"
);
},
{
closed = 1;
nodes = (
"54 497 LINE",
"65 443 LINE",
"65 0 LINE",
"185 0 LINE",
"185 497 LINE"
);
}
);
width = 251;
},
{
anchors = (
{
name = bottom;
position = "{126, 0}";
},
{
name = ogonek;
position = "{128, 0}";
}
);
layerId = "49F6B500-2EFC-498D-B6E3-671BF3F335B4";
paths = (
{
closed = 1;
nodes = (
"176 685 OFFCURVE",
"151 710 OFFCURVE",
"123 710 CURVE SMOOTH",
"95 710 OFFCURVE",
"72 685 OFFCURVE",
"72 657 CURVE SMOOTH",
"72 628 OFFCURVE",
"95 604 OFFCURVE",
"123 604 CURVE SMOOTH",
"153 604 OFFCURVE",
"176 627 OFFCURVE",
"176 657 CURVE SMOOTH"
);
},
{
closed = 1;
nodes = (
"81 497 LINE",
"94 435 LINE",
"94 0 LINE",
"158 0 LINE",
"158 497 LINE"
);
}
);
width = 251;
}
);
note = i;
unicode = 0069;
},
{
glyphname = idotless;
layers = (
{
anchors = (
{
name = bottom;
position = "{125, 0}";
},
{
name = top;
position = "{125, 497}";
}
);
layerId = "42DF98DF-AAA4-4B66-9FB7-E08D57D544AF";
paths = (
{
closed = 1;
nodes = (
"84 0 LINE",
"167 0 LINE",
"167 497 LINE",
"72 497 LINE",
"73 491 OFFCURVE",
"84 440 OFFCURVE",
"84 438 CURVE SMOOTH"
);
}
);
width = 252;
},
{
anchors = (
{
name = bottom;
position = "{125, 0}";
},
{
name = top;
position = "{125, 497}";
}
);
layerId = "0AB1FC3A-51B3-4F8E-BD9F-BEF828131012";
paths = (
{
closed = 1;
nodes = (
"65 0 LINE",
"185 0 LINE",
"185 497 LINE",
"54 497 LINE",
"55 492 OFFCURVE",
"65 445 OFFCURVE",
"65 443 CURVE SMOOTH"
);
}
);
width = 251;
},
{
anchors = (
{
name = bottom;
position = "{125, 0}";
},
{
name = top;
position = "{125, 497}";
}
);
layerId = "49F6B500-2EFC-498D-B6E3-671BF3F335B4";
paths = (
{
closed = 1;
nodes = (
"94 0 LINE",
"158 0 LINE",
"158 497 LINE",
"81 497 LINE",
"82 490 OFFCURVE",
"94 437 OFFCURVE",
"94 435 CURVE SMOOTH"
);
}
);
width = 253;
}
);
note = dotlessi;
unicode = 0131;
},
{
glyphname = iogonek;
layers = (
{
layerId = "42DF98DF-AAA4-4B66-9FB7-E08D57D544AF";
paths = (
{
closed = 1;
nodes = (
"185 697 OFFCURVE",
"157 725 OFFCURVE",
"124 725 CURVE SMOOTH",
"91 725 OFFCURVE",
"64 697 OFFCURVE",
"64 664 CURVE SMOOTH",
"64 631 OFFCURVE",
"91 603 OFFCURVE",
"124 603 CURVE SMOOTH",
"158 603 OFFCURVE",
"185 630 OFFCURVE",
"185 664 CURVE SMOOTH"
);
},
{
closed = 1;
nodes = (
"72 497 LINE",
"84 438 LINE",
"84 0 LINE",
"167 0 LINE",
"167 497 LINE"
);
},
{
closed = 1;
nodes = (
"186 -115 LINE",
"165 -128 OFFCURVE",
"131 -147 OFFCURVE",
"106 -147 CURVE SMOOTH",
"77 -147 OFFCURVE",
"57 -132 OFFCURVE",
"57 -102 CURVE SMOOTH",
"57 -54 OFFCURVE",
"119 -19 OFFCURVE",
"162 4 CURVE",
"160 25 LINE",
"96 14 OFFCURVE",
"-26 -42 OFFCURVE",
"-26 -118 CURVE SMOOTH",
"-26 -175 OFFCURVE",
"17 -202 OFFCURVE",
"70 -202 CURVE SMOOTH",
"119 -202 OFFCURVE",
"165 -181 OFFCURVE",
"203 -152 CURVE"
);
}
);
width = 251;
},
{
layerId = "0AB1FC3A-51B3-4F8E-BD9F-BEF828131012";
paths = (
{
closed = 1;
nodes = (
"202 720 OFFCURVE",
"168 754 OFFCURVE",
"126 754 CURVE SMOOTH",
"84 754 OFFCURVE",
"49 720 OFFCURVE",
"49 678 CURVE SMOOTH",
"49 636 OFFCURVE",
"84 601 OFFCURVE",
"126 601 CURVE SMOOTH",
"168 601 OFFCURVE",
"202 636 OFFCURVE",
"202 678 CURVE SMOOTH"
);
},
{
closed = 1;
nodes = (
"54 497 LINE",
"65 443 LINE",
"65 0 LINE",
"185 0 LINE",
"185 497 LINE"
);
},
{
closed = 1;
nodes = (
"187 -104 LINE",
"166 -117 OFFCURVE",
"129 -140 OFFCURVE",
"104 -140 CURVE SMOOTH",
"79 -140 OFFCURVE",
"62 -128 OFFCURVE",
"62 -102 CURVE SMOOTH",
"62 -55 OFFCURVE",
"126 -15 OFFCURVE",
"176 7 CURVE",
"159 33 LINE",
"91 22 OFFCURVE",
"-36 -37 OFFCURVE",
"-36 -118 CURVE SMOOTH",
"-36 -180 OFFCURVE",
"10 -211 OFFCURVE",
"68 -211 CURVE SMOOTH",
"121 -211 OFFCURVE",
"170 -186 OFFCURVE",
"210 -154 CURVE"
);
}
);
width = 251;
},
{
layerId = "49F6B500-2EFC-498D-B6E3-671BF3F335B4";
paths = (
{
closed = 1;
nodes = (
"176 685 OFFCURVE",
"151 710 OFFCURVE",
"123 710 CURVE SMOOTH",
"95 710 OFFCURVE",
"72 685 OFFCURVE",
"72 657 CURVE SMOOTH",
"72 628 OFFCURVE",
"95 604 OFFCURVE",
"123 604 CURVE SMOOTH",
"153 604 OFFCURVE",
"176 627 OFFCURVE",
"176 657 CURVE SMOOTH"
);
},
{
closed = 1;
nodes = (
"81 497 LINE",
"94 435 LINE",
"94 0 LINE",
"158 0 LINE",
"158 497 LINE"
);
},
{
closed = 1;
nodes = (
"185 -121 LINE",
"164 -134 OFFCURVE",
"132 -151 OFFCURVE",
"107 -151 CURVE SMOOTH",
"76 -151 OFFCURVE",
"54 -134 OFFCURVE",
"54 -102 CURVE SMOOTH",
"54 -53 OFFCURVE",
"115 -21 OFFCURVE",
"155 2 CURVE",
"161 21 LINE",
"99 10 OFFCURVE",
"-21 -45 OFFCURVE",
"-21 -118 CURVE SMOOTH",
"-21 -172 OFFCURVE",
"21 -197 OFFCURVE",
"71 -197 CURVE SMOOTH",
"118 -197 OFFCURVE",
"162 -178 OFFCURVE",
"199 -151 CURVE"
);
}
);
width = 251;
}
);
unicode = 012F;
},
{
glyphname = j;
layers = (
{
layerId = "42DF98DF-AAA4-4B66-9FB7-E08D57D544AF";
paths = (
{
closed = 1;
nodes = (
"187 697 OFFCURVE",
"159 725 OFFCURVE",
"126 725 CURVE SMOOTH",
"93 725 OFFCURVE",
"65 697 OFFCURVE",
"65 664 CURVE SMOOTH",
"65 630 OFFCURVE",
"92 603 OFFCURVE",
"126 603 CURVE SMOOTH",
"160 603 OFFCURVE",
"187 630 OFFCURVE",
"187 664 CURVE SMOOTH"
);
},
{
closed = 1;
nodes = (
"71 497 LINE",
"84 438 LINE",
"84 13 LINE SMOOTH",
"84 -59 OFFCURVE",
"84 -150 OFFCURVE",
"11 -188 CURVE",
"25 -228 LINE",
"149 -211 OFFCURVE",
"167 -77 OFFCURVE",
"167 25 CURVE SMOOTH",
"167 497 LINE"
);
}
);
width = 251;
},
{
layerId = "0AB1FC3A-51B3-4F8E-BD9F-BEF828131012";
paths = (
{
closed = 1;
nodes = (
"201 720 OFFCURVE",
"167 754 OFFCURVE",
"125 754 CURVE SMOOTH",
"83 754 OFFCURVE",
"48 720 OFFCURVE",
"48 678 CURVE SMOOTH",
"48 636 OFFCURVE",
"83 601 OFFCURVE",
"125 601 CURVE SMOOTH",
"167 601 OFFCURVE",
"201 636 OFFCURVE",
"201 678 CURVE SMOOTH"
);
},
{
closed = 1;
nodes = (
"53 497 LINE",
"65 444 LINE",
"65 40 LINE SMOOTH",
"65 -36 OFFCURVE",
"65 -128 OFFCURVE",
"-11 -169 CURVE",
"11 -224 LINE",
"166 -206 OFFCURVE",
"185 -63 OFFCURVE",
"185 66 CURVE SMOOTH",
"185 497 LINE"
);
}
);
width = 251;
},
{
layerId = "49F6B500-2EFC-498D-B6E3-671BF3F335B4";
paths = (
{
closed = 1;
nodes = (
"180 685 OFFCURVE",
"155 710 OFFCURVE",
"127 710 CURVE SMOOTH",
"98 710 OFFCURVE",
"74 685 OFFCURVE",
"74 657 CURVE SMOOTH",
"74 627 OFFCURVE",
"97 604 OFFCURVE",
"127 604 CURVE SMOOTH",
"156 604 OFFCURVE",
"180 627 OFFCURVE",
"180 657 CURVE SMOOTH"
);
},
{
closed = 1;
nodes = (
"80 497 LINE",
"94 435 LINE",
"94 -1 LINE SMOOTH",
"94 -71 OFFCURVE",
"94 -162 OFFCURVE",
"23 -198 CURVE",
"32 -230 LINE",
"140 -214 OFFCURVE",
"158 -84 OFFCURVE",
"158 3 CURVE SMOOTH",
"158 497 LINE"
);
}
);
width = 251;
}
);
note = j;
unicode = 006A;
},
{
glyphname = jdotless;
layers = (
{
anchors = (
{
name = top;
position = "{123, 497}";
}
);
layerId = "42DF98DF-AAA4-4B66-9FB7-E08D57D544AF";
paths = (
{
closed = 1;
nodes = (
"71 497 LINE",
"84 438 LINE",
"84 13 LINE SMOOTH",
"84 -59 OFFCURVE",
"84 -150 OFFCURVE",
"11 -188 CURVE",
"25 -228 LINE",
"149 -211 OFFCURVE",
"167 -77 OFFCURVE",
"167 25 CURVE SMOOTH",
"167 497 LINE"
);
}
);
width = 251;
},
{
anchors = (
{
name = top;
position = "{121, 497}";
}
);
layerId = "0AB1FC3A-51B3-4F8E-BD9F-BEF828131012";
paths = (
{
closed = 1;
nodes = (
"53 497 LINE",
"65 444 LINE",
"65 40 LINE SMOOTH",
"65 -36 OFFCURVE",
"65 -128 OFFCURVE",
"-11 -169 CURVE",
"11 -224 LINE",
"166 -206 OFFCURVE",
"185 -63 OFFCURVE",
"185 66 CURVE SMOOTH",
"185 497 LINE"
);
}
);
width = 251;
},
{
anchors = (
{
name = top;
position = "{124, 497}";
}
);
layerId = "49F6B500-2EFC-498D-B6E3-671BF3F335B4";
paths = (
{
closed = 1;
nodes = (
"80 497 LINE",
"94 435 LINE",
"94 -1 LINE SMOOTH",
"94 -71 OFFCURVE",
"94 -162 OFFCURVE",
"23 -198 CURVE",
"32 -230 LINE",
"140 -214 OFFCURVE",
"158 -84 OFFCURVE",
"158 3 CURVE SMOOTH",
"158 497 LINE"
);
}
);
width = 251;
}
);
unicode = 0237;
},
{
glyphname = k;
layers = (
{
anchors = (
{
name = bottom;
position = "{250, 0}";
}
);
layerId = "42DF98DF-AAA4-4B66-9FB7-E08D57D544AF";
paths = (
{
closed = 1;
nodes = (
"68 762 LINE",
"81 703 LINE",
"81 0 LINE",
"164 0 LINE",
"164 270 LINE",
"367 0 LINE",
"466 0 LINE",
"248 288 LINE",
"439 497 LINE",
"350 497 LINE",
"164 292 LINE",
"164 762 LINE"
);
}
);
width = 464;
},
{
anchors = (
{
name = bottom;
position = "{264, 0}";
}
);
layerId = "0AB1FC3A-51B3-4F8E-BD9F-BEF828131012";
paths = (
{
closed = 1;
nodes = (
"55 769 LINE",
"68 715 LINE",
"68 0 LINE",
"191 0 LINE",
"191 255 LINE",
"356 0 LINE",
"491 0 LINE",
"301 287 LINE",
"462 497 LINE",
"345 497 LINE",
"191 292 LINE",
"191 769 LINE"
);
}
);
width = 464;
},
{
anchors = (
{
name = bottom;
position = "{243, 0}";
}
);
layerId = "49F6B500-2EFC-498D-B6E3-671BF3F335B4";
paths = (
{
closed = 1;
nodes = (
"75 758 LINE",
"88 697 LINE",
"88 0 LINE",
"150 0 LINE",
"150 278 LINE",
"373 0 LINE",
"453 0 LINE",
"220 289 LINE",
"427 497 LINE",
"353 497 LINE",
"150 292 LINE",
"150 758 LINE"
);
}
);
width = 464;
}
);
leftKerningGroup = b;
note = k;
rightKerningGroup = k;
unicode = 006B;
},
{
glyphname = kgreenlandic;
layers = (
{
layerId = "42DF98DF-AAA4-4B66-9FB7-E08D57D544AF";
paths = (
{
closed = 1;
nodes = (
"81 497 LINE",
"81 0 LINE",
"164 0 LINE",
"164 240 LINE",
"367 0 LINE",
"466 0 LINE",
"248 261 LINE",
"439 497 LINE",
"350 497 LINE",
"164 262 LINE",
"164 497 LINE"
);
}
);
width = 464;
},
{
layerId = "0AB1FC3A-51B3-4F8E-BD9F-BEF828131012";
paths = (
{
closed = 1;
nodes = (
"68 497 LINE",
"68 0 LINE",
"191 0 LINE",
"191 225 LINE",
"356 0 LINE",
"491 0 LINE",
"301 262 LINE",
"462 497 LINE",
"345 497 LINE",
"191 262 LINE",
"191 497 LINE"
);
}
);
width = 464;
},
{
layerId = "49F6B500-2EFC-498D-B6E3-671BF3F335B4";
paths = (
{
closed = 1;
nodes = (
"88 497 LINE",
"88 0 LINE",
"150 0 LINE",
"150 248 LINE",
"373 0 LINE",
"453 0 LINE",
"220 260 LINE",
"427 497 LINE",
"353 497 LINE",
"150 262 LINE",
"150 497 LINE"
);
}
);
width = 464;
}
);
unicode = 0138;
},
{
glyphname = l;
layers = (
{
anchors = (
{
name = bottom;
position = "{126, 0}";
},
{
name = center;
position = "{126, 371}";
},
{
name = top;
position = "{122, 728}";
},
{
name = topright;
position = "{22, 527}";
}
);
layerId = "42DF98DF-AAA4-4B66-9FB7-E08D57D544AF";
paths = (
{
closed = 1;
nodes = (
"71 762 LINE",
"84 704 LINE",
"84 0 LINE",
"167 0 LINE",
"167 762 LINE"
);
}
);
width = 251;
},
{
anchors = (
{
name = bottom;
position = "{126, 0}";
},
{
name = center;
position = "{126, 371}";
},
{
name = top;
position = "{122, 732}";
},
{
name = topright;
position = "{48, 530}";
}
);
layerId = "0AB1FC3A-51B3-4F8E-BD9F-BEF828131012";
paths = (
{
closed = 1;
nodes = (
"52 769 LINE",
"63 715 LINE",
"63 0 LINE",
"185 0 LINE",
"185 769 LINE"
);
}
);
width = 251;
},
{
anchors = (
{
name = bottom;
position = "{126, 0}";
},
{
name = center;
position = "{126, 371}";
},
{
name = top;
position = "{122, 726}";
},
{
name = topright;
position = "{8, 525}";
}
);
layerId = "49F6B500-2EFC-498D-B6E3-671BF3F335B4";
paths = (
{
closed = 1;
nodes = (
"81 758 LINE",
"95 698 LINE",
"95 0 LINE",
"158 0 LINE",
"158 758 LINE"
);
}
);
width = 251;
}
);
leftKerningGroup = b;
note = l;
unicode = 006C;
},
{
glyphname = lcaron;
layers = (
{
layerId = "42DF98DF-AAA4-4B66-9FB7-E08D57D544AF";
paths = (
{
closed = 1;
nodes = (
"71 762 LINE",
"84 704 LINE",
"84 0 LINE",
"167 0 LINE",
"167 762 LINE"
);
},
{
closed = 1;
nodes = (
"214 611 LINE",
"287 611 LINE",
"336 763 LINE",
"224 763 LINE"
);
}
);
width = 309;
},
{
layerId = "0AB1FC3A-51B3-4F8E-BD9F-BEF828131012";
paths = (
{
closed = 1;
nodes = (
"52 769 LINE",
"63 715 LINE",
"63 0 LINE",
"185 0 LINE",
"185 769 LINE"
);
},
{
closed = 1;
nodes = (
"223 603 LINE",
"321 603 LINE",
"368 768 LINE",
"233 768 LINE"
);
}
);
width = 331;
},
{
layerId = "49F6B500-2EFC-498D-B6E3-671BF3F335B4";
paths = (
{
closed = 1;
nodes = (
"81 758 LINE",
"95 698 LINE",
"95 0 LINE",
"158 0 LINE",
"158 758 LINE"
);
},
{
closed = 1;
nodes = (
"209 615 LINE",
"269 615 LINE",
"319 760 LINE",
"219 760 LINE"
);
}
);
width = 297;
}
);
unicode = 013E;
},
{
glyphname = ldot;
layers = (
{
layerId = "42DF98DF-AAA4-4B66-9FB7-E08D57D544AF";
paths = (
{
closed = 1;
nodes = (
"71 762 LINE",
"84 704 LINE",
"84 0 LINE",
"167 0 LINE",
"167 762 LINE"
);
},
{
closed = 1;
nodes = (
"363 346 OFFCURVE",
"333 377 OFFCURVE",
"297 377 CURVE SMOOTH",
"260 377 OFFCURVE",
"231 347 OFFCURVE",
"231 310 CURVE SMOOTH",
"231 274 OFFCURVE",
"261 245 OFFCURVE",
"297 245 CURVE SMOOTH",
"333 245 OFFCURVE",
"363 274 OFFCURVE",
"363 310 CURVE SMOOTH"
);
}
);
width = 330;
},
{
layerId = "0AB1FC3A-51B3-4F8E-BD9F-BEF828131012";
paths = (
{
closed = 1;
nodes = (
"52 769 LINE",
"63 715 LINE",
"63 0 LINE",
"185 0 LINE",
"185 769 LINE"
);
},
{
closed = 1;
nodes = (
"382 349 OFFCURVE",
"348 383 OFFCURVE",
"306 383 CURVE SMOOTH",
"265 383 OFFCURVE",
"231 349 OFFCURVE",
"231 307 CURVE SMOOTH",
"231 266 OFFCURVE",
"265 232 OFFCURVE",
"307 232 CURVE SMOOTH",
"348 232 OFFCURVE",
"382 266 OFFCURVE",
"382 308 CURVE SMOOTH"
);
}
);
width = 365;
},
{
layerId = "49F6B500-2EFC-498D-B6E3-671BF3F335B4";
paths = (
{
closed = 1;
nodes = (
"81 758 LINE",
"95 698 LINE",
"95 0 LINE",
"158 0 LINE",
"158 758 LINE"
);
},
{
closed = 1;
nodes = (
"353 344 OFFCURVE",
"325 374 OFFCURVE",
"292 374 CURVE SMOOTH",
"257 374 OFFCURVE",
"231 346 OFFCURVE",
"231 312 CURVE SMOOTH",
"231 278 OFFCURVE",
"259 252 OFFCURVE",
"292 252 CURVE SMOOTH",
"325 252 OFFCURVE",
"353 278 OFFCURVE",
"353 311 CURVE SMOOTH"
);
}
);
width = 312;
}
);
unicode = 0140;
},
{
glyphname = m;
layers = (
{
layerId = "42DF98DF-AAA4-4B66-9FB7-E08D57D544AF";
paths = (
{
closed = 1;
nodes = (
"48 494 LINE",
"70 458 OFFCURVE",
"80 402 OFFCURVE",
"80 361 CURVE SMOOTH",
"80 0 LINE",
"163 0 LINE",
"163 369 LINE",
"194 397 OFFCURVE",
"245 435 OFFCURVE",
"289 435 CURVE SMOOTH",
"367 435 OFFCURVE",
"372 366 OFFCURVE",
"372 305 CURVE SMOOTH",
"372 0 LINE",
"455 0 LINE",
"455 367 LINE",
"486 398 OFFCURVE",
"534 435 OFFCURVE",
"581 435 CURVE SMOOTH",
"658 435 OFFCURVE",
"664 365 OFFCURVE",
"664 305 CURVE SMOOTH",
"664 0 LINE",
"747 0 LINE",
"747 332 LINE SMOOTH",
"747 435 OFFCURVE",
"705 509 OFFCURVE",
"595 509 CURVE SMOOTH",
"537 509 OFFCURVE",
"480 466 OFFCURVE",
"440 426 CURVE",
"412 484 OFFCURVE",
"367 509 OFFCURVE",
"303 509 CURVE SMOOTH",
"250 509 OFFCURVE",
"194 470 OFFCURVE",
"158 435 CURVE",
"155 458 OFFCURVE",
"148 483 OFFCURVE",
"139 504 CURVE"
);
}
);
width = 829;
},
{
layerId = "0AB1FC3A-51B3-4F8E-BD9F-BEF828131012";
paths = (
{
closed = 1;
nodes = (
"44 493 LINE",
"68 464 OFFCURVE",
"75 391 OFFCURVE",
"75 356 CURVE SMOOTH",
"75 0 LINE",
"195 0 LINE",
"195 361 LINE",
"219 387 OFFCURVE",
"261 416 OFFCURVE",
"296 416 CURVE SMOOTH",
"347 416 OFFCURVE",
"359 378 OFFCURVE",
"359 335 CURVE SMOOTH",
"359 0 LINE",
"480 0 LINE",
"480 362 LINE",
"503 385 OFFCURVE",
"547 416 OFFCURVE",
"580 416 CURVE SMOOTH",
"635 416 OFFCURVE",
"646 381 OFFCURVE",
"646 332 CURVE SMOOTH",
"646 0 LINE",
"766 0 LINE",
"766 339 LINE SMOOTH",
"766 437 OFFCURVE",
"736 510 OFFCURVE",
"626 510 CURVE SMOOTH",
"562 510 OFFCURVE",
"509 482 OFFCURVE",
"464 437 CURVE",
"442 489 OFFCURVE",
"395 510 OFFCURVE",
"340 510 CURVE SMOOTH",
"276 510 OFFCURVE",
"233 484 OFFCURVE",
"187 444 CURVE",
"184 465 OFFCURVE",
"179 488 OFFCURVE",
"170 508 CURVE"
);
}
);
width = 829;
},
{
layerId = "49F6B500-2EFC-498D-B6E3-671BF3F335B4";
paths = (
{
closed = 1;
nodes = (
"50 495 LINE",
"71 455 OFFCURVE",
"83 408 OFFCURVE",
"83 364 CURVE SMOOTH",
"83 0 LINE",
"146 0 LINE",
"146 373 LINE",
"181 402 OFFCURVE",
"237 445 OFFCURVE",
"285 445 CURVE SMOOTH",
"378 445 OFFCURVE",
"379 360 OFFCURVE",
"379 289 CURVE SMOOTH",
"379 0 LINE",
"442 0 LINE",
"442 370 LINE",
"477 405 OFFCURVE",
"527 445 OFFCURVE",
"582 445 CURVE SMOOTH",
"670 445 OFFCURVE",
"673 357 OFFCURVE",
"673 291 CURVE SMOOTH",
"673 0 LINE",
"737 0 LINE",
"737 328 LINE SMOOTH",
"737 434 OFFCURVE",
"689 508 OFFCURVE",
"579 508 CURVE SMOOTH",
"524 508 OFFCURVE",
"465 458 OFFCURVE",
"427 420 CURVE",
"396 481 OFFCURVE",
"352 508 OFFCURVE",
"284 508 CURVE SMOOTH",
"236 508 OFFCURVE",
"173 463 OFFCURVE",
"143 430 CURVE",
"140 454 OFFCURVE",
"132 480 OFFCURVE",
"123 502 CURVE"
);
}
);
width = 829;
}
);
leftKerningGroup = m;
note = m;
rightKerningGroup = h;
unicode = 006D;
},
{
glyphname = n;
layers = (
{
anchors = (
{
name = bottom;
position = "{273, 0}";
},
{
name = top;
position = "{281, 497}";
},
{
name = topright;
position = "{84, 497}";
}
);
layerId = "42DF98DF-AAA4-4B66-9FB7-E08D57D544AF";
paths = (
{
closed = 1;
nodes = (
"47 493 LINE",
"72 459 OFFCURVE",
"80 392 OFFCURVE",
"80 352 CURVE SMOOTH",
"80 0 LINE",
"162 0 LINE",
"162 369 LINE",
"197 402 OFFCURVE",
"249 435 OFFCURVE",
"298 435 CURVE SMOOTH",
"378 435 OFFCURVE",
"382 367 OFFCURVE",
"382 305 CURVE SMOOTH",
"382 0 LINE",
"464 0 LINE",
"464 332 LINE SMOOTH",
"464 435 OFFCURVE",
"422 509 OFFCURVE",
"312 509 CURVE SMOOTH",
"254 509 OFFCURVE",
"197 474 OFFCURVE",
"157 434 CURVE",
"154 458 OFFCURVE",
"147 482 OFFCURVE",
"138 505 CURVE"
);
}
);
width = 547;
},
{
anchors = (
{
name = bottom;
position = "{279, 0}";
},
{
name = top;
position = "{282, 497}";
},
{
name = topright;
position = "{90, 497}";
}
);
layerId = "0AB1FC3A-51B3-4F8E-BD9F-BEF828131012";
paths = (
{
closed = 1;
nodes = (
"43 493 LINE",
"67 464 OFFCURVE",
"74 391 OFFCURVE",
"74 356 CURVE SMOOTH",
"74 0 LINE",
"194 0 LINE",
"194 361 LINE",
"215 384 OFFCURVE",
"272 416 OFFCURVE",
"302 416 CURVE SMOOTH",
"360 416 OFFCURVE",
"365 370 OFFCURVE",
"365 324 CURVE SMOOTH",
"365 0 LINE",
"486 0 LINE",
"486 336 LINE SMOOTH",
"486 440 OFFCURVE",
"453 511 OFFCURVE",
"338 511 CURVE SMOOTH",
"283 511 OFFCURVE",
"226 480 OFFCURVE",
"186 444 CURVE",
"183 465 OFFCURVE",
"178 488 OFFCURVE",
"169 508 CURVE"
);
}
);
width = 547;
},
{
anchors = (
{
name = bottom;
position = "{270, 0}";
},
{
name = top;
position = "{280, 497}";
},
{
name = topright;
position = "{81, 497}";
}
);
layerId = "49F6B500-2EFC-498D-B6E3-671BF3F335B4";
paths = (
{
closed = 1;
nodes = (
"49 493 LINE",
"75 456 OFFCURVE",
"83 393 OFFCURVE",
"83 350 CURVE SMOOTH",
"83 0 LINE",
"145 0 LINE",
"145 373 LINE",
"188 411 OFFCURVE",
"237 445 OFFCURVE",
"296 445 CURVE SMOOTH",
"387 445 OFFCURVE",
"391 365 OFFCURVE",
"391 295 CURVE SMOOTH",
"391 0 LINE",
"452 0 LINE",
"452 330 LINE SMOOTH",
"452 432 OFFCURVE",
"406 508 OFFCURVE",
"298 508 CURVE SMOOTH",
"239 508 OFFCURVE",
"182 471 OFFCURVE",
"142 429 CURVE",
"139 454 OFFCURVE",
"131 479 OFFCURVE",
"122 503 CURVE"
);
}
);
width = 547;
}
);
leftKerningGroup = m;
note = n;
rightKerningGroup = h;
unicode = 006E;
},
{
glyphname = eng;
layers = (
{
layerId = "42DF98DF-AAA4-4B66-9FB7-E08D57D544AF";
paths = (
{
closed = 1;
nodes = (
"72 459 OFFCURVE",
"80 392 OFFCURVE",
"80 352 CURVE SMOOTH",
"80 0 LINE",
"162 0 LINE",
"162 369 LINE",
"197 402 OFFCURVE",
"249 435 OFFCURVE",
"298 435 CURVE SMOOTH",
"378 435 OFFCURVE",
"382 368 OFFCURVE",
"382 306 CURVE SMOOTH",
"382 13 LINE SMOOTH",
"382 -59 OFFCURVE",
"381 -150 OFFCURVE",
"308 -188 CURVE",
"322 -228 LINE",
"446 -211 OFFCURVE",
"464 -77 OFFCURVE",
"464 25 CURVE SMOOTH",
"464 332 LINE SMOOTH",
"464 435 OFFCURVE",
"422 509 OFFCURVE",
"312 509 CURVE SMOOTH",
"254 509 OFFCURVE",
"197 474 OFFCURVE",
"157 434 CURVE",
"154 458 OFFCURVE",
"147 482 OFFCURVE",
"138 505 CURVE",
"47 493 LINE"
);
}
);
width = 547;
},
{
layerId = "0AB1FC3A-51B3-4F8E-BD9F-BEF828131012";
paths = (
{
closed = 1;
nodes = (
"67 464 OFFCURVE",
"74 391 OFFCURVE",
"74 356 CURVE SMOOTH",
"74 0 LINE",
"194 0 LINE",
"194 361 LINE",
"215 384 OFFCURVE",
"272 416 OFFCURVE",
"302 416 CURVE SMOOTH",
"360 416 OFFCURVE",
"365 370 OFFCURVE",
"365 324 CURVE SMOOTH",
"365 40 LINE SMOOTH",
"365 -36 OFFCURVE",
"366 -128 OFFCURVE",
"290 -169 CURVE",
"312 -224 LINE",
"467 -206 OFFCURVE",
"486 -63 OFFCURVE",
"486 66 CURVE SMOOTH",
"486 336 LINE SMOOTH",
"486 440 OFFCURVE",
"453 511 OFFCURVE",
"338 511 CURVE SMOOTH",
"283 511 OFFCURVE",
"226 480 OFFCURVE",
"186 444 CURVE",
"183 465 OFFCURVE",
"178 488 OFFCURVE",
"169 508 CURVE",
"43 493 LINE"
);
}
);
width = 547;
},
{
layerId = "49F6B500-2EFC-498D-B6E3-671BF3F335B4";
paths = (
{
closed = 1;
nodes = (
"75 456 OFFCURVE",
"83 393 OFFCURVE",
"83 350 CURVE SMOOTH",
"83 0 LINE",
"145 0 LINE",
"145 373 LINE",
"188 411 OFFCURVE",
"237 445 OFFCURVE",
"296 445 CURVE SMOOTH",
"387 445 OFFCURVE",
"391 367 OFFCURVE",
"391 297 CURVE SMOOTH",
"391 -1 LINE SMOOTH",
"391 -71 OFFCURVE",
"389 -162 OFFCURVE",
"317 -198 CURVE",
"327 -230 LINE",
"435 -214 OFFCURVE",
"452 -84 OFFCURVE",
"452 3 CURVE SMOOTH",
"452 330 LINE SMOOTH",
"452 432 OFFCURVE",
"406 508 OFFCURVE",
"298 508 CURVE SMOOTH",
"239 508 OFFCURVE",
"182 471 OFFCURVE",
"142 429 CURVE",
"139 454 OFFCURVE",
"131 479 OFFCURVE",
"122 503 CURVE",
"49 493 LINE"
);
}
);
width = 547;
}
);
unicode = 014B;
},
{
glyphname = nhookleft;
layers = (
{
layerId = "42DF98DF-AAA4-4B66-9FB7-E08D57D544AF";
paths = (
{
closed = 1;
nodes = (
"25 -228 LINE",
"149 -211 OFFCURVE",
"166 -77 OFFCURVE",
"166 25 CURVE SMOOTH",
"166 369 LINE",
"201 402 OFFCURVE",
"253 435 OFFCURVE",
"302 435 CURVE SMOOTH",
"382 435 OFFCURVE",
"386 367 OFFCURVE",
"386 305 CURVE SMOOTH",
"386 0 LINE",
"468 0 LINE",
"468 332 LINE SMOOTH",
"468 435 OFFCURVE",
"426 509 OFFCURVE",
"316 509 CURVE SMOOTH",
"258 509 OFFCURVE",
"201 474 OFFCURVE",
"161 434 CURVE",
"158 458 OFFCURVE",
"151 482 OFFCURVE",
"142 505 CURVE",
"51 493 LINE",
"76 459 OFFCURVE",
"84 392 OFFCURVE",
"84 352 CURVE SMOOTH",
"84 13 LINE SMOOTH",
"84 -59 OFFCURVE",
"84 -150 OFFCURVE",
"11 -188 CURVE"
);
}
);
width = 551;
},
{
layerId = "0AB1FC3A-51B3-4F8E-BD9F-BEF828131012";
paths = (
{
closed = 1;
nodes = (
"11 -224 LINE",
"166 -206 OFFCURVE",
"185 -63 OFFCURVE",
"185 66 CURVE SMOOTH",
"185 361 LINE",
"206 384 OFFCURVE",
"263 416 OFFCURVE",
"293 416 CURVE SMOOTH",
"351 416 OFFCURVE",
"356 370 OFFCURVE",
"356 324 CURVE SMOOTH",
"356 0 LINE",
"477 0 LINE",
"477 336 LINE SMOOTH",
"477 440 OFFCURVE",
"444 511 OFFCURVE",
"329 511 CURVE SMOOTH",
"274 511 OFFCURVE",
"217 480 OFFCURVE",
"177 444 CURVE",
"174 465 OFFCURVE",
"169 488 OFFCURVE",
"160 508 CURVE",
"34 493 LINE",
"58 464 OFFCURVE",
"65 391 OFFCURVE",
"65 356 CURVE SMOOTH",
"65 40 LINE SMOOTH",
"65 -36 OFFCURVE",
"65 -128 OFFCURVE",
"-11 -169 CURVE"
);
}
);
width = 538;
},
{
layerId = "49F6B500-2EFC-498D-B6E3-671BF3F335B4";
paths = (
{
closed = 1;
nodes = (
"32 -230 LINE",
"140 -214 OFFCURVE",
"156 -84 OFFCURVE",
"156 3 CURVE SMOOTH",
"156 373 LINE",
"198 411 OFFCURVE",
"248 445 OFFCURVE",
"307 445 CURVE SMOOTH",
"398 445 OFFCURVE",
"402 365 OFFCURVE",
"402 295 CURVE SMOOTH",
"402 0 LINE",
"463 0 LINE",
"463 330 LINE SMOOTH",
"463 432 OFFCURVE",
"417 508 OFFCURVE",
"309 508 CURVE SMOOTH",
"250 508 OFFCURVE",
"193 471 OFFCURVE",
"153 429 CURVE",
"150 454 OFFCURVE",
"142 479 OFFCURVE",
"133 503 CURVE",
"60 493 LINE",
"85 456 OFFCURVE",
"94 393 OFFCURVE",
"94 350 CURVE SMOOTH",
"94 -1 LINE SMOOTH",
"94 -71 OFFCURVE",
"94 -162 OFFCURVE",
"23 -198 CURVE"
);
}
);
width = 558;
}
);
leftMetricsKey = j;
unicode = 0272;
},
{
glyphname = o;
layers = (
{
anchors = (
{
name = bottom;
position = "{267, 0}";
},
{
name = center;
position = "{265, 252}";
},
{
name = ogonek;
position = "{316, 0}";
},
{
name = top;
position = "{265, 497}";
},
{
name = topright;
position = "{293, 497}";
}
);
layerId = "42DF98DF-AAA4-4B66-9FB7-E08D57D544AF";
paths = (
{
closed = 1;
nodes = (
"413 -13 OFFCURVE",
"493 115 OFFCURVE",
"493 251 CURVE SMOOTH",
"493 387 OFFCURVE",
"419 509 OFFCURVE",
"271 509 CURVE SMOOTH",
"126 509 OFFCURVE",
"44 379 OFFCURVE",
"44 245 CURVE SMOOTH",
"44 110 OFFCURVE",
"118 -13 OFFCURVE",
"265 -13 CURVE SMOOTH"
);
},
{
closed = 1;
nodes = (
"166 50 OFFCURVE",
"132 166 OFFCURVE",
"132 248 CURVE SMOOTH",
"132 333 OFFCURVE",
"167 446 OFFCURVE",
"270 446 CURVE SMOOTH",
"375 446 OFFCURVE",
"405 335 OFFCURVE",
"405 248 CURVE SMOOTH",
"405 163 OFFCURVE",
"370 50 OFFCURVE",
"266 50 CURVE SMOOTH"
);
}
);
width = 537;
},
{
anchors = (
{
name = bottom;
position = "{270, 0}";
},
{
name = center;
position = "{268, 252}";
},
{
name = ogonek;
position = "{300, 0}";
},
{
name = top;
position = "{268, 497}";
},
{
name = topright;
position = "{296, 497}";
}
);
layerId = "0AB1FC3A-51B3-4F8E-BD9F-BEF828131012";
paths = (
{
closed = 1;
nodes = (
"416 -12 OFFCURVE",
"510 108 OFFCURVE",
"510 252 CURVE SMOOTH",
"510 396 OFFCURVE",
"422 510 OFFCURVE",
"271 510 CURVE SMOOTH",
"122 510 OFFCURVE",
"26 389 OFFCURVE",
"26 246 CURVE SMOOTH",
"26 102 OFFCURVE",
"114 -12 OFFCURVE",
"265 -12 CURVE SMOOTH"
);
},
{
closed = 1;
nodes = (
"173 68 OFFCURVE",
"158 176 OFFCURVE",
"158 248 CURVE SMOOTH",
"158 318 OFFCURVE",
"179 428 OFFCURVE",
"270 428 CURVE SMOOTH",
"366 428 OFFCURVE",
"378 323 OFFCURVE",
"378 248 CURVE SMOOTH",
"378 175 OFFCURVE",
"360 68 OFFCURVE",
"266 68 CURVE SMOOTH"
);
}
);
width = 536;
},
{
anchors = (
{
name = bottom;
position = "{265, 0}";
},
{
name = center;
position = "{263, 252}";
},
{
name = ogonek;
position = "{324, 0}";
},
{
name = top;
position = "{263, 497}";
},
{
name = topright;
position = "{291, 497}";
}
);
layerId = "49F6B500-2EFC-498D-B6E3-671BF3F335B4";
paths = (
{
closed = 1;
nodes = (
"411 -14 OFFCURVE",
"484 119 OFFCURVE",
"484 250 CURVE SMOOTH",
"484 382 OFFCURVE",
"417 508 OFFCURVE",
"271 508 CURVE SMOOTH",
"128 508 OFFCURVE",
"53 374 OFFCURVE",
"53 244 CURVE SMOOTH",
"53 114 OFFCURVE",
"120 -14 OFFCURVE",
"265 -14 CURVE SMOOTH"
);
},
{
closed = 1;
nodes = (
"162 41 OFFCURVE",
"118 161 OFFCURVE",
"118 248 CURVE SMOOTH",
"118 341 OFFCURVE",
"161 455 OFFCURVE",
"270 455 CURVE SMOOTH",
"380 455 OFFCURVE",
"419 341 OFFCURVE",
"419 248 CURVE SMOOTH",
"419 157 OFFCURVE",
"375 41 OFFCURVE",
"266 41 CURVE SMOOTH"
);
}
);
width = 538;
}
);
leftKerningGroup = c;
note = o;
rightKerningGroup = b;
unicode = 006F;
},
{
glyphname = oe;
layers = (
{
layerId = "42DF98DF-AAA4-4B66-9FB7-E08D57D544AF";
paths = (
{
closed = 1;
nodes = (
"44 113 OFFCURVE",
"121 -13 OFFCURVE",
"268 -13 CURVE SMOOTH",
"351 -13 OFFCURVE",
"411 26 OFFCURVE",
"449 85 CURVE",
"486 27 OFFCURVE",
"548 -13 OFFCURVE",
"636 -13 CURVE SMOOTH",
"696 -13 OFFCURVE",
"757 5 OFFCURVE",
"804 43 CURVE",
"767 103 LINE",
"734 75 OFFCURVE",
"681 57 OFFCURVE",
"638 57 CURVE SMOOTH",
"555 57 OFFCURVE",
"493 136 OFFCURVE",
"493 256 CURVE",
"809 256 LINE",
"812 277 OFFCURVE",
"814 296 OFFCURVE",
"814 315 CURVE SMOOTH",
"814 431 OFFCURVE",
"751 509 OFFCURVE",
"631 509 CURVE SMOOTH",
"548 509 OFFCURVE",
"487 468 OFFCURVE",
"450 409 CURVE",
"413 469 OFFCURVE",
"352 509 OFFCURVE",
"268 509 CURVE SMOOTH",
"123 509 OFFCURVE",
"44 382 OFFCURVE",
"44 248 CURVE SMOOTH"
);
},
{
closed = 1;
nodes = (
"132 333 OFFCURVE",
"165 446 OFFCURVE",
"268 446 CURVE SMOOTH",
"370 446 OFFCURVE",
"405 332 OFFCURVE",
"405 248 CURVE SMOOTH",
"405 163 OFFCURVE",
"372 50 OFFCURVE",
"268 50 CURVE SMOOTH",
"171 50 OFFCURVE",
"132 169 OFFCURVE",
"132 248 CURVE SMOOTH"
);
},
{
closed = 1;
nodes = (
"510 380 OFFCURVE",
"555 446 OFFCURVE",
"623 446 CURVE SMOOTH",
"689 446 OFFCURVE",
"729 401 OFFCURVE",
"727 318 CURVE",
"499 318 LINE"
);
}
);
width = 855;
},
{
layerId = "0AB1FC3A-51B3-4F8E-BD9F-BEF828131012";
paths = (
{
closed = 1;
nodes = (
"26 105 OFFCURVE",
"117 -12 OFFCURVE",
"268 -12 CURVE SMOOTH",
"342 -12 OFFCURVE",
"401 16 OFFCURVE",
"443 61 CURVE",
"486 15 OFFCURVE",
"549 -11 OFFCURVE",
"628 -11 CURVE SMOOTH",
"683 -11 OFFCURVE",
"761 5 OFFCURVE",
"806 42 CURVE",
"755 122 LINE",
"725 92 OFFCURVE",
"676 69 OFFCURVE",
"634 69 CURVE SMOOTH",
"546 69 OFFCURVE",
"505 158 OFFCURVE",
"505 234 CURVE",
"809 234 LINE",
"815 256 OFFCURVE",
"818 280 OFFCURVE",
"818 302 CURVE SMOOTH",
"818 409 OFFCURVE",
"755 511 OFFCURVE",
"617 511 CURVE SMOOTH",
"544 511 OFFCURVE",
"486 481 OFFCURVE",
"445 435 CURVE",
"403 481 OFFCURVE",
"343 510 OFFCURVE",
"268 510 CURVE SMOOTH",
"119 510 OFFCURVE",
"26 392 OFFCURVE",
"26 249 CURVE SMOOTH"
);
},
{
closed = 1;
nodes = (
"158 318 OFFCURVE",
"177 428 OFFCURVE",
"268 428 CURVE SMOOTH",
"362 428 OFFCURVE",
"378 321 OFFCURVE",
"378 248 CURVE SMOOTH",
"378 175 OFFCURVE",
"362 68 OFFCURVE",
"268 68 CURVE SMOOTH",
"177 68 OFFCURVE",
"158 178 OFFCURVE",
"158 248 CURVE SMOOTH"
);
},
{
closed = 1;
nodes = (
"511 365 OFFCURVE",
"546 429 OFFCURVE",
"612 429 CURVE SMOOTH",
"672 429 OFFCURVE",
"699 376 OFFCURVE",
"693 313 CURVE",
"508 313 LINE"
);
}
);
width = 846;
},
{
layerId = "49F6B500-2EFC-498D-B6E3-671BF3F335B4";
paths = (
{
closed = 1;
nodes = (
"53 117 OFFCURVE",
"123 -14 OFFCURVE",
"268 -14 CURVE SMOOTH",
"356 -14 OFFCURVE",
"416 31 OFFCURVE",
"452 98 CURVE",
"486 33 OFFCURVE",
"547 -14 OFFCURVE",
"640 -14 CURVE SMOOTH",
"703 -14 OFFCURVE",
"755 5 OFFCURVE",
"803 44 CURVE",
"773 93 LINE",
"739 66 OFFCURVE",
"684 51 OFFCURVE",
"640 51 CURVE SMOOTH",
"560 51 OFFCURVE",
"487 124 OFFCURVE",
"487 268 CURVE",
"809 268 LINE",
"810 288 OFFCURVE",
"812 304 OFFCURVE",
"812 322 CURVE SMOOTH",
"812 443 OFFCURVE",
"749 508 OFFCURVE",
"638 508 CURVE SMOOTH",
"550 508 OFFCURVE",
"488 461 OFFCURVE",
"453 395 CURVE",
"418 463 OFFCURVE",
"357 508 OFFCURVE",
"268 508 CURVE SMOOTH",
"125 508 OFFCURVE",
"53 377 OFFCURVE",
"53 247 CURVE SMOOTH"
);
},
{
closed = 1;
nodes = (
"118 341 OFFCURVE",
"159 455 OFFCURVE",
"268 455 CURVE SMOOTH",
"374 455 OFFCURVE",
"419 338 OFFCURVE",
"419 248 CURVE SMOOTH",
"419 157 OFFCURVE",
"377 41 OFFCURVE",
"268 41 CURVE SMOOTH",
"168 41 OFFCURVE",
"118 164 OFFCURVE",
"118 248 CURVE SMOOTH"
);
},
{
closed = 1;
nodes = (
"509 388 OFFCURVE",
"560 455 OFFCURVE",
"629 455 CURVE SMOOTH",
"698 455 OFFCURVE",
"745 414 OFFCURVE",
"745 321 CURVE",
"494 321 LINE"
);
}
);
width = 860;
}
);
leftKerningGroup = c;
leftMetricsKey = o;
note = oe;
rightMetricsKey = e;
unicode = 0153;
},
{
glyphname = p;
layers = (
{
layerId = "42DF98DF-AAA4-4B66-9FB7-E08D57D544AF";
paths = (
{
closed = 1;
nodes = (
"50 493 LINE",
"73 457 OFFCURVE",
"81 393 OFFCURVE",
"81 352 CURVE SMOOTH",
"81 -216 LINE",
"177 -216 LINE",
"163 -157 LINE",
"163 -18 LINE SMOOTH",
"163 -7 OFFCURVE",
"163 13 OFFCURVE",
"161 32 CURVE",
"194 1 OFFCURVE",
"242 -13 OFFCURVE",
"287 -13 CURVE SMOOTH",
"437 -13 OFFCURVE",
"510 114 OFFCURVE",
"510 251 CURVE SMOOTH",
"510 376 OFFCURVE",
"444 508 OFFCURVE",
"303 508 CURVE SMOOTH",
"246 508 OFFCURVE",
"192 480 OFFCURVE",
"157 436 CURVE",
"154 459 OFFCURVE",
"148 482 OFFCURVE",
"138 504 CURVE"
);
},
{
closed = 1;
nodes = (
"384 435 OFFCURVE",
"422 337 OFFCURVE",
"422 245 CURVE SMOOTH",
"422 157 OFFCURVE",
"390 55 OFFCURVE",
"285 55 CURVE SMOOTH",
"198 55 OFFCURVE",
"163 122 OFFCURVE",
"163 201 CURVE SMOOTH",
"163 369 LINE",
"191 402 OFFCURVE",
"232 435 OFFCURVE",
"278 435 CURVE SMOOTH"
);
}
);
width = 556;
},
{
layerId = "0AB1FC3A-51B3-4F8E-BD9F-BEF828131012";
paths = (
{
closed = 1;
nodes = (
"38 493 LINE",
"60 461 OFFCURVE",
"67 394 OFFCURVE",
"67 357 CURVE SMOOTH",
"67 -217 LINE",
"202 -217 LINE",
"188 -162 LINE",
"188 -36 LINE SMOOTH",
"188 -21 OFFCURVE",
"188 3 OFFCURVE",
"186 22 CURVE",
"214 0 OFFCURVE",
"263 -10 OFFCURVE",
"297 -10 CURVE SMOOTH",
"451 -10 OFFCURVE",
"530 110 OFFCURVE",
"530 254 CURVE SMOOTH",
"530 383 OFFCURVE",
"459 511 OFFCURVE",
"316 511 CURVE SMOOTH",
"269 511 OFFCURVE",
"207 488 OFFCURVE",
"178 448 CURVE",
"175 468 OFFCURVE",
"170 489 OFFCURVE",
"163 508 CURVE"
);
},
{
closed = 1;
nodes = (
"372 422 OFFCURVE",
"399 321 OFFCURVE",
"399 249 CURVE SMOOTH",
"399 180 OFFCURVE",
"375 75 OFFCURVE",
"287 75 CURVE SMOOTH",
"210 75 OFFCURVE",
"188 141 OFFCURVE",
"188 207 CURVE SMOOTH",
"188 370 LINE",
"208 400 OFFCURVE",
"247 422 OFFCURVE",
"283 422 CURVE SMOOTH"
);
}
);
width = 556;
},
{
layerId = "49F6B500-2EFC-498D-B6E3-671BF3F335B4";
paths = (
{
closed = 1;
nodes = (
"56 493 LINE",
"80 455 OFFCURVE",
"88 392 OFFCURVE",
"88 349 CURVE SMOOTH",
"88 -215 LINE",
"164 -215 LINE",
"150 -154 LINE",
"150 -9 LINE SMOOTH",
"150 0 OFFCURVE",
"150 18 OFFCURVE",
"148 37 CURVE",
"183 2 OFFCURVE",
"231 -15 OFFCURVE",
"282 -15 CURVE SMOOTH",
"430 -15 OFFCURVE",
"499 116 OFFCURVE",
"499 249 CURVE SMOOTH",
"499 372 OFFCURVE",
"436 506 OFFCURVE",
"296 506 CURVE SMOOTH",
"234 506 OFFCURVE",
"184 476 OFFCURVE",
"146 430 CURVE",
"143 454 OFFCURVE",
"136 478 OFFCURVE",
"125 502 CURVE"
);
},
{
closed = 1;
nodes = (
"390 442 OFFCURVE",
"434 345 OFFCURVE",
"434 243 CURVE SMOOTH",
"434 145 OFFCURVE",
"398 44 OFFCURVE",
"284 44 CURVE SMOOTH",
"192 44 OFFCURVE",
"150 112 OFFCURVE",
"150 198 CURVE SMOOTH",
"150 368 LINE",
"182 403 OFFCURVE",
"224 442 OFFCURVE",
"275 442 CURVE SMOOTH"
);
}
);
width = 556;
}
);
leftKerningGroup = m;
note = p;
rightKerningGroup = b;
unicode = 0070;
},
{
glyphname = thorn;
layers = (
{
layerId = "42DF98DF-AAA4-4B66-9FB7-E08D57D544AF";
paths = (
{
closed = 1;
nodes = (
"249 508 OFFCURVE",
"198 483 OFFCURVE",
"163 443 CURVE",
"163 762 LINE",
"67 762 LINE",
"80 704 LINE",
"81 -216 LINE",
"177 -216 LINE",
"163 -157 LINE",
"163 -18 LINE SMOOTH",
"163 -7 OFFCURVE",
"163 13 OFFCURVE",
"161 32 CURVE",
"194 1 OFFCURVE",
"242 -13 OFFCURVE",
"287 -13 CURVE SMOOTH",
"437 -13 OFFCURVE",
"510 114 OFFCURVE",
"510 251 CURVE SMOOTH",
"510 376 OFFCURVE",
"444 508 OFFCURVE",
"303 508 CURVE SMOOTH"
);
},
{
closed = 1;
nodes = (
"384 435 OFFCURVE",
"422 337 OFFCURVE",
"422 245 CURVE SMOOTH",
"422 157 OFFCURVE",
"390 55 OFFCURVE",
"285 55 CURVE SMOOTH",
"198 55 OFFCURVE",
"163 122 OFFCURVE",
"163 201 CURVE SMOOTH",
"163 369 LINE",
"191 402 OFFCURVE",
"232 435 OFFCURVE",
"278 435 CURVE SMOOTH"
);
}
);
width = 556;
},
{
layerId = "0AB1FC3A-51B3-4F8E-BD9F-BEF828131012";
paths = (
{
closed = 1;
nodes = (
"274 511 OFFCURVE",
"221 493 OFFCURVE",
"189 461 CURVE",
"189 769 LINE",
"56 769 LINE",
"67 715 LINE",
"67 -217 LINE",
"202 -217 LINE",
"188 -162 LINE",
"188 -36 LINE SMOOTH",
"188 -21 OFFCURVE",
"188 3 OFFCURVE",
"186 22 CURVE",
"214 0 OFFCURVE",
"263 -10 OFFCURVE",
"297 -10 CURVE SMOOTH",
"451 -10 OFFCURVE",
"530 110 OFFCURVE",
"530 254 CURVE SMOOTH",
"530 383 OFFCURVE",
"459 511 OFFCURVE",
"316 511 CURVE SMOOTH"
);
},
{
closed = 1;
nodes = (
"372 422 OFFCURVE",
"399 321 OFFCURVE",
"399 249 CURVE SMOOTH",
"399 180 OFFCURVE",
"375 75 OFFCURVE",
"287 75 CURVE SMOOTH",
"210 75 OFFCURVE",
"188 141 OFFCURVE",
"188 207 CURVE SMOOTH",
"188 370 LINE",
"208 400 OFFCURVE",
"247 422 OFFCURVE",
"283 422 CURVE SMOOTH"
);
}
);
width = 556;
},
{
layerId = "49F6B500-2EFC-498D-B6E3-671BF3F335B4";
paths = (
{
closed = 1;
nodes = (
"236 506 OFFCURVE",
"186 478 OFFCURVE",
"149 434 CURVE",
"149 758 LINE",
"73 758 LINE",
"87 698 LINE",
"88 -215 LINE",
"164 -215 LINE",
"150 -154 LINE",
"150 -9 LINE SMOOTH",
"150 0 OFFCURVE",
"150 18 OFFCURVE",
"148 37 CURVE",
"183 2 OFFCURVE",
"231 -15 OFFCURVE",
"282 -15 CURVE SMOOTH",
"430 -15 OFFCURVE",
"499 116 OFFCURVE",
"499 249 CURVE SMOOTH",
"499 372 OFFCURVE",
"436 506 OFFCURVE",
"296 506 CURVE SMOOTH"
);
},
{
closed = 1;
nodes = (
"390 442 OFFCURVE",
"434 345 OFFCURVE",
"434 243 CURVE SMOOTH",
"434 145 OFFCURVE",
"398 44 OFFCURVE",
"284 44 CURVE SMOOTH",
"192 44 OFFCURVE",
"150 112 OFFCURVE",
"150 198 CURVE SMOOTH",
"150 368 LINE",
"182 403 OFFCURVE",
"224 442 OFFCURVE",
"275 442 CURVE SMOOTH"
);
}
);
width = 556;
}
);
leftKerningGroup = b;
note = thorn;
rightKerningGroup = b;
unicode = 00FE;
},
{
glyphname = q;
layers = (
{
layerId = "42DF98DF-AAA4-4B66-9FB7-E08D57D544AF";
paths = (
{
closed = 1;
nodes = (
"113 509 OFFCURVE",
"44 380 OFFCURVE",
"44 245 CURVE SMOOTH",
"44 122 OFFCURVE",
"112 -12 OFFCURVE",
"251 -12 CURVE SMOOTH",
"309 -12 OFFCURVE",
"352 6 OFFCURVE",
"394 45 CURVE",
"392 21 OFFCURVE",
"391 -4 OFFCURVE",
"391 -28 CURVE SMOOTH",
"391 -216 LINE",
"487 -216 LINE",
"486 -211 OFFCURVE",
"474 -159 OFFCURVE",
"474 -157 CURVE SMOOTH",
"474 428 LINE SMOOTH",
"474 451 OFFCURVE",
"476 474 OFFCURVE",
"477 497 CURVE",
"427 497 LINE",
"409 444 LINE",
"373 488 OFFCURVE",
"318 509 OFFCURVE",
"262 509 CURVE SMOOTH"
);
},
{
closed = 1;
nodes = (
"358 446 OFFCURVE",
"391 380 OFFCURVE",
"391 296 CURVE SMOOTH",
"391 115 LINE",
"363 82 OFFCURVE",
"315 60 OFFCURVE",
"272 60 CURVE SMOOTH",
"170 60 OFFCURVE",
"133 161 OFFCURVE",
"133 248 CURVE SMOOTH",
"133 328 OFFCURVE",
"166 446 OFFCURVE",
"266 446 CURVE SMOOTH"
);
}
);
width = 556;
},
{
layerId = "0AB1FC3A-51B3-4F8E-BD9F-BEF828131012";
paths = (
{
closed = 1;
nodes = (
"111 509 OFFCURVE",
"27 387 OFFCURVE",
"27 246 CURVE SMOOTH",
"27 128 OFFCURVE",
"94 -11 OFFCURVE",
"229 -11 CURVE SMOOTH",
"280 -11 OFFCURVE",
"331 8 OFFCURVE",
"370 41 CURVE",
"370 17 OFFCURVE",
"368 10 OFFCURVE",
"368 -35 CURVE SMOOTH",
"368 -217 LINE",
"502 -217 LINE",
"501 -212 OFFCURVE",
"489 -164 OFFCURVE",
"489 -162 CURVE SMOOTH",
"489 433 LINE SMOOTH",
"489 455 OFFCURVE",
"490 475 OFFCURVE",
"492 497 CURVE",
"430 497 LINE",
"409 441 LINE",
"372 486 OFFCURVE",
"320 509 OFFCURVE",
"261 509 CURVE SMOOTH"
);
},
{
closed = 1;
nodes = (
"342 428 OFFCURVE",
"368 360 OFFCURVE",
"368 293 CURVE SMOOTH",
"368 125 LINE",
"344 97 OFFCURVE",
"307 76 OFFCURVE",
"270 76 CURVE SMOOTH",
"186 76 OFFCURVE",
"157 177 OFFCURVE",
"157 244 CURVE SMOOTH",
"157 321 OFFCURVE",
"179 428 OFFCURVE",
"265 428 CURVE SMOOTH"
);
}
);
width = 556;
},
{
layerId = "49F6B500-2EFC-498D-B6E3-671BF3F335B4";
paths = (
{
closed = 1;
nodes = (
"114 509 OFFCURVE",
"53 376 OFFCURVE",
"53 244 CURVE SMOOTH",
"53 119 OFFCURVE",
"121 -13 OFFCURVE",
"263 -13 CURVE SMOOTH",
"324 -13 OFFCURVE",
"363 5 OFFCURVE",
"407 47 CURVE",
"404 23 OFFCURVE",
"403 -11 OFFCURVE",
"403 -24 CURVE SMOOTH",
"403 -215 LINE",
"479 -215 LINE",
"478 -210 OFFCURVE",
"466 -156 OFFCURVE",
"466 -154 CURVE SMOOTH",
"466 425 LINE SMOOTH",
"466 449 OFFCURVE",
"469 473 OFFCURVE",
"469 497 CURVE",
"425 497 LINE",
"409 446 LINE",
"374 489 OFFCURVE",
"317 509 OFFCURVE",
"263 509 CURVE SMOOTH"
);
},
{
closed = 1;
nodes = (
"366 455 OFFCURVE",
"403 391 OFFCURVE",
"403 298 CURVE SMOOTH",
"403 110 LINE",
"373 74 OFFCURVE",
"319 52 OFFCURVE",
"273 52 CURVE SMOOTH",
"162 52 OFFCURVE",
"120 153 OFFCURVE",
"120 250 CURVE SMOOTH",
"120 332 OFFCURVE",
"159 455 OFFCURVE",
"267 455 CURVE SMOOTH"
);
}
);
width = 556;
}
);
leftKerningGroup = c;
note = q;
unicode = 0071;
},
{
glyphname = r;
layers = (
{
anchors = (
{
name = bottom;
position = "{123, 0}";
},
{
name = top;
position = "{172, 497}";
}
);
layerId = "42DF98DF-AAA4-4B66-9FB7-E08D57D544AF";
paths = (
{
closed = 1;
nodes = (
"49 495 LINE",
"72 461 OFFCURVE",
"81 399 OFFCURVE",
"81 360 CURVE SMOOTH",
"81 0 LINE",
"164 0 LINE",
"164 330 LINE",
"198 380 OFFCURVE",
"241 418 OFFCURVE",
"305 418 CURVE",
"325 506 LINE",
"259 506 OFFCURVE",
"197 467 OFFCURVE",
"162 413 CURVE",
"159 444 OFFCURVE",
"151 477 OFFCURVE",
"139 506 CURVE"
);
}
);
width = 349;
},
{
anchors = (
{
name = bottom;
position = "{129, 0}";
},
{
name = top;
position = "{180, 497}";
}
);
layerId = "0AB1FC3A-51B3-4F8E-BD9F-BEF828131012";
paths = (
{
closed = 1;
nodes = (
"36 497 LINE",
"60 465 OFFCURVE",
"68 401 OFFCURVE",
"68 363 CURVE SMOOTH",
"68 0 LINE",
"188 0 LINE",
"188 296 LINE",
"229 358 OFFCURVE",
"273 388 OFFCURVE",
"332 388 CURVE",
"352 507 LINE",
"285 507 OFFCURVE",
"220 458 OFFCURVE",
"187 402 CURVE",
"186 436 OFFCURVE",
"177 476 OFFCURVE",
"163 507 CURVE"
);
}
);
width = 349;
},
{
anchors = (
{
name = bottom;
position = "{120, 0}";
},
{
name = top;
position = "{168, 497}";
}
);
layerId = "49F6B500-2EFC-498D-B6E3-671BF3F335B4";
paths = (
{
closed = 1;
nodes = (
"56 494 LINE",
"78 459 OFFCURVE",
"88 398 OFFCURVE",
"88 358 CURVE SMOOTH",
"88 0 LINE",
"151 0 LINE",
"151 348 LINE",
"182 392 OFFCURVE",
"224 434 OFFCURVE",
"291 434 CURVE",
"311 505 LINE",
"245 505 OFFCURVE",
"185 472 OFFCURVE",
"149 419 CURVE",
"145 448 OFFCURVE",
"137 478 OFFCURVE",
"126 505 CURVE"
);
}
);
width = 349;
}
);
leftKerningGroup = m;
note = r;
rightKerningGroup = r;
unicode = 0072;
},
{
glyphname = s;
layers = (
{
anchors = (
{
name = bottom;
position = "{225, 0}";
},
{
name = top;
position = "{219, 497}";
}
);
background = {
paths = (
{
closed = 1;
nodes = (
"146 509 OFFCURVE",
"60 463 OFFCURVE",
"60 364 CURVE SMOOTH",
"60 213 OFFCURVE",
"293 231 OFFCURVE",
"293 120 CURVE SMOOTH",
"293 64 OFFCURVE",
"237 50 OFFCURVE",
"192 50 CURVE SMOOTH",
"157 50 OFFCURVE",
"115 70 OFFCURVE",
"86 90 CURVE",
"51 29 LINE",
"102 3 OFFCURVE",
"142 -13 OFFCURVE",
"200 -13 CURVE SMOOTH",
"294 -13 OFFCURVE",
"379 26 OFFCURVE",
"379 132 CURVE SMOOTH",
"379 287 OFFCURVE",
"145 268 OFFCURVE",
"145 378 CURVE SMOOTH",
"145 431 OFFCURVE",
"201 446 OFFCURVE",
"244 446 CURVE SMOOTH",
"275 446 OFFCURVE",
"314 429 OFFCURVE",
"339 410 CURVE",
"368 474 LINE",
"329 498 OFFCURVE",
"281 509 OFFCURVE",
"235 509 CURVE SMOOTH"
);
},
{
closed = 1;
nodes = (
"232 213 OFFCURVE",
"251 232 OFFCURVE",
"251 255 CURVE SMOOTH",
"251 277 OFFCURVE",
"232 296 OFFCURVE",
"210 296 CURVE SMOOTH",
"187 296 OFFCURVE",
"168 277 OFFCURVE",
"168 255 CURVE SMOOTH",
"168 232 OFFCURVE",
"187 213 OFFCURVE",
"210 213 CURVE SMOOTH"
);
}
);
};
layerId = "42DF98DF-AAA4-4B66-9FB7-E08D57D544AF";
paths = (
{
closed = 1;
nodes = (
"151 509 OFFCURVE",
"65 460 OFFCURVE",
"65 364 CURVE SMOOTH",
"65 280 OFFCURVE",
"128 247 OFFCURVE",
"188 218 CURVE SMOOTH",
"240 193 OFFCURVE",
"293 172 OFFCURVE",
"293 122 CURVE SMOOTH",
"293 74 OFFCURVE",
"249 50 OFFCURVE",
"198 50 CURVE SMOOTH",
"160 50 OFFCURVE",
"118 66 OFFCURVE",
"86 90 CURVE",
"51 29 LINE",
"96 2 OFFCURVE",
"152 -13 OFFCURVE",
"205 -13 CURVE SMOOTH",
"297 -13 OFFCURVE",
"379 31 OFFCURVE",
"379 132 CURVE SMOOTH",
"379 227 OFFCURVE",
"299 258 OFFCURVE",
"233 289 CURVE SMOOTH",
"188 310 OFFCURVE",
"150 329 OFFCURVE",
"150 378 CURVE SMOOTH",
"150 423 OFFCURVE",
"193 446 OFFCURVE",
"242 446 CURVE SMOOTH",
"277 446 OFFCURVE",
"315 434 OFFCURVE",
"344 410 CURVE",
"373 474 LINE",
"335 498 OFFCURVE",
"289 509 OFFCURVE",
"244 509 CURVE SMOOTH"
);
}
);
width = 430;
},
{
anchors = (
{
name = bottom;
position = "{223, 0}";
},
{
name = top;
position = "{216, 497}";
}
);
layerId = "0AB1FC3A-51B3-4F8E-BD9F-BEF828131012";
paths = (
{
closed = 1;
nodes = (
"146 510 OFFCURVE",
"48 460 OFFCURVE",
"48 354 CURVE SMOOTH",
"48 260 OFFCURVE",
"117 235 OFFCURVE",
"179 212 CURVE SMOOTH",
"225 195 OFFCURVE",
"263 178 OFFCURVE",
"263 135 CURVE SMOOTH",
"263 91 OFFCURVE",
"228 71 OFFCURVE",
"188 71 CURVE SMOOTH",
"147 71 OFFCURVE",
"109 91 OFFCURVE",
"75 111 CURVE",
"32 29 LINE",
"79 3 OFFCURVE",
"145 -14 OFFCURVE",
"198 -14 CURVE SMOOTH",
"297 -14 OFFCURVE",
"393 48 OFFCURVE",
"393 155 CURVE SMOOTH",
"393 264 OFFCURVE",
"307 287 OFFCURVE",
"243 312 CURVE SMOOTH",
"206 327 OFFCURVE",
"178 342 OFFCURVE",
"178 376 CURVE SMOOTH",
"178 414 OFFCURVE",
"213 429 OFFCURVE",
"246 429 CURVE SMOOTH",
"280 429 OFFCURVE",
"318 416 OFFCURVE",
"345 395 CURVE",
"387 479 LINE",
"345 500 OFFCURVE",
"286 510 OFFCURVE",
"240 510 CURVE SMOOTH"
);
}
);
width = 430;
},
{
anchors = (
{
name = bottom;
position = "{226, 0}";
},
{
name = top;
position = "{221, 497}";
}
);
layerId = "49F6B500-2EFC-498D-B6E3-671BF3F335B4";
paths = (
{
closed = 1;
nodes = (
"154 508 OFFCURVE",
"74 460 OFFCURVE",
"74 369 CURVE SMOOTH",
"74 291 OFFCURVE",
"134 253 OFFCURVE",
"193 221 CURVE SMOOTH",
"248 192 OFFCURVE",
"309 169 OFFCURVE",
"309 115 CURVE SMOOTH",
"309 65 OFFCURVE",
"260 39 OFFCURVE",
"203 39 CURVE SMOOTH",
"167 39 OFFCURVE",
"123 53 OFFCURVE",
"92 79 CURVE",
"61 29 LINE",
"105 1 OFFCURVE",
"156 -12 OFFCURVE",
"209 -12 CURVE SMOOTH",
"297 -12 OFFCURVE",
"372 22 OFFCURVE",
"372 120 CURVE SMOOTH",
"372 208 OFFCURVE",
"295 243 OFFCURVE",
"228 277 CURVE SMOOTH",
"179 301 OFFCURVE",
"135 322 OFFCURVE",
"135 379 CURVE SMOOTH",
"135 428 OFFCURVE",
"182 455 OFFCURVE",
"240 455 CURVE SMOOTH",
"275 455 OFFCURVE",
"313 443 OFFCURVE",
"343 418 CURVE",
"366 471 LINE",
"330 497 OFFCURVE",
"291 508 OFFCURVE",
"246 508 CURVE SMOOTH"
);
}
);
width = 430;
}
);
leftKerningGroup = s;
note = s;
rightKerningGroup = s;
unicode = 0073;
},
{
glyphname = germandbls;
layers = (
{
layerId = "42DF98DF-AAA4-4B66-9FB7-E08D57D544AF";
paths = (
{
closed = 1;
nodes = (
"102 434 LINE",
"102 0 LINE",
"185 0 LINE",
"185 474 LINE SMOOTH",
"185 553 OFFCURVE",
"200 671 OFFCURVE",
"306 671 CURVE SMOOTH",
"362 671 OFFCURVE",
"385 636 OFFCURVE",
"385 602 CURVE SMOOTH",
"385 497 OFFCURVE",
"238 462 OFFCURVE",
"238 357 CURVE SMOOTH",
"238 208 OFFCURVE",
"449 227 OFFCURVE",
"449 122 CURVE SMOOTH",
"449 38 OFFCURVE",
"333 29 OFFCURVE",
"272 90 CURVE",
"237 29 LINE",
"351 -51 OFFCURVE",
"535 -19 OFFCURVE",
"535 132 CURVE SMOOTH",
"535 297 OFFCURVE",
"323 265 OFFCURVE",
"323 373 CURVE SMOOTH",
"323 445 OFFCURVE",
"474 481 OFFCURVE",
"474 620 CURVE SMOOTH",
"474 693 OFFCURVE",
"405 741 OFFCURVE",
"308 741 CURVE SMOOTH",
"197 741 OFFCURVE",
"138 671 OFFCURVE",
"115 568 CURVE SMOOTH",
"102 509 OFFCURVE",
"91 489 OFFCURVE",
"28 489 CURVE",
"28 434 LINE"
);
}
);
width = 552;
},
{
layerId = "0AB1FC3A-51B3-4F8E-BD9F-BEF828131012";
paths = (
{
closed = 1;
nodes = (
"75 416 LINE",
"75 0 LINE",
"198 0 LINE",
"198 465 LINE SMOOTH",
"198 537 OFFCURVE",
"212 648 OFFCURVE",
"307 648 CURVE SMOOTH",
"346 648 OFFCURVE",
"377 623 OFFCURVE",
"377 577 CURVE SMOOTH",
"377 478 OFFCURVE",
"238 467 OFFCURVE",
"238 353 CURVE SMOOTH",
"238 198 OFFCURVE",
"443 238 OFFCURVE",
"443 135 CURVE SMOOTH",
"443 52 OFFCURVE",
"353 58 OFFCURVE",
"274 111 CURVE",
"231 29 LINE",
"378 -58 OFFCURVE",
"573 -8 OFFCURVE",
"573 155 CURVE SMOOTH",
"573 326 OFFCURVE",
"368 287 OFFCURVE",
"368 376 CURVE SMOOTH",
"368 440 OFFCURVE",
"511 475 OFFCURVE",
"511 597 CURVE SMOOTH",
"511 700 OFFCURVE",
"418 745 OFFCURVE",
"311 745 CURVE SMOOTH",
"175 745 OFFCURVE",
"110 660 OFFCURVE",
"82 539 CURVE SMOOTH",
"74 505 OFFCURVE",
"26 502 OFFCURVE",
"0 502 CURVE",
"0 416 LINE"
);
}
);
width = 590;
},
{
layerId = "49F6B500-2EFC-498D-B6E3-671BF3F335B4";
paths = (
{
closed = 1;
nodes = (
"116 443 LINE",
"116 0 LINE",
"178 0 LINE",
"178 479 LINE SMOOTH",
"178 561 OFFCURVE",
"194 683 OFFCURVE",
"305 683 CURVE SMOOTH",
"370 683 OFFCURVE",
"389 643 OFFCURVE",
"389 615 CURVE SMOOTH",
"389 507 OFFCURVE",
"238 459 OFFCURVE",
"238 359 CURVE SMOOTH",
"238 213 OFFCURVE",
"452 221 OFFCURVE",
"452 115 CURVE SMOOTH",
"452 31 OFFCURVE",
"322 14 OFFCURVE",
"271 79 CURVE",
"240 29 LINE",
"337 -47 OFFCURVE",
"515 -25 OFFCURVE",
"515 120 CURVE SMOOTH",
"515 282 OFFCURVE",
"299 253 OFFCURVE",
"299 371 CURVE SMOOTH",
"299 448 OFFCURVE",
"455 484 OFFCURVE",
"455 632 CURVE SMOOTH",
"455 689 OFFCURVE",
"398 739 OFFCURVE",
"306 739 CURVE SMOOTH",
"209 739 OFFCURVE",
"153 677 OFFCURVE",
"132 583 CURVE SMOOTH",
"117 511 OFFCURVE",
"125 482 OFFCURVE",
"43 482 CURVE",
"43 443 LINE"
);
}
);
width = 532;
}
);
leftKerningGroup = f;
note = germandbls;
unicode = 00DF;
},
{
glyphname = longs;
layers = (
{
layerId = "42DF98DF-AAA4-4B66-9FB7-E08D57D544AF";
paths = (
{
closed = 1;
nodes = (
"238 770 OFFCURVE",
"188 743 OFFCURVE",
"155 700 CURVE SMOOTH",
"114 648 OFFCURVE",
"116 619 OFFCURVE",
"97 527 CURVE SMOOTH",
"89 488 OFFCURVE",
"52 490 OFFCURVE",
"20 487 CURVE",
"20 435 LINE",
"95 435 LINE",
"95 0 LINE",
"177 0 LINE",
"177 497 LINE SMOOTH",
"177 585 OFFCURVE",
"188 708 OFFCURVE",
"305 708 CURVE SMOOTH",
"329 708 OFFCURVE",
"359 699 OFFCURVE",
"377 683 CURVE",
"400 745 LINE",
"368 763 OFFCURVE",
"340 770 OFFCURVE",
"303 770 CURVE SMOOTH"
);
}
);
width = 288;
},
{
layerId = "0AB1FC3A-51B3-4F8E-BD9F-BEF828131012";
paths = (
{
closed = 1;
nodes = (
"262 776 OFFCURVE",
"208 762 OFFCURVE",
"172 730 CURVE SMOOTH",
"103 666 OFFCURVE",
"105 616 OFFCURVE",
"87 532 CURVE SMOOTH",
"78 490 OFFCURVE",
"31 488 OFFCURVE",
"3 488 CURVE",
"3 417 LINE",
"85 417 LINE",
"85 -1 LINE",
"205 -1 LINE",
"205 497 LINE SMOOTH",
"205 633 OFFCURVE",
"232 694 OFFCURVE",
"314 694 CURVE SMOOTH",
"334 694 OFFCURVE",
"359 684 OFFCURVE",
"376 672 CURVE",
"408 753 LINE",
"382 769 OFFCURVE",
"339 776 OFFCURVE",
"309 776 CURVE SMOOTH"
);
}
);
width = 288;
},
{
layerId = "49F6B500-2EFC-498D-B6E3-671BF3F335B4";
paths = (
{
closed = 1;
nodes = (
"225 767 OFFCURVE",
"177 733 OFFCURVE",
"146 684 CURVE SMOOTH",
"120 639 OFFCURVE",
"122 621 OFFCURVE",
"102 524 CURVE SMOOTH",
"95 487 OFFCURVE",
"63 491 OFFCURVE",
"29 486 CURVE",
"29 444 LINE",
"100 444 LINE",
"100 1 LINE",
"162 1 LINE",
"162 497 LINE SMOOTH",
"162 560 OFFCURVE",
"165 715 OFFCURVE",
"300 715 CURVE SMOOTH",
"326 715 OFFCURVE",
"359 707 OFFCURVE",
"378 689 CURVE",
"396 741 LINE",
"361 760 OFFCURVE",
"341 767 OFFCURVE",
"300 767 CURVE SMOOTH"
);
}
);
width = 288;
}
);
unicode = 017F;
},
{
glyphname = t;
layers = (
{
anchors = (
{
name = bottom;
position = "{172, 0}";
},
{
name = center;
position = "{138, 264}";
},
{
name = topright;
position = "{61, 497}";
}
);
layerId = "42DF98DF-AAA4-4B66-9FB7-E08D57D544AF";
paths = (
{
closed = 1;
nodes = (
"136 639 LINE",
"124 576 OFFCURVE",
"99 486 OFFCURVE",
"20 484 CURVE",
"20 434 LINE",
"94 434 LINE",
"94 118 LINE SMOOTH",
"94 36 OFFCURVE",
"123 -11 OFFCURVE",
"208 -11 CURVE SMOOTH",
"246 -11 OFFCURVE",
"274 -3 OFFCURVE",
"307 7 CURVE",
"293 63 LINE",
"273 58 OFFCURVE",
"251 53 OFFCURVE",
"230 53 CURVE SMOOTH",
"187 53 OFFCURVE",
"177 77 OFFCURVE",
"177 116 CURVE SMOOTH",
"177 434 LINE",
"290 434 LINE",
"307 497 LINE",
"177 497 LINE",
"179 543 OFFCURVE",
"187 594 OFFCURVE",
"197 639 CURVE"
);
}
);
width = 327;
},
{
anchors = (
{
name = bottom;
position = "{181, 0}";
},
{
name = center;
position = "{147, 264}";
},
{
name = topright;
position = "{70, 497}";
}
);
layerId = "0AB1FC3A-51B3-4F8E-BD9F-BEF828131012";
paths = (
{
closed = 1;
nodes = (
"139 642 LINE",
"124 573 OFFCURVE",
"84 486 OFFCURVE",
"2 484 CURVE",
"2 418 LINE",
"84 418 LINE",
"84 116 LINE SMOOTH",
"84 28 OFFCURVE",
"123 -10 OFFCURVE",
"209 -10 CURVE SMOOTH",
"245 -10 OFFCURVE",
"292 0 OFFCURVE",
"327 11 CURVE",
"313 86 LINE",
"292 81 OFFCURVE",
"270 76 OFFCURVE",
"248 76 CURVE SMOOTH",
"208 76 OFFCURVE",
"206 120 OFFCURVE",
"206 143 CURVE SMOOTH",
"206 418 LINE",
"308 418 LINE",
"327 497 LINE",
"206 497 LINE",
"207 545 OFFCURVE",
"214 595 OFFCURVE",
"224 642 CURVE"
);
}
);
width = 327;
},
{
anchors = (
{
name = bottom;
position = "{167, 0}";
},
{
name = center;
position = "{133, 264}";
},
{
name = topright;
position = "{56, 497}";
}
);
layerId = "49F6B500-2EFC-498D-B6E3-671BF3F335B4";
paths = (
{
closed = 1;
nodes = (
"134 637 LINE",
"124 578 OFFCURVE",
"107 486 OFFCURVE",
"29 484 CURVE",
"29 442 LINE",
"99 442 LINE",
"99 119 LINE SMOOTH",
"99 40 OFFCURVE",
"123 -12 OFFCURVE",
"207 -12 CURVE SMOOTH",
"247 -12 OFFCURVE",
"265 -5 OFFCURVE",
"296 5 CURVE",
"282 51 LINE",
"263 46 OFFCURVE",
"241 41 OFFCURVE",
"221 41 CURVE SMOOTH",
"176 41 OFFCURVE",
"162 54 OFFCURVE",
"162 102 CURVE SMOOTH",
"162 442 LINE",
"281 442 LINE",
"296 497 LINE",
"162 497 LINE",
"164 542 OFFCURVE",
"173 593 OFFCURVE",
"183 637 CURVE"
);
}
);
width = 327;
}
);
leftKerningGroup = t;
note = t;
rightKerningGroup = t;
unicode = 0074;
},
{
glyphname = tbar;
layers = (
{
layerId = "42DF98DF-AAA4-4B66-9FB7-E08D57D544AF";
paths = (
{
closed = 1;
nodes = (
"136 639 LINE",
"124 576 OFFCURVE",
"99 486 OFFCURVE",
"20 484 CURVE",
"20 434 LINE",
"94 434 LINE",
"94 118 LINE SMOOTH",
"94 36 OFFCURVE",
"123 -11 OFFCURVE",
"208 -11 CURVE SMOOTH",
"246 -11 OFFCURVE",
"274 -3 OFFCURVE",
"307 7 CURVE",
"293 63 LINE",
"273 58 OFFCURVE",
"251 53 OFFCURVE",
"230 53 CURVE SMOOTH",
"187 53 OFFCURVE",
"177 77 OFFCURVE",
"177 116 CURVE SMOOTH",
"177 434 LINE",
"290 434 LINE",
"307 497 LINE",
"177 497 LINE",
"179 543 OFFCURVE",
"187 594 OFFCURVE",
"197 639 CURVE"
);
},
{
closed = 1;
nodes = (
"22 232 LINE",
"299 232 LINE",
"299 297 LINE",
"22 297 LINE"
);
}
);
width = 327;
},
{
layerId = "0AB1FC3A-51B3-4F8E-BD9F-BEF828131012";
paths = (
{
closed = 1;
nodes = (
"139 642 LINE",
"124 573 OFFCURVE",
"84 486 OFFCURVE",
"2 484 CURVE",
"2 418 LINE",
"84 418 LINE",
"84 116 LINE SMOOTH",
"84 28 OFFCURVE",
"123 -10 OFFCURVE",
"209 -10 CURVE SMOOTH",
"245 -10 OFFCURVE",
"292 0 OFFCURVE",
"327 11 CURVE",
"313 86 LINE",
"292 81 OFFCURVE",
"270 76 OFFCURVE",
"248 76 CURVE SMOOTH",
"208 76 OFFCURVE",
"206 120 OFFCURVE",
"206 143 CURVE SMOOTH",
"206 418 LINE",
"308 418 LINE",
"327 497 LINE",
"206 497 LINE",
"207 545 OFFCURVE",
"214 595 OFFCURVE",
"224 642 CURVE"
);
},
{
closed = 1;
nodes = (
"3 221 LINE",
"313 221 LINE",
"313 306 LINE",
"3 306 LINE"
);
}
);
width = 327;
},
{
layerId = "49F6B500-2EFC-498D-B6E3-671BF3F335B4";
paths = (
{
closed = 1;
nodes = (
"134 637 LINE",
"124 578 OFFCURVE",
"107 486 OFFCURVE",
"29 484 CURVE",
"29 442 LINE",
"99 442 LINE",
"99 119 LINE SMOOTH",
"99 40 OFFCURVE",
"123 -12 OFFCURVE",
"207 -12 CURVE SMOOTH",
"247 -12 OFFCURVE",
"265 -5 OFFCURVE",
"296 5 CURVE",
"282 51 LINE",
"263 46 OFFCURVE",
"241 41 OFFCURVE",
"221 41 CURVE SMOOTH",
"176 41 OFFCURVE",
"162 54 OFFCURVE",
"162 102 CURVE SMOOTH",
"162 442 LINE",
"281 442 LINE",
"296 497 LINE",
"162 497 LINE",
"164 542 OFFCURVE",
"173 593 OFFCURVE",
"183 637 CURVE"
);
},
{
closed = 1;
nodes = (
"32 238 LINE",
"292 238 LINE",
"292 292 LINE",
"32 292 LINE"
);
}
);
width = 327;
}
);
unicode = 0167;
},
{
glyphname = u;
layers = (
{
anchors = (
{
name = bottom;
position = "{276, 0}";
},
{
name = ogonek;
position = "{474, 0}";
},
{
name = top;
position = "{274, 497}";
},
{
name = topright;
position = "{329, 507}";
}
);
layerId = "42DF98DF-AAA4-4B66-9FB7-E08D57D544AF";
paths = (
{
closed = 1;
nodes = (
"67 497 LINE",
"80 438 LINE",
"80 164 LINE SMOOTH",
"80 61 OFFCURVE",
"122 -13 OFFCURVE",
"232 -13 CURVE SMOOTH",
"289 -13 OFFCURVE",
"346 19 OFFCURVE",
"385 59 CURVE",
"393 8 OFFCURVE",
"422 -9 OFFCURVE",
"457 -9 CURVE SMOOTH",
"486 -9 OFFCURVE",
"521 0 OFFCURVE",
"548 15 CURVE",
"530 69 LINE",
"514 63 OFFCURVE",
"502 60 OFFCURVE",
"492 60 CURVE SMOOTH",
"473 60 OFFCURVE",
"465 72 OFFCURVE",
"465 97 CURVE SMOOTH",
"465 497 LINE",
"369 497 LINE",
"370 492 OFFCURVE",
"382 440 OFFCURVE",
"382 438 CURVE SMOOTH",
"382 188 LINE SMOOTH",
"382 112 OFFCURVE",
"319 61 OFFCURVE",
"246 61 CURVE SMOOTH",
"170 61 OFFCURVE",
"163 132 OFFCURVE",
"163 191 CURVE SMOOTH",
"163 497 LINE"
);
}
);
width = 553;
},
{
anchors = (
{
name = bottom;
position = "{275, 0}";
},
{
name = ogonek;
position = "{493, 5}";
},
{
name = top;
position = "{273, 497}";
},
{
name = topright;
position = "{304, 506}";
}
);
layerId = "0AB1FC3A-51B3-4F8E-BD9F-BEF828131012";
paths = (
{
closed = 1;
nodes = (
"55 497 LINE",
"66 443 LINE",
"66 161 LINE SMOOTH",
"66 57 OFFCURVE",
"100 -14 OFFCURVE",
"215 -14 CURVE SMOOTH",
"277 -14 OFFCURVE",
"336 15 OFFCURVE",
"379 59 CURVE",
"389 9 OFFCURVE",
"426 -8 OFFCURVE",
"468 -8 CURVE SMOOTH",
"504 -8 OFFCURVE",
"543 5 OFFCURVE",
"571 19 CURVE",
"552 87 LINE",
"537 82 OFFCURVE",
"524 79 OFFCURVE",
"514 79 CURVE SMOOTH",
"493 79 OFFCURVE",
"481 92 OFFCURVE",
"481 129 CURVE SMOOTH",
"481 497 LINE",
"347 497 LINE",
"348 492 OFFCURVE",
"359 445 OFFCURVE",
"359 443 CURVE SMOOTH",
"359 179 LINE SMOOTH",
"359 120 OFFCURVE",
"309 82 OFFCURVE",
"253 82 CURVE SMOOTH",
"195 82 OFFCURVE",
"188 136 OFFCURVE",
"188 182 CURVE SMOOTH",
"188 497 LINE"
);
}
);
width = 553;
},
{
anchors = (
{
name = bottom;
position = "{277, 0}";
},
{
name = ogonek;
position = "{464, -3}";
},
{
name = top;
position = "{275, 497}";
},
{
name = topright;
position = "{342, 508}";
}
);
layerId = "49F6B500-2EFC-498D-B6E3-671BF3F335B4";
paths = (
{
closed = 1;
nodes = (
"73 497 LINE",
"87 435 LINE",
"87 166 LINE SMOOTH",
"87 63 OFFCURVE",
"134 -12 OFFCURVE",
"241 -12 CURVE SMOOTH",
"295 -12 OFFCURVE",
"351 21 OFFCURVE",
"388 59 CURVE",
"395 7 OFFCURVE",
"420 -10 OFFCURVE",
"451 -10 CURVE SMOOTH",
"477 -10 OFFCURVE",
"509 -3 OFFCURVE",
"536 13 CURVE",
"518 60 LINE",
"502 53 OFFCURVE",
"490 50 OFFCURVE",
"480 50 CURVE SMOOTH",
"462 50 OFFCURVE",
"457 61 OFFCURVE",
"457 80 CURVE SMOOTH",
"457 497 LINE",
"381 497 LINE",
"382 492 OFFCURVE",
"394 437 OFFCURVE",
"394 435 CURVE SMOOTH",
"394 193 LINE SMOOTH",
"394 108 OFFCURVE",
"324 50 OFFCURVE",
"242 50 CURVE SMOOTH",
"157 50 OFFCURVE",
"150 130 OFFCURVE",
"150 196 CURVE SMOOTH",
"150 497 LINE"
);
}
);
width = 553;
}
);
leftKerningGroup = u;
note = u;
rightKerningGroup = a;
unicode = 0075;
},
{
glyphname = uhorn;
layers = (
{
anchors = (
{
name = bottom;
position = "{276, 0}";
},
{
name = top;
position = "{280, 497}";
}
);
layerId = "42DF98DF-AAA4-4B66-9FB7-E08D57D544AF";
paths = (
{
closed = 1;
nodes = (
"289 -13 OFFCURVE",
"346 19 OFFCURVE",
"385 59 CURVE",
"391 21 OFFCURVE",
"414 -9 OFFCURVE",
"455 -9 CURVE SMOOTH",
"487 -9 OFFCURVE",
"522 10 OFFCURVE",
"551 21 CURVE",
"534 73 LINE",
"529 71 OFFCURVE",
"489 59 OFFCURVE",
"487 59 CURVE SMOOTH",
"468 59 OFFCURVE",
"465 73 OFFCURVE",
"465 97 CURVE SMOOTH",
"465 497 LINE",
"369 497 LINE",
"382 438 LINE",
"382 188 LINE SMOOTH",
"382 112 OFFCURVE",
"319 61 OFFCURVE",
"246 61 CURVE SMOOTH",
"170 61 OFFCURVE",
"163 132 OFFCURVE",
"163 191 CURVE SMOOTH",
"163 497 LINE",
"67 497 LINE",
"80 438 LINE",
"80 164 LINE SMOOTH",
"80 61 OFFCURVE",
"122 -13 OFFCURVE",
"232 -13 CURVE SMOOTH"
);
},
{
closed = 1;
nodes = (
"522 412 OFFCURVE",
"594 518 OFFCURVE",
"590 618 CURVE",
"491 618 LINE",
"499 549 OFFCURVE",
"471 497 OFFCURVE",
"420 497 CURVE",
"381 448 LINE"
);
}
);
width = 553;
},
{
anchors = (
{
name = bottom;
position = "{275, 0}";
},
{
name = top;
position = "{273, 497}";
}
);
layerId = "0AB1FC3A-51B3-4F8E-BD9F-BEF828131012";
paths = (
{
closed = 1;
nodes = (
"277 -14 OFFCURVE",
"336 15 OFFCURVE",
"379 59 CURVE",
"387 20 OFFCURVE",
"416 -8 OFFCURVE",
"457 -8 CURVE SMOOTH",
"495 -8 OFFCURVE",
"537 9 OFFCURVE",
"574 19 CURVE",
"553 92 LINE",
"538 88 OFFCURVE",
"521 80 OFFCURVE",
"506 80 CURVE SMOOTH",
"481 80 OFFCURVE",
"481 115 OFFCURVE",
"481 132 CURVE SMOOTH",
"481 497 LINE",
"347 497 LINE",
"359 443 LINE",
"359 179 LINE SMOOTH",
"359 120 OFFCURVE",
"309 82 OFFCURVE",
"253 82 CURVE SMOOTH",
"195 82 OFFCURVE",
"188 136 OFFCURVE",
"188 182 CURVE SMOOTH",
"188 497 LINE",
"55 497 LINE",
"66 443 LINE",
"66 161 LINE SMOOTH",
"66 57 OFFCURVE",
"100 -14 OFFCURVE",
"215 -14 CURVE SMOOTH"
);
},
{
closed = 1;
nodes = (
"528 407 OFFCURVE",
"582 528 OFFCURVE",
"574 628 CURVE",
"458 628 LINE",
"468 557 OFFCURVE",
"446 496 OFFCURVE",
"394 497 CURVE",
"361 443 LINE"
);
}
);
width = 553;
},
{
anchors = (
{
name = bottom;
position = "{277, 0}";
},
{
name = top;
position = "{284, 497}";
}
);
layerId = "49F6B500-2EFC-498D-B6E3-671BF3F335B4";
paths = (
{
closed = 1;
nodes = (
"295 -12 OFFCURVE",
"351 21 OFFCURVE",
"388 59 CURVE",
"393 22 OFFCURVE",
"413 -10 OFFCURVE",
"454 -10 CURVE SMOOTH",
"483 -10 OFFCURVE",
"514 11 OFFCURVE",
"539 22 CURVE",
"524 63 LINE",
"524 62 OFFCURVE",
"472 48 OFFCURVE",
"477 48 CURVE SMOOTH",
"461 48 OFFCURVE",
"457 51 OFFCURVE",
"457 79 CURVE SMOOTH",
"457 497 LINE",
"381 497 LINE",
"394 435 LINE",
"394 193 LINE SMOOTH",
"394 108 OFFCURVE",
"324 50 OFFCURVE",
"242 50 CURVE SMOOTH",
"157 50 OFFCURVE",
"150 130 OFFCURVE",
"150 196 CURVE SMOOTH",
"150 497 LINE",
"73 497 LINE",
"87 435 LINE",
"87 166 LINE SMOOTH",
"87 63 OFFCURVE",
"134 -12 OFFCURVE",
"241 -12 CURVE SMOOTH"
);
},
{
closed = 1;
nodes = (
"519 415 OFFCURVE",
"600 513 OFFCURVE",
"598 613 CURVE",
"508 613 LINE",
"515 545 OFFCURVE",
"484 498 OFFCURVE",
"434 497 CURVE",
"392 451 LINE"
);
}
);
width = 553;
}
);
unicode = 01B0;
},
{
glyphname = v;
layers = (
{
layerId = "42DF98DF-AAA4-4B66-9FB7-E08D57D544AF";
paths = (
{
closed = 1;
nodes = (
"12 497 LINE",
"189 -6 LINE",
"265 -6 LINE",
"443 497 LINE",
"365 497 LINE",
"256 185 LINE SMOOTH",
"248 162 OFFCURVE",
"241 141 OFFCURVE",
"233 109 CURVE",
"225 142 OFFCURVE",
"217 164 OFFCURVE",
"208 189 CURVE SMOOTH",
"100 497 LINE"
);
}
);
width = 455;
},
{
layerId = "0AB1FC3A-51B3-4F8E-BD9F-BEF828131012";
paths = (
{
closed = 1;
nodes = (
"-2 497 LINE",
"173 -4 LINE",
"281 -4 LINE",
"457 497 LINE",
"349 497 LINE",
"256 235 LINE SMOOTH",
"247 208 OFFCURVE",
"244 179 OFFCURVE",
"239 151 CURVE",
"233 180 OFFCURVE",
"228 207 OFFCURVE",
"218 235 CURVE SMOOTH",
"127 497 LINE"
);
}
);
width = 455;
},
{
layerId = "49F6B500-2EFC-498D-B6E3-671BF3F335B4";
paths = (
{
closed = 1;
nodes = (
"19 497 LINE",
"197 -7 LINE",
"257 -7 LINE",
"436 497 LINE",
"373 497 LINE",
"256 159 LINE SMOOTH",
"249 138 OFFCURVE",
"239 121 OFFCURVE",
"230 87 CURVE",
"221 122 OFFCURVE",
"211 141 OFFCURVE",
"203 165 CURVE SMOOTH",
"86 497 LINE"
);
}
);
width = 455;
}
);
leftKerningGroup = v;
note = v;
rightKerningGroup = v;
unicode = 0076;
},
{
glyphname = w;
layers = (
{
anchors = (
{
name = top;
position = "{334, 497}";
}
);
layerId = "42DF98DF-AAA4-4B66-9FB7-E08D57D544AF";
paths = (
{
closed = 1;
nodes = (
"13 497 LINE",
"160 -6 LINE",
"221 -6 LINE",
"258 110 OFFCURVE",
"291 203 OFFCURVE",
"328 343 CURVE",
"363 203 OFFCURVE",
"394 110 OFFCURVE",
"429 -6 CURVE",
"489 -6 LINE",
"646 497 LINE",
"572 497 LINE",
"483 208 LINE SMOOTH",
"478 191 OFFCURVE",
"472 174 OFFCURVE",
"467 147 CURVE",
"462 174 OFFCURVE",
"457 191 OFFCURVE",
"452 208 CURVE SMOOTH",
"365 497 LINE",
"306 497 LINE",
"215 206 LINE SMOOTH",
"210 190 OFFCURVE",
"205 173 OFFCURVE",
"200 147 CURVE",
"195 174 OFFCURVE",
"190 191 OFFCURVE",
"185 208 CURVE SMOOTH",
"99 497 LINE"
);
}
);
width = 658;
},
{
anchors = (
{
name = top;
position = "{343, 497}";
}
);
layerId = "0AB1FC3A-51B3-4F8E-BD9F-BEF828131012";
paths = (
{
closed = 1;
nodes = (
"-12 497 LINE",
"136 -4 LINE",
"231 -4 LINE",
"266 107 OFFCURVE",
"308 214 OFFCURVE",
"327 329 CURVE",
"346 215 OFFCURVE",
"386 107 OFFCURVE",
"419 -4 CURVE",
"512 -4 LINE",
"670 497 LINE",
"567 497 LINE",
"496 272 LINE SMOOTH",
"486 239 OFFCURVE",
"484 208 OFFCURVE",
"480 174 CURVE",
"475 208 OFFCURVE",
"474 239 OFFCURVE",
"464 272 CURVE SMOOTH",
"397 497 LINE",
"286 497 LINE",
"214 272 LINE SMOOTH",
"203 239 OFFCURVE",
"202 207 OFFCURVE",
"197 173 CURVE",
"193 207 OFFCURVE",
"191 239 OFFCURVE",
"181 272 CURVE SMOOTH",
"114 497 LINE"
);
}
);
width = 658;
},
{
anchors = (
{
name = top;
position = "{329, 497}";
}
);
layerId = "49F6B500-2EFC-498D-B6E3-671BF3F335B4";
paths = (
{
closed = 1;
nodes = (
"26 497 LINE",
"173 -7 LINE",
"216 -7 LINE",
"254 112 OFFCURVE",
"282 197 OFFCURVE",
"329 350 CURVE",
"372 197 OFFCURVE",
"398 112 OFFCURVE",
"434 -7 CURVE",
"477 -7 LINE",
"633 497 LINE",
"575 497 LINE",
"476 174 LINE SMOOTH",
"474 166 OFFCURVE",
"466 156 OFFCURVE",
"460 133 CURVE",
"455 156 OFFCURVE",
"448 166 OFFCURVE",
"446 174 CURVE SMOOTH",
"348 497 LINE",
"317 497 LINE",
"216 171 LINE SMOOTH",
"214 164 OFFCURVE",
"207 155 OFFCURVE",
"202 133 CURVE",
"196 157 OFFCURVE",
"189 166 OFFCURVE",
"187 174 CURVE SMOOTH",
"91 497 LINE"
);
}
);
width = 658;
}
);
leftKerningGroup = v;
note = w;
rightKerningGroup = v;
unicode = 0077;
},
{
glyphname = x;
layers = (
{
background = {
paths = (
{
closed = 1;
nodes = (
"21 497 LINE",
"176 254 LINE",
"10 -1 LINE",
"92 -1 LINE",
"218 192 LINE",
"341 -1 LINE",
"436 -1 LINE",
"267 263 LINE",
"421 497 LINE",
"340 497 LINE",
"225 325 LINE",
"116 497 LINE"
);
}
);
};
layerId = "42DF98DF-AAA4-4B66-9FB7-E08D57D544AF";
paths = (
{
closed = 1;
nodes = (
"21 497 LINE",
"341 -1 LINE",
"436 -1 LINE",
"116 497 LINE"
);
},
{
closed = 1;
nodes = (
"10 -1 LINE",
"99 -1 LINE",
"426 497 LINE",
"338 497 LINE"
);
}
);
width = 446;
},
{
background = {
paths = (
{
closed = 1;
nodes = (
"8 497 LINE",
"160 261 LINE",
"-14 0 LINE",
"104 0 LINE",
"217 170 LINE",
"326 0 LINE",
"460 0 LINE",
"286 274 LINE",
"435 497 LINE",
"316 497 LINE",
"229 364 LINE",
"143 497 LINE"
);
}
);
};
layerId = "0AB1FC3A-51B3-4F8E-BD9F-BEF828131012";
paths = (
{
closed = 1;
nodes = (
"8 497 LINE",
"326 0 LINE",
"460 0 LINE",
"143 497 LINE"
);
},
{
closed = 1;
nodes = (
"-14 0 LINE",
"107 0 LINE",
"435 497 LINE",
"313 497 LINE"
);
}
);
width = 446;
},
{
layerId = "49F6B500-2EFC-498D-B6E3-671BF3F335B4";
paths = (
{
closed = 1;
nodes = (
"28 497 LINE",
"349 -2 LINE",
"423 -2 LINE",
"102 497 LINE"
);
},
{
closed = 1;
nodes = (
"23 -2 LINE",
"95 -2 LINE",
"421 497 LINE",
"351 497 LINE"
);
}
);
width = 446;
}
);
leftKerningGroup = x;
note = x;
rightKerningGroup = x;
unicode = 0078;
},
{
glyphname = y;
layers = (
{
anchors = (
{
name = bottom;
position = "{340, 0}";
},
{
name = top;
position = "{232, 497}";
}
);
background = {
paths = (
{
closed = 1;
nodes = (
"12 497 LINE",
"194 4 LINE",
"170 -62 OFFCURVE",
"133 -150 OFFCURVE",
"49 -150 CURVE SMOOTH",
"38 -150 LINE",
"38 -217 LINE",
"76 -217 LINE SMOOTH",
"181 -217 OFFCURVE",
"238 -86 OFFCURVE",
"268 -2 CURVE SMOOTH",
"444 497 LINE",
"366 497 LINE",
"322 371 OFFCURVE",
"278 245 OFFCURVE",
"234 119 CURVE",
"190 245 OFFCURVE",
"146 371 OFFCURVE",
"102 497 CURVE"
);
}
);
};
layerId = "42DF98DF-AAA4-4B66-9FB7-E08D57D544AF";
paths = (
{
closed = 1;
nodes = (
"12 497 LINE",
"194 4 LINE",
"170 -62 OFFCURVE",
"133 -150 OFFCURVE",
"49 -150 CURVE SMOOTH",
"45 -150 OFFCURVE",
"42 -150 OFFCURVE",
"38 -150 CURVE",
"38 -217 LINE",
"76 -217 LINE SMOOTH",
"181 -217 OFFCURVE",
"238 -86 OFFCURVE",
"268 -2 CURVE SMOOTH",
"444 497 LINE",
"366 497 LINE",
"337 414 OFFCURVE",
"308 332 OFFCURVE",
"279 246 CURVE SMOOTH",
"264 201 OFFCURVE",
"249 155 OFFCURVE",
"234 109 CURVE",
"219 154 OFFCURVE",
"204 201 OFFCURVE",
"189 246 CURVE SMOOTH",
"160 332 OFFCURVE",
"131 414 OFFCURVE",
"102 497 CURVE"
);
}
);
width = 456;
},
{
anchors = (
{
name = bottom;
position = "{344, 0}";
},
{
name = top;
position = "{236, 497}";
}
);
layerId = "0AB1FC3A-51B3-4F8E-BD9F-BEF828131012";
paths = (
{
closed = 1;
nodes = (
"-2 497 LINE",
"178 1 LINE",
"159 -58 OFFCURVE",
"129 -139 OFFCURVE",
"53 -139 CURVE SMOOTH",
"44 -139 OFFCURVE",
"35 -138 OFFCURVE",
"27 -136 CURVE",
"27 -221 LINE",
"64 -221 LINE SMOOTH",
"184 -221 OFFCURVE",
"246 -103 OFFCURVE",
"281 -3 CURVE SMOOTH",
"458 497 LINE",
"348 497 LINE",
"316 405 OFFCURVE",
"281 314 OFFCURVE",
"252 221 CURVE SMOOTH",
"245 198 OFFCURVE",
"242 170 OFFCURVE",
"238 146 CURVE",
"233 170 OFFCURVE",
"231 198 OFFCURVE",
"224 221 CURVE SMOOTH",
"194 314 OFFCURVE",
"159 405 OFFCURVE",
"127 497 CURVE"
);
}
);
width = 456;
},
{
anchors = (
{
name = bottom;
position = "{338, 0}";
},
{
name = top;
position = "{230, 497}";
}
);
layerId = "49F6B500-2EFC-498D-B6E3-671BF3F335B4";
paths = (
{
closed = 1;
nodes = (
"19 497 LINE",
"202 6 LINE",
"176 -64 OFFCURVE",
"135 -156 OFFCURVE",
"47 -156 CURVE SMOOTH",
"46 -156 OFFCURVE",
"46 -156 OFFCURVE",
"44 -157 CURVE",
"44 -215 LINE",
"82 -215 LINE SMOOTH",
"179 -215 OFFCURVE",
"234 -77 OFFCURVE",
"261 -1 CURVE SMOOTH",
"437 497 LINE",
"375 497 LINE",
"348 419 OFFCURVE",
"322 341 OFFCURVE",
"293 259 CURVE SMOOTH",
"274 203 OFFCURVE",
"253 147 OFFCURVE",
"232 90 CURVE",
"212 146 OFFCURVE",
"190 203 OFFCURVE",
"171 259 CURVE SMOOTH",
"142 341 OFFCURVE",
"116 419 OFFCURVE",
"89 497 CURVE"
);
}
);
width = 456;
}
);
leftKerningGroup = v;
note = y;
rightKerningGroup = v;
unicode = 0079;
},
{
glyphname = z;
layers = (
{
anchors = (
{
name = top;
position = "{225, 497}";
}
);
layerId = "42DF98DF-AAA4-4B66-9FB7-E08D57D544AF";
paths = (
{
closed = 1;
nodes = (
"55 433 LINE",
"289 433 LINE",
"32 47 LINE",
"32 0 LINE",
"402 0 LINE",
"413 63 LINE",
"143 63 LINE",
"401 449 LINE",
"401 497 LINE",
"55 497 LINE"
);
}
);
width = 445;
},
{
anchors = (
{
name = top;
position = "{225, 497}";
}
);
layerId = "0AB1FC3A-51B3-4F8E-BD9F-BEF828131012";
paths = (
{
closed = 1;
nodes = (
"42 414 LINE",
"251 414 LINE",
"17 61 LINE",
"17 0 LINE",
"414 0 LINE",
"428 83 LINE",
"177 83 LINE",
"414 435 LINE",
"414 497 LINE",
"42 497 LINE"
);
}
);
width = 445;
},
{
anchors = (
{
name = top;
position = "{225, 497}";
}
);
layerId = "49F6B500-2EFC-498D-B6E3-671BF3F335B4";
paths = (
{
closed = 1;
nodes = (
"62 443 LINE",
"309 443 LINE",
"40 40 LINE",
"40 0 LINE",
"396 0 LINE",
"405 52 LINE",
"125 52 LINE",
"394 456 LINE",
"394 497 LINE",
"62 497 LINE"
);
}
);
width = 445;
}
);
leftKerningGroup = z;
note = z;
rightKerningGroup = z;
unicode = 007A;
},
{
glyphname = f_f;
layers = (
{
layerId = "42DF98DF-AAA4-4B66-9FB7-E08D57D544AF";
paths = (
{
closed = 1;
nodes = (
"238 770 OFFCURVE",
"188 743 OFFCURVE",
"155 700 CURVE SMOOTH",
"114 648 OFFCURVE",
"116 619 OFFCURVE",
"97 527 CURVE SMOOTH",
"89 488 OFFCURVE",
"52 490 OFFCURVE",
"20 487 CURVE",
"20 435 LINE",
"95 435 LINE",
"95 0 LINE",
"177 0 LINE",
"177 435 LINE",
"302 435 LINE",
"407 497 LINE",
"177 497 LINE",
"177 585 OFFCURVE",
"188 708 OFFCURVE",
"305 708 CURVE SMOOTH",
"329 708 OFFCURVE",
"359 699 OFFCURVE",
"377 683 CURVE",
"400 745 LINE",
"368 763 OFFCURVE",
"340 770 OFFCURVE",
"303 770 CURVE SMOOTH"
);
},
{
closed = 1;
nodes = (
"526 770 OFFCURVE",
"476 743 OFFCURVE",
"443 700 CURVE SMOOTH",
"402 648 OFFCURVE",
"404 629 OFFCURVE",
"385 537 CURVE SMOOTH",
"377 498 OFFCURVE",
"343 497 OFFCURVE",
"308 497 CURVE",
"283 435 LINE",
"383 435 LINE",
"383 0 LINE",
"465 0 LINE",
"465 435 LINE",
"590 435 LINE",
"608 497 LINE",
"465 497 LINE",
"465 585 OFFCURVE",
"476 708 OFFCURVE",
"593 708 CURVE SMOOTH",
"617 708 OFFCURVE",
"647 699 OFFCURVE",
"665 683 CURVE",
"688 745 LINE",
"656 763 OFFCURVE",
"628 770 OFFCURVE",
"591 770 CURVE SMOOTH"
);
}
);
width = 576;
},
{
layerId = "0AB1FC3A-51B3-4F8E-BD9F-BEF828131012";
paths = (
{
closed = 1;
nodes = (
"262 776 OFFCURVE",
"208 762 OFFCURVE",
"172 730 CURVE SMOOTH",
"103 666 OFFCURVE",
"105 616 OFFCURVE",
"87 532 CURVE SMOOTH",
"78 490 OFFCURVE",
"31 488 OFFCURVE",
"3 488 CURVE",
"3 417 LINE",
"85 417 LINE",
"85 -1 LINE",
"205 -1 LINE",
"205 417 LINE",
"304 417 LINE",
"407 497 LINE",
"205 497 LINE",
"205 633 OFFCURVE",
"232 694 OFFCURVE",
"314 694 CURVE SMOOTH",
"334 694 OFFCURVE",
"359 684 OFFCURVE",
"376 672 CURVE",
"408 753 LINE",
"382 769 OFFCURVE",
"339 776 OFFCURVE",
"309 776 CURVE SMOOTH"
);
},
{
closed = 1;
nodes = (
"532 776 OFFCURVE",
"478 762 OFFCURVE",
"442 730 CURVE SMOOTH",
"373 666 OFFCURVE",
"377 616 OFFCURVE",
"357 532 CURVE SMOOTH",
"348 494 OFFCURVE",
"301 497 OFFCURVE",
"273 497 CURVE",
"273 417 LINE",
"355 417 LINE",
"355 -1 LINE",
"475 -1 LINE",
"475 417 LINE",
"574 417 LINE",
"597 497 LINE",
"475 497 LINE",
"475 633 OFFCURVE",
"502 694 OFFCURVE",
"584 694 CURVE SMOOTH",
"604 694 OFFCURVE",
"629 684 OFFCURVE",
"646 672 CURVE",
"678 753 LINE",
"652 769 OFFCURVE",
"609 776 OFFCURVE",
"579 776 CURVE SMOOTH"
);
}
);
width = 558;
},
{
layerId = "49F6B500-2EFC-498D-B6E3-671BF3F335B4";
paths = (
{
closed = 1;
nodes = (
"225 767 OFFCURVE",
"177 733 OFFCURVE",
"146 684 CURVE SMOOTH",
"120 639 OFFCURVE",
"122 621 OFFCURVE",
"102 524 CURVE SMOOTH",
"95 487 OFFCURVE",
"63 491 OFFCURVE",
"29 486 CURVE",
"29 444 LINE",
"100 444 LINE",
"100 1 LINE",
"162 1 LINE",
"162 444 LINE",
"301 444 LINE",
"407 497 LINE",
"162 497 LINE",
"162 560 OFFCURVE",
"165 715 OFFCURVE",
"300 715 CURVE SMOOTH",
"326 715 OFFCURVE",
"359 707 OFFCURVE",
"378 689 CURVE",
"396 741 LINE",
"361 760 OFFCURVE",
"341 767 OFFCURVE",
"300 767 CURVE SMOOTH"
);
},
{
closed = 1;
nodes = (
"523 767 OFFCURVE",
"475 733 OFFCURVE",
"444 684 CURVE SMOOTH",
"417 639 OFFCURVE",
"418 636 OFFCURVE",
"400 540 CURVE SMOOTH",
"392 500 OFFCURVE",
"365 497 OFFCURVE",
"326 497 CURVE",
"288 444 LINE",
"398 444 LINE",
"398 1 LINE",
"460 1 LINE",
"460 444 LINE",
"598 444 LINE",
"614 497 LINE",
"460 497 LINE",
"460 560 OFFCURVE",
"462 715 OFFCURVE",
"598 715 CURVE SMOOTH",
"624 715 OFFCURVE",
"656 707 OFFCURVE",
"675 689 CURVE",
"693 741 LINE",
"658 760 OFFCURVE",
"638 767 OFFCURVE",
"597 767 CURVE SMOOTH"
);
}
);
width = 585;
}
);
leftMetricsKey = f;
rightMetricsKey = f;
},
{
glyphname = f_f_i;
layers = (
{
layerId = "42DF98DF-AAA4-4B66-9FB7-E08D57D544AF";
paths = (
{
closed = 1;
nodes = (
"238 770 OFFCURVE",
"188 743 OFFCURVE",
"155 700 CURVE SMOOTH",
"114 648 OFFCURVE",
"116 619 OFFCURVE",
"97 527 CURVE SMOOTH",
"89 488 OFFCURVE",
"52 490 OFFCURVE",
"20 487 CURVE",
"20 435 LINE",
"95 435 LINE",
"95 0 LINE",
"177 0 LINE",
"177 435 LINE",
"415 435 LINE",
"407 497 LINE",
"177 497 LINE",
"177 585 OFFCURVE",
"188 708 OFFCURVE",
"305 708 CURVE SMOOTH",
"329 708 OFFCURVE",
"359 699 OFFCURVE",
"377 683 CURVE",
"400 745 LINE",
"368 763 OFFCURVE",
"340 770 OFFCURVE",
"303 770 CURVE SMOOTH"
);
},
{
closed = 1;
nodes = (
"471 769 OFFCURVE",
"416 705 OFFCURVE",
"396 599 CURVE SMOOTH",
"381 511 OFFCURVE",
"384 497 OFFCURVE",
"307 497 CURVE",
"307 435 LINE",
"382 435 LINE",
"382 -1 LINE",
"465 -1 LINE",
"465 434 LINE",
"672 434 LINE",
"672 -1 LINE",
"754 -1 LINE",
"754 497 LINE",
"464 497 LINE",
"464 596 OFFCURVE",
"474 707 OFFCURVE",
"586 707 CURVE SMOOTH",
"633 707 OFFCURVE",
"658 677 OFFCURVE",
"667 631 CURVE",
"750 656 LINE",
"724 732 OFFCURVE",
"661 769 OFFCURVE",
"584 769 CURVE SMOOTH"
);
}
);
width = 835;
},
{
layerId = "0AB1FC3A-51B3-4F8E-BD9F-BEF828131012";
paths = (
{
closed = 1;
nodes = (
"262 776 OFFCURVE",
"208 762 OFFCURVE",
"172 730 CURVE SMOOTH",
"103 666 OFFCURVE",
"105 616 OFFCURVE",
"87 532 CURVE SMOOTH",
"78 490 OFFCURVE",
"31 488 OFFCURVE",
"3 488 CURVE",
"3 417 LINE",
"85 417 LINE",
"85 -1 LINE",
"205 -1 LINE",
"205 417 LINE",
"304 417 LINE",
"407 497 LINE",
"205 497 LINE",
"205 633 OFFCURVE",
"232 694 OFFCURVE",
"314 694 CURVE SMOOTH",
"334 694 OFFCURVE",
"359 684 OFFCURVE",
"376 672 CURVE",
"408 753 LINE",
"382 769 OFFCURVE",
"339 776 OFFCURVE",
"309 776 CURVE SMOOTH"
);
},
{
closed = 1;
nodes = (
"457 775 OFFCURVE",
"398 705 OFFCURVE",
"371 596 CURVE SMOOTH",
"358 544 OFFCURVE",
"359 497 OFFCURVE",
"272 497 CURVE",
"272 417 LINE",
"354 417 LINE",
"354 0 LINE",
"475 0 LINE",
"475 417 LINE",
"652 417 LINE",
"652 0 LINE",
"772 0 LINE",
"772 497 LINE",
"475 497 LINE",
"477 610 OFFCURVE",
"492 694 OFFCURVE",
"582 694 CURVE SMOOTH",
"615 694 OFFCURVE",
"655 658 OFFCURVE",
"662 600 CURVE",
"775 630 LINE",
"735 736 OFFCURVE",
"662 775 OFFCURVE",
"583 775 CURVE SMOOTH"
);
}
);
width = 820;
},
{
layerId = "49F6B500-2EFC-498D-B6E3-671BF3F335B4";
paths = (
{
closed = 1;
nodes = (
"225 767 OFFCURVE",
"177 733 OFFCURVE",
"146 684 CURVE SMOOTH",
"120 639 OFFCURVE",
"122 621 OFFCURVE",
"102 524 CURVE SMOOTH",
"95 487 OFFCURVE",
"63 491 OFFCURVE",
"29 486 CURVE",
"29 444 LINE",
"100 444 LINE",
"100 1 LINE",
"162 1 LINE",
"162 444 LINE",
"473 444 LINE",
"407 497 LINE",
"162 497 LINE",
"162 560 OFFCURVE",
"165 715 OFFCURVE",
"300 715 CURVE SMOOTH",
"326 715 OFFCURVE",
"359 707 OFFCURVE",
"378 689 CURVE",
"396 741 LINE",
"361 760 OFFCURVE",
"341 767 OFFCURVE",
"300 767 CURVE SMOOTH"
);
},
{
closed = 1;
nodes = (
"478 766 OFFCURVE",
"425 705 OFFCURVE",
"409 601 CURVE SMOOTH",
"393 494 OFFCURVE",
"397 497 OFFCURVE",
"325 497 CURVE",
"325 444 LINE",
"397 444 LINE",
"397 -2 LINE",
"460 -2 LINE",
"460 443 LINE",
"683 443 LINE",
"683 -2 LINE",
"745 -2 LINE",
"745 497 LINE",
"458 497 LINE",
"457 589 OFFCURVE",
"465 714 OFFCURVE",
"588 714 CURVE SMOOTH",
"642 714 OFFCURVE",
"660 687 OFFCURVE",
"670 647 CURVE",
"737 670 LINE",
"718 730 OFFCURVE",
"660 766 OFFCURVE",
"585 766 CURVE SMOOTH"
);
}
);
width = 843;
}
);
leftMetricsKey = f;
rightMetricsKey = fi;
},
{
glyphname = f_f_l;
layers = (
{
layerId = "42DF98DF-AAA4-4B66-9FB7-E08D57D544AF";
paths = (
{
closed = 1;
nodes = (
"238 770 OFFCURVE",
"188 743 OFFCURVE",
"155 700 CURVE SMOOTH",
"114 648 OFFCURVE",
"116 619 OFFCURVE",
"97 527 CURVE SMOOTH",
"89 488 OFFCURVE",
"52 490 OFFCURVE",
"20 487 CURVE",
"20 435 LINE",
"95 435 LINE",
"95 0 LINE",
"177 0 LINE",
"177 435 LINE",
"405 435 LINE",
"407 497 LINE",
"177 497 LINE",
"177 585 OFFCURVE",
"188 708 OFFCURVE",
"305 708 CURVE SMOOTH",
"329 708 OFFCURVE",
"359 699 OFFCURVE",
"377 683 CURVE",
"400 745 LINE",
"368 763 OFFCURVE",
"340 770 OFFCURVE",
"303 770 CURVE SMOOTH"
);
},
{
closed = 1;
nodes = (
"482 769 OFFCURVE",
"415 704 OFFCURVE",
"396 599 CURVE SMOOTH",
"381 508 OFFCURVE",
"370 497 OFFCURVE",
"308 497 CURVE",
"308 435 LINE",
"383 435 LINE",
"383 -1 LINE",
"465 -1 LINE",
"465 434 LINE",
"590 434 LINE",
"608 497 LINE",
"465 497 LINE",
"465 586 OFFCURVE",
"469 707 OFFCURVE",
"596 707 CURVE SMOOTH",
"637 707 OFFCURVE",
"689 682 OFFCURVE",
"689 635 CURVE SMOOTH",
"689 -1 LINE",
"771 -1 LINE",
"771 764 LINE",
"706 738 LINE",
"678 759 OFFCURVE",
"628 769 OFFCURVE",
"594 769 CURVE SMOOTH"
);
}
);
width = 856;
},
{
layerId = "0AB1FC3A-51B3-4F8E-BD9F-BEF828131012";
paths = (
{
closed = 1;
nodes = (
"262 776 OFFCURVE",
"208 762 OFFCURVE",
"172 730 CURVE SMOOTH",
"103 666 OFFCURVE",
"105 616 OFFCURVE",
"87 532 CURVE SMOOTH",
"78 490 OFFCURVE",
"31 488 OFFCURVE",
"3 488 CURVE",
"3 417 LINE",
"85 417 LINE",
"85 -1 LINE",
"205 -1 LINE",
"205 417 LINE",
"304 417 LINE",
"407 497 LINE",
"205 497 LINE",
"205 633 OFFCURVE",
"232 694 OFFCURVE",
"314 694 CURVE SMOOTH",
"334 694 OFFCURVE",
"359 684 OFFCURVE",
"376 672 CURVE",
"408 753 LINE",
"382 769 OFFCURVE",
"339 776 OFFCURVE",
"309 776 CURVE SMOOTH"
);
},
{
closed = 1;
nodes = (
"441 774 OFFCURVE",
"397 700 OFFCURVE",
"372 596 CURVE SMOOTH",
"356 530 OFFCURVE",
"342 497 OFFCURVE",
"273 497 CURVE",
"273 417 LINE",
"355 417 LINE",
"355 0 LINE",
"475 0 LINE",
"475 417 LINE",
"574 417 LINE",
"597 497 LINE",
"475 497 LINE",
"475 630 OFFCURVE",
"505 694 OFFCURVE",
"576 694 CURVE SMOOTH",
"628 694 OFFCURVE",
"652 653 OFFCURVE",
"652 616 CURVE SMOOTH",
"652 0 LINE",
"774 0 LINE",
"774 779 LINE",
"677 745 LINE",
"650 759 OFFCURVE",
"620 774 OFFCURVE",
"578 774 CURVE SMOOTH"
);
}
);
width = 836;
},
{
layerId = "49F6B500-2EFC-498D-B6E3-671BF3F335B4";
paths = (
{
closed = 1;
nodes = (
"225 767 OFFCURVE",
"177 733 OFFCURVE",
"146 684 CURVE SMOOTH",
"120 639 OFFCURVE",
"122 621 OFFCURVE",
"102 524 CURVE SMOOTH",
"95 487 OFFCURVE",
"63 491 OFFCURVE",
"29 486 CURVE",
"29 444 LINE",
"100 444 LINE",
"100 1 LINE",
"162 1 LINE",
"162 444 LINE",
"458 444 LINE",
"407 497 LINE",
"162 497 LINE",
"162 560 OFFCURVE",
"165 715 OFFCURVE",
"300 715 CURVE SMOOTH",
"326 715 OFFCURVE",
"359 707 OFFCURVE",
"378 689 CURVE",
"396 741 LINE",
"361 760 OFFCURVE",
"341 767 OFFCURVE",
"300 767 CURVE SMOOTH"
);
},
{
closed = 1;
nodes = (
"504 766 OFFCURVE",
"424 706 OFFCURVE",
"409 601 CURVE SMOOTH",
"394 496 OFFCURVE",
"385 497 OFFCURVE",
"326 497 CURVE",
"326 444 LINE",
"398 444 LINE",
"398 -2 LINE",
"460 -2 LINE",
"460 443 LINE",
"598 443 LINE",
"614 497 LINE",
"460 497 LINE",
"460 563 OFFCURVE",
"450 714 OFFCURVE",
"607 714 CURVE SMOOTH",
"642 714 OFFCURVE",
"708 697 OFFCURVE",
"708 645 CURVE SMOOTH",
"708 -2 LINE",
"769 -2 LINE",
"769 756 LINE",
"721 734 LINE",
"693 759 OFFCURVE",
"632 766 OFFCURVE",
"602 766 CURVE SMOOTH"
);
}
);
width = 867;
}
);
leftMetricsKey = f;
rightMetricsKey = fl;
},
{
glyphname = f_iacute;
layers = (
{
background = {
paths = (
{
closed = 1;
nodes = (
"238 770 OFFCURVE",
"188 743 OFFCURVE",
"155 700 CURVE SMOOTH",
"114 648 OFFCURVE",
"116 619 OFFCURVE",
"97 527 CURVE SMOOTH",
"89 488 OFFCURVE",
"52 490 OFFCURVE",
"20 487 CURVE",
"20 435 LINE",
"95 435 LINE",
"95 0 LINE",
"177 0 LINE",
"177 435 LINE",
"402 435 LINE",
"420 497 LINE",
"177 497 LINE",
"177 585 OFFCURVE",
"188 708 OFFCURVE",
"305 708 CURVE SMOOTH",
"329 708 OFFCURVE",
"359 699 OFFCURVE",
"377 683 CURVE",
"400 745 LINE",
"368 763 OFFCURVE",
"340 770 OFFCURVE",
"303 770 CURVE SMOOTH"
);
}
);
};
layerId = "42DF98DF-AAA4-4B66-9FB7-E08D57D544AF";
paths = (
{
closed = 1;
nodes = (
"168 770 OFFCURVE",
"114 677 OFFCURVE",
"100 539 CURVE SMOOTH",
"95 488 OFFCURVE",
"52 490 OFFCURVE",
"20 487 CURVE",
"20 435 LINE",
"95 435 LINE",
"95 0 LINE",
"177 0 LINE",
"177 435 LINE",
"402 435 LINE",
"420 497 LINE",
"177 497 LINE",
"177 585 OFFCURVE",
"188 708 OFFCURVE",
"305 708 CURVE SMOOTH",
"325 708 OFFCURVE",
"349 702 OFFCURVE",
"367 690 CURVE",
"400 745 LINE",
"368 763 OFFCURVE",
"340 770 OFFCURVE",
"303 770 CURVE SMOOTH"
);
},
{
closed = 1;
nodes = (
"372 0 LINE",
"455 0 LINE",
"455 497 LINE",
"360 497 LINE",
"361 491 OFFCURVE",
"372 440 OFFCURVE",
"372 438 CURVE SMOOTH"
);
},
{
closed = 1;
nodes = (
"371 581 LINE",
"449 581 LINE",
"589 733 LINE",
"467 733 LINE"
);
}
);
width = 540;
},
{
layerId = "0AB1FC3A-51B3-4F8E-BD9F-BEF828131012";
paths = (
{
closed = 1;
nodes = (
"174 775 OFFCURVE",
"114 696 OFFCURVE",
"87 532 CURVE SMOOTH",
"80 490 OFFCURVE",
"31 488 OFFCURVE",
"3 488 CURVE",
"3 417 LINE",
"85 417 LINE",
"85 -1 LINE",
"205 -1 LINE",
"205 417 LINE",
"424 417 LINE",
"447 497 LINE",
"205 497 LINE",
"205 633 OFFCURVE",
"230 694 OFFCURVE",
"307 694 CURVE SMOOTH",
"334 694 OFFCURVE",
"358 681 OFFCURVE",
"376 669 CURVE",
"424 746 LINE",
"394 765 OFFCURVE",
"352 775 OFFCURVE",
"309 775 CURVE SMOOTH"
);
},
{
closed = 1;
nodes = (
"388 0 LINE",
"508 0 LINE",
"508 497 LINE",
"377 497 LINE",
"378 492 OFFCURVE",
"388 445 OFFCURVE",
"388 443 CURVE SMOOTH"
);
},
{
closed = 1;
nodes = (
"398 570 LINE",
"501 570 LINE",
"652 735 LINE",
"507 735 LINE"
);
}
);
width = 574;
},
{
layerId = "49F6B500-2EFC-498D-B6E3-671BF3F335B4";
paths = (
{
closed = 1;
nodes = (
"165 767 OFFCURVE",
"114 667 OFFCURVE",
"107 543 CURVE SMOOTH",
"103 487 OFFCURVE",
"63 491 OFFCURVE",
"29 486 CURVE",
"29 444 LINE",
"100 444 LINE",
"100 1 LINE",
"162 1 LINE",
"162 444 LINE",
"390 444 LINE",
"406 497 LINE",
"162 497 LINE",
"162 560 OFFCURVE",
"166 715 OFFCURVE",
"304 715 CURVE SMOOTH",
"320 715 OFFCURVE",
"344 713 OFFCURVE",
"362 701 CURVE",
"387 744 LINE",
"354 762 OFFCURVE",
"334 767 OFFCURVE",
"300 767 CURVE SMOOTH"
);
},
{
closed = 1;
nodes = (
"364 0 LINE",
"427 0 LINE",
"427 497 LINE",
"351 497 LINE",
"352 490 OFFCURVE",
"364 437 OFFCURVE",
"364 435 CURVE SMOOTH"
);
},
{
closed = 1;
nodes = (
"357 587 LINE",
"422 587 LINE",
"556 732 LINE",
"446 732 LINE"
);
}
);
width = 522;
}
);
leftMetricsKey = f;
rightMetricsKey = iacute;
},
{
glyphname = fi;
layers = (
{
layerId = "42DF98DF-AAA4-4B66-9FB7-E08D57D544AF";
paths = (
{
closed = 1;
nodes = (
"184 769 OFFCURVE",
"129 705 OFFCURVE",
"109 599 CURVE SMOOTH",
"94 511 OFFCURVE",
"108 495 OFFCURVE",
"20 486 CURVE",
"20 434 LINE",
"95 434 LINE",
"95 -1 LINE",
"178 -1 LINE",
"178 434 LINE",
"385 434 LINE",
"385 -1 LINE",
"467 -1 LINE",
"467 497 LINE",
"177 497 LINE",
"177 596 OFFCURVE",
"187 707 OFFCURVE",
"299 707 CURVE SMOOTH",
"346 707 OFFCURVE",
"371 677 OFFCURVE",
"380 631 CURVE",
"463 656 LINE",
"437 732 OFFCURVE",
"374 769 OFFCURVE",
"297 769 CURVE SMOOTH"
);
}
);
width = 548;
},
{
layerId = "0AB1FC3A-51B3-4F8E-BD9F-BEF828131012";
paths = (
{
closed = 1;
nodes = (
"188 775 OFFCURVE",
"129 705 OFFCURVE",
"102 596 CURVE SMOOTH",
"89 544 OFFCURVE",
"90 486 OFFCURVE",
"3 486 CURVE",
"3 417 LINE",
"85 417 LINE",
"85 0 LINE",
"206 0 LINE",
"206 417 LINE",
"383 417 LINE",
"383 0 LINE",
"503 0 LINE",
"503 497 LINE",
"206 497 LINE",
"208 610 OFFCURVE",
"223 694 OFFCURVE",
"313 694 CURVE SMOOTH",
"346 694 OFFCURVE",
"386 658 OFFCURVE",
"393 600 CURVE",
"506 630 LINE",
"466 736 OFFCURVE",
"393 775 OFFCURVE",
"314 775 CURVE SMOOTH"
);
}
);
width = 551;
},
{
layerId = "49F6B500-2EFC-498D-B6E3-671BF3F335B4";
paths = (
{
closed = 1;
nodes = (
"182 766 OFFCURVE",
"129 705 OFFCURVE",
"113 601 CURVE SMOOTH",
"97 494 OFFCURVE",
"117 500 OFFCURVE",
"29 486 CURVE",
"29 443 LINE",
"100 443 LINE",
"100 -2 LINE",
"163 -2 LINE",
"163 443 LINE",
"386 443 LINE",
"386 -2 LINE",
"448 -2 LINE",
"448 497 LINE",
"162 497 LINE",
"161 589 OFFCURVE",
"168 714 OFFCURVE",
"292 714 CURVE SMOOTH",
"346 714 OFFCURVE",
"363 687 OFFCURVE",
"373 647 CURVE",
"440 670 LINE",
"422 730 OFFCURVE",
"364 766 OFFCURVE",
"288 766 CURVE SMOOTH"
);
}
);
width = 546;
}
);
note = fi;
unicode = FB01;
},
{
glyphname = fl;
layers = (
{
layerId = "42DF98DF-AAA4-4B66-9FB7-E08D57D544AF";
paths = (
{
closed = 1;
nodes = (
"194 769 OFFCURVE",
"127 704 OFFCURVE",
"108 599 CURVE SMOOTH",
"93 508 OFFCURVE",
"111 494 OFFCURVE",
"20 486 CURVE",
"20 434 LINE",
"95 434 LINE",
"95 -1 LINE",
"177 -1 LINE",
"177 434 LINE",
"302 434 LINE",
"320 497 LINE",
"177 497 LINE",
"177 586 OFFCURVE",
"181 707 OFFCURVE",
"308 707 CURVE SMOOTH",
"349 707 OFFCURVE",
"401 682 OFFCURVE",
"401 635 CURVE SMOOTH",
"401 -1 LINE",
"483 -1 LINE",
"483 764 LINE",
"418 738 LINE",
"390 759 OFFCURVE",
"340 769 OFFCURVE",
"306 769 CURVE SMOOTH"
);
}
);
width = 568;
},
{
layerId = "0AB1FC3A-51B3-4F8E-BD9F-BEF828131012";
paths = (
{
closed = 1;
nodes = (
"171 774 OFFCURVE",
"127 700 OFFCURVE",
"102 596 CURVE SMOOTH",
"86 530 OFFCURVE",
"72 486 OFFCURVE",
"3 486 CURVE",
"3 417 LINE",
"85 417 LINE",
"85 0 LINE",
"205 0 LINE",
"205 417 LINE",
"304 417 LINE",
"327 497 LINE",
"205 497 LINE",
"205 630 OFFCURVE",
"235 694 OFFCURVE",
"306 694 CURVE SMOOTH",
"358 694 OFFCURVE",
"382 653 OFFCURVE",
"382 616 CURVE SMOOTH",
"382 0 LINE",
"504 0 LINE",
"504 779 LINE",
"407 745 LINE",
"380 759 OFFCURVE",
"350 774 OFFCURVE",
"308 774 CURVE SMOOTH"
);
}
);
width = 566;
},
{
layerId = "49F6B500-2EFC-498D-B6E3-671BF3F335B4";
paths = (
{
closed = 1;
nodes = (
"206 766 OFFCURVE",
"127 706 OFFCURVE",
"111 601 CURVE SMOOTH",
"97 496 OFFCURVE",
"132 498 OFFCURVE",
"29 486 CURVE",
"29 443 LINE",
"100 443 LINE",
"100 -2 LINE",
"162 -2 LINE",
"162 443 LINE",
"301 443 LINE",
"316 497 LINE",
"162 497 LINE",
"162 563 OFFCURVE",
"153 714 OFFCURVE",
"309 714 CURVE SMOOTH",
"344 714 OFFCURVE",
"411 697 OFFCURVE",
"411 645 CURVE SMOOTH",
"411 -2 LINE",
"472 -2 LINE",
"472 756 LINE",
"424 734 LINE",
"395 759 OFFCURVE",
"335 766 OFFCURVE",
"305 766 CURVE SMOOTH"
);
}
);
width = 569;
}
);
note = fl;
unicode = FB02;
},
